<?xml version="1.0" encoding="utf-8"?>
<!-- Generator: Adobe Illustrator 22.1.0, SVG Export Plug-In . SVG Version: 6.00 Build 0)  -->
<svg version="1.2" baseProfile="tiny" id="Layer_1" xmlns="http://www.w3.org/2000/svg" xmlns:xlink="http://www.w3.org/1999/xlink"
	 x="0px" y="0px" viewBox="0 0 453 111" xml:space="preserve">
<g>
	<g>
		<path fill-rule="evenodd" d="M183.6,79.8c-16.5,12.2-40.5,18.7-61.2,18.7c-29,0-55-10.7-74.8-28.5c-1.5-1.4-0.2-3.3,1.7-2.2
			C70.6,80.2,97,87.6,124.2,87.6c18.3,0,38.5-3.8,57.1-11.7C184,74.8,186.4,77.8,183.6,79.8z"/>
		<path fill-rule="evenodd" d="M190.5,72c-2.1-2.7-14-1.3-19.3-0.6c-1.6,0.2-1.9-1.2-0.4-2.2c9.5-6.7,25-4.7,26.8-2.5
			c1.8,2.2-0.5,17.8-9.4,25.2c-1.4,1.1-2.7,0.5-2.1-1C188.2,85.8,192.6,74.7,190.5,72z"/>
	</g>
	<g>
		<path fill-rule="evenodd" d="M171.6,22.1v-6.5c0-1,0.7-1.6,1.6-1.6l29,0c0.9,0,1.7,0.7,1.7,1.6l0,5.5c0,0.9-0.8,2.1-2.2,4.1
			l-15,21.4c5.6-0.1,11.5,0.7,16.5,3.5c1.1,0.6,1.4,1.6,1.5,2.5v6.9c0,1-1,2.1-2.1,1.5c-8.9-4.7-20.8-5.2-30.6,0.1
			c-1,0.5-2.1-0.5-2.1-1.5v-6.6c0-1,0-2.8,1.1-4.4l17.4-24.9l-15.1,0C172.3,23.7,171.6,23,171.6,22.1z"/>
		<path fill-rule="evenodd" d="M65.9,62.4H57c-0.8-0.1-1.5-0.7-1.6-1.5l0-45.2c0-0.9,0.8-1.6,1.7-1.6l8.2,0c0.9,0,1.5,0.7,1.6,1.5
			v5.9h0.2c2.1-5.7,6.2-8.4,11.6-8.4c5.5,0,9,2.7,11.4,8.4c2.1-5.7,7-8.4,12.2-8.4c3.7,0,7.7,1.5,10.2,5c2.8,3.8,2.2,9.3,2.2,14.2
			l0,28.6c0,0.9-0.8,1.6-1.7,1.6h-8.8c-0.9-0.1-1.6-0.8-1.6-1.6l0-24c0-1.9,0.2-6.7-0.2-8.5c-0.7-3-2.6-3.9-5.2-3.9
			c-2.1,0-4.4,1.4-5.3,3.7c-0.9,2.3-0.8,6.1-0.8,8.7v24c0,0.9-0.8,1.6-1.7,1.6h-8.8c-0.9-0.1-1.6-0.8-1.6-1.6l0-24
			c0-5,0.8-12.5-5.4-12.5c-6.3,0-6.1,7.2-6.1,12.5l0,24C67.6,61.7,66.8,62.4,65.9,62.4z"/>
		<path fill-rule="evenodd" d="M228.8,13.1c13.1,0,20.2,11.2,20.2,25.5c0,13.8-7.8,24.8-20.2,24.8C216,63.4,209,52.2,209,38.2
			C209,24.1,216,13.1,228.8,13.1z M228.9,22.4c-6.5,0-6.9,8.9-6.9,14.4c0,5.5-0.1,17.3,6.8,17.3c6.8,0,7.2-9.5,7.2-15.3
			c0-3.8-0.2-8.4-1.3-12C233.6,23.6,231.7,22.4,228.9,22.4z"/>
		<path fill-rule="evenodd" d="M265.9,62.4h-8.8c-0.9-0.1-1.6-0.8-1.6-1.6l0-45.3c0.1-0.8,0.8-1.5,1.7-1.5l8.2,0
			c0.8,0,1.4,0.6,1.6,1.3v6.9h0.2c2.5-6.2,5.9-9.1,12-9.1c3.9,0,7.8,1.4,10.3,5.3c2.3,3.6,2.3,9.7,2.3,14.1V61
			c-0.1,0.8-0.8,1.4-1.7,1.4h-8.8c-0.8-0.1-1.5-0.7-1.6-1.4V36.5c0-5,0.6-12.2-5.5-12.2c-2.1,0-4.1,1.4-5.1,3.6
			c-1.2,2.8-1.4,5.5-1.4,8.6v24.4C267.6,61.7,266.9,62.4,265.9,62.4z"/>
		<path fill-rule="evenodd" d="M297.3,58.9c0-2.3,1.9-4.1,4.3-4.1c2.4,0,4.3,1.8,4.3,4.1c0,2.3-1.9,4.1-4.3,4.1
			C299.2,63,297.3,61.1,297.3,58.9z"/>
		<path d="M390.7,62.5c-0.9,0-1.6-0.7-1.6-1.6V15.6c0.1-0.8,0.7-1.4,1.6-1.5l3.2,0c0.9,0,1.6,0.7,1.7,1.5v6.6
			c2.3-5.2,6.6-9.3,12-9.3l0.3,0l0.3,0c5.7,0,10,4.2,11.5,10.4c2.4-6.1,7-10.4,13.1-10.4l0.3,0l0.4,0c4.3,0,8.4,2.8,10.5,7
			c2.1,4,2,9.3,2,13.8l0,27.2c0,0.9-0.7,1.6-1.6,1.6h-3.9c-0.8,0-1.5-0.6-1.6-1.4V33.6c0-3.2,0.2-6.7-1.2-9.6c-1.3-3-3.9-4.9-6.7-5
			c-3.1,0.2-5.9,2.4-7.7,5.4c-2.4,3.9-2.3,7.4-2.3,12v24.7c-0.1,0.8-0.8,1.3-1.6,1.4h-3.9c-0.9,0-1.6-0.7-1.6-1.6l0-29
			c0-2.7-0.2-5.8-1.4-8.2c-1.4-2.7-4-4.5-6.7-4.7c-2.8,0.2-5.6,2.3-7.2,4.8c-2.1,3.1-2.6,7-2.6,11l0,26.1c0,0.9-0.7,1.6-1.6,1.6
			H390.7z"/>
		<path d="M364.1,63.4c-12.5,0-18.1-12.8-18.1-25.5c0-13.4,6.6-25,19.2-25l0.3,0l0.3,0c12.3,0,18.4,12.4,18.4,25.1
			c0,13.5-6.7,25.4-19.4,25.4l-0.3,0L364.1,63.4z M365,57.2c4.1-0.1,7.4-2.7,9.3-6.9c1.7-3.8,2.1-8.2,2.1-12.4
			c0-4.6-0.5-9.3-2.6-13.2c-1.9-3.4-5.2-5.6-8.7-5.7c-3.9,0.1-7.4,2.8-9.1,6.8c-1.6,3.5-2.1,8.2-2.1,12.1c0,4.4,0.6,9.4,2.4,13.2
			C358,54.7,361.4,57.1,365,57.2z"/>
		<path d="M325,57c5.6-0.2,8.6-4.7,9.8-10.5c0.2-0.7,0.8-1.3,1.6-1.3l3.7,0c0.9,0,1.7,0.7,1.6,1.5c-1.7,9.9-7.7,16.7-16.2,16.7
			l-0.3,0l-0.3,0c-12.4,0-17.8-12.5-17.8-25.1c0-12.6,5.4-25.4,17.9-25.4l0.3,0l0.3,0c8.6,0,14.8,6.6,16.1,16.6
			c0,0.7-0.7,1.4-1.5,1.5l-3.9,0c-0.8-0.1-1.3-0.8-1.5-1.6c-0.9-5.5-4.1-10-9.4-10.1c-8.4,0.3-10.9,10.7-10.9,18.7
			C314.6,45.5,316.6,56.8,325,57z"/>
		<path fill-rule="evenodd" d="M148.5,40.8c0,3.4,0.1,6.3-1.6,9.4c-1.4,2.5-3.6,4-6.1,4c-3.4,0-5.4-2.6-5.4-6.4
			c0-7.5,6.7-8.9,13.1-8.9V40.8z M157.3,62.3c-0.6,0.5-1.4,0.6-2.1,0.2c-2.9-2.4-3.5-3.6-5.1-5.9c-4.8,4.9-8.3,6.4-14.5,6.4
			c-7.4,0-13.2-4.6-13.2-13.7c0-7.2,3.9-12,9.4-14.4c4.8-2.1,11.5-2.5,16.6-3.1v-1.1c0-2.1,0.2-4.6-1.1-6.4
			c-1.1-1.6-3.1-2.3-4.9-2.3c-3.4,0-6.4,1.7-7.1,5.3c-0.2,0.8-0.7,1.6-1.5,1.6l-8.5-0.9c-0.7-0.2-1.5-0.7-1.3-1.8
			c2-10.4,11.3-13.5,19.7-13.5c4.3,0,9.9,1.1,13.3,4.4c4.3,4,3.9,9.4,3.9,15.2V46c0,4.1,1.7,5.9,3.3,8.2c0.6,0.8,0.7,1.8,0,2.3
			C162.3,58,159.1,60.8,157.3,62.3L157.3,62.3z"/>
		<path fill-rule="evenodd" d="M32.9,40.8c0,3.4,0.1,6.3-1.6,9.4c-1.4,2.5-3.6,4-6.1,4c-3.4,0-5.4-2.6-5.4-6.4
			c0-7.5,6.7-8.9,13.1-8.9V40.8z M41.8,62.3c-0.6,0.5-1.4,0.6-2.1,0.2c-2.9-2.4-3.5-3.6-5.1-5.9c-4.8,4.9-8.3,6.4-14.5,6.4
			c-7.4,0-13.2-4.6-13.2-13.7c0-7.2,3.9-12,9.4-14.4c4.8-2.1,11.5-2.5,16.6-3.1v-1.1c0-2.1,0.2-4.6-1.1-6.4
			c-1.1-1.6-3.1-2.3-4.9-2.3c-3.4,0-6.4,1.7-7.1,5.3c-0.2,0.8-0.7,1.6-1.5,1.6L9.7,28c-0.7-0.2-1.5-0.7-1.3-1.8
			c2-10.4,11.3-13.5,19.7-13.5c4.3,0,9.9,1.1,13.3,4.4c4.3,4,3.9,9.4,3.9,15.2V46c0,4.1,1.7,5.9,3.3,8.2c0.6,0.8,0.7,1.8,0,2.3
			C46.8,58,43.6,60.8,41.8,62.3L41.8,62.3z"/>
	</g>
</g>
</svg>
