<?xml version="1.0" encoding="utf-8"?>
<!-- Generator: Adobe Illustrator 22.1.0, SVG Export Plug-In . SVG Version: 6.00 Build 0)  -->
<svg version="1.2" baseProfile="tiny" id="Layer_1" xmlns="http://www.w3.org/2000/svg" xmlns:xlink="http://www.w3.org/1999/xlink"
	 x="0px" y="0px" viewBox="0 0 251.9 263.8" xml:space="preserve">
<title>01</title>
<path d="M203.6,258.8c-10.4,0-20.2-4.1-27.6-11.4c-12-12-14.9-30.2-7.2-45.3c6.7-13.1,20-21.3,34.8-21.3c6.2,0,12.1,1.4,17.7,4.3
	l7.3,3.7v-128l-146,36.5v122.5c-0.1,9.9-4,19.4-11.1,26.6c-7.4,7.6-17.3,11.7-27.9,11.7c-10.2,0-19.9-4-27.3-11.1
	c-12-12-14.9-30.2-7.1-45.2c6.7-13.1,20-21.3,34.8-21.3c6.2,0,12.1,1.4,17.7,4.3l7.3,3.7v-137c0-0.2,0.1-0.6,0.1-1l0.1-0.4l0-0.3
	c0-0.2,0.1-0.4,0.1-0.6l0.3-0.8v-0.1c0.1-0.3,0.3-0.6,0.6-0.9l0.1-0.1l0.2-0.3c0.1-0.1,0.2-0.2,0.3-0.3l0.1,0c0,0,0.4-0.3,0.6-0.5
	c0,0,0.8-0.5,0.9-0.6l0.7-0.3c0.3-0.1,0.6-0.2,0.9-0.3L233.6,5.2h0.2l0.8-0.2h2.3c0.1,0,0.2,0,0.2,0.1l0.6,0.1h0l0.3,0.1l0.6,0.2
	l1.2,0.6l0,0l1.4,1.4h0.1l0.3,0.3c0.1,0.1,0.2,0.3,0.2,0.3c0.1,0.1,0.1,0.2,0.2,0.3l0.5,1l0,0.1c0,0,0.1,0.3,0.1,0.3v0.7l0.1,0.2
	l-0.1,0.3v208.9c0,10.4-4.1,20.2-11.4,27.6C223.8,254.7,214,258.8,203.6,258.8z M203.8,194.9c-6.7,0-13,2.6-17.7,7.3
	c-9.8,9.8-9.8,25.6,0,35.4c4.7,4.7,11,7.3,17.7,7.3c6.7,0,13-2.6,17.7-7.3c4.7-4.7,7.3-10.9,7.4-17.6c0-6.7-2.6-13.1-7.4-17.8
	C216.7,197.4,210.5,194.9,203.8,194.9z M43.8,194.9c-6.7,0-13,2.6-17.7,7.3c-4.7,4.7-7.3,11-7.3,17.7c0,6.7,2.6,13,7.3,17.7
	c4.7,4.7,11,7.3,17.7,7.3s13-2.6,17.7-7.3c4.8-4.7,7.4-11,7.4-17.7c0-6.7-2.6-13-7.4-17.7C56.7,197.4,50.5,194.9,43.8,194.9z
	 M82.8,57.3v25.6l146-36.5V20.8L82.8,57.3z"/>
</svg>
