<?xml version="1.0" encoding="utf-8"?>
<!-- Generator: Adobe Illustrator 22.1.0, SVG Export Plug-In . SVG Version: 6.00 Build 0)  -->
<svg version="1.2" baseProfile="tiny" id="Layer_1" xmlns="http://www.w3.org/2000/svg" xmlns:xlink="http://www.w3.org/1999/xlink"
	 x="0px" y="0px" viewBox="0 0 233.2 43.1" xml:space="preserve">
<path fill="#ACBFC6" d="M12.7,43c0.1,0,0.2,0,0.3,0.1C12.9,43.1,12.8,43.1,12.7,43C12.7,43,12.7,43,12.7,43z"/>
<path fill="#98B2B9" d="M30.1,43.1c0.1-0.1,0.2-0.1,0.3-0.1c0,0,0,0,0,0.1C30.3,43.1,30.2,43.1,30.1,43.1z"/>
<path d="M42.3,9.5C40.3,3.8,34.9,0,28.9,0C24,0,19.1,0,14.2,0c-2,0-4,0.4-5.9,1.3C3,4,0.2,8.3,0,14.3C0,19.1,0,23.9,0,28.8
	c0,1.2,0.1,2.3,0.4,3.5C1.8,38,6.9,42.5,12.7,43c0.1,0.1,0.2,0,0.3,0.1c5.7,0,11.4,0,17.1,0c0.1-0.1,0.2,0,0.3-0.1
	c0.5,0,1-0.1,1.6-0.3c6.6-1.6,11.1-7.2,11.1-14c0-4.8,0-9.6,0-14.4C43.1,12.7,42.9,11,42.3,9.5z M29.8,18.7c-0.8,1.3-2.1,2-3.7,2
	c-4,0.1-8.1,0.2-12.1,0.1c-0.4,0-0.8,0-1.3-0.1c0.2-0.5,0.4-1,0.5-1.5c0.6-1.7,0.9-3.5,0.8-5.4c-0.1-1.6-0.5-3-1.2-4.4
	c-0.1-0.3-0.1-0.3,0.2-0.3c4.4-0.3,8.7-0.2,13.1-0.1c0.7,0,1.4,0,2.1,0.3c1.1,0.5,1.8,1.4,2.2,2.5C31.3,14.3,31.2,16.6,29.8,18.7z"
	/>
<path fill="#939598" d="M19.9,22.5c2.5,0,4.6,0,6.6,0.1c1.7,0,2.8,0.8,3.6,2.2c0.8,1.4,1,3,0.8,4.6c-0.2,1.2-0.6,2.3-1.4,3.2
	c-0.8,1-1.9,1.6-3.2,1.6c-1.2,0.1-2.5,0.1-3.7,0.1c-2.8,0-5.6,0.1-8.4,0.1c-0.4,0-0.8-0.1-1.2-0.1c-0.2,0-0.2-0.1-0.2-0.3
	c0.4-1,0.7-2,1-3.1c0.6-2.8,0.4-5.4-0.9-8c-0.1-0.3-0.1-0.3,0.2-0.3C15.5,22.4,17.9,22.5,19.9,22.5z"/>
<g>
	<path d="M233.1,29.5c-0.1-0.8-0.4-1.5-0.9-2.1c-0.7-1.1-1.7-1.8-2.9-2.3c-1.4-0.6-2.8-1-4.2-1.5c-0.4-0.1-0.7-0.3-1-0.5
		c-0.3-0.2-0.5-0.5-0.4-0.9c0.1-0.4,0.3-0.6,0.7-0.8c0.5-0.2,1.1-0.2,1.6-0.2c0.9,0.1,1.5,0.5,2.2,1c0.5,0.4,1.1,0.6,1.7,0.6
		c1.2,0,2.8-0.8,2.2-2.6c-0.4-1.3-1.3-2.2-2.5-2.8c-1.1-0.6-2.3-0.8-3.5-0.9c-2.1-0.1-4,0.3-5.8,1.5c-0.9,0.6-1.6,1.3-2,2.4
		c-0.5,1.5-0.3,3,0.5,4.5c0.6,1,1.5,1.6,2.5,2.1c1.5,0.8,3.1,1.2,4.7,1.8c0.4,0.1,0.8,0.3,1.1,0.5c0.6,0.5,0.5,1.4-0.2,1.7
		c-0.3,0.1-0.5,0.2-0.8,0.2c-1.8,0.3-3.3-0.3-4.5-1.6c-0.2-0.2-0.3-0.3-0.5-0.5c-0.8-0.5-1.9-0.5-2.6,0c-0.8,0.6-1,1.4-0.8,2.3
		c0.3,1.2,1,2.1,2,2.7c3.5,2,7.1,2.1,10.7,0.2c1.1-0.5,1.9-1.4,2.4-2.5c0.2-0.4,0.2-0.8,0.4-1.2c0,0,0-0.1,0-0.1c0-0.1,0-0.3,0-0.4
		c0-0.1,0-0.3,0-0.4c0,0,0-0.1,0-0.1c0,0,0,0.1,0,0.1C233.2,29.7,233.2,29.6,233.1,29.5C233.2,29.5,233.2,29.5,233.1,29.5z"/>
	<path d="M125.8,25.5c0-1.1-0.1-2.1-0.3-3.2c-0.4-1.8-1.1-3.4-2.7-4.5c-1-0.8-2.2-1.1-3.5-1.3c-2.1-0.2-3.9,0.4-5.3,2
		c-0.4,0.4-0.7,1-0.9,1.5c-0.7-1.3-1.6-2.4-3-3c-1.1-0.4-2.2-0.5-3.3-0.5c-1.4,0-2.6,0.5-3.6,1.5c-0.4,0.4-0.8,0.9-1.1,1.5
		c0-0.6,0-1-0.3-1.5c-0.6-1.1-2-1.6-3.4-1.2c-1.1,0.3-1.9,1.4-1.9,2.6c0,4.4,0,8.9,0,13.3c0,1.6,1.3,2.8,2.8,2.8
		c1.4,0,2.8-1.1,2.8-2.8c-0.1-2.3,0-4.7,0-7c0-0.4,0-0.8,0.1-1.2c0.2-1.6,1.3-2.6,3-2.8c1.4-0.1,2.6,0.9,3.1,2.3
		c0.1,0.5,0.2,1,0.2,1.5c0,2.4,0,4.8,0,7.2c0,0.3,0,0.6,0.1,0.8c0.4,1.3,1.8,2.1,3.4,1.8c1.1-0.2,2.1-1.1,2.1-2.7c0-2.4,0-4.7,0-7.1
		c0-0.5,0-0.9,0.1-1.3c0.2-1.3,1.2-2.4,2.4-2.5c1.5-0.2,2.7,0.4,3.4,1.7c0.3,0.7,0.4,1.4,0.4,2.1c0,2.4,0,4.7,0,7.1
		c0,1.7,1.6,3.1,3.5,2.7c1.1-0.2,2.1-1.1,2.1-2.7C125.8,30.4,125.8,28,125.8,25.5z"/>
	<path d="M208.6,25.4c-0.2-0.2-0.2-0.3,0-0.5c1.3-1.3,2.6-2.6,4-3.8c0.7-0.7,0.9-1.7,0.5-2.6c-0.7-1.7-2.8-2.2-4.1-0.9
		c-0.6,0.6-1.2,1.2-1.7,1.7c-0.9,0.9-1.8,1.8-2.8,2.7c0-0.1,0-0.3,0-0.4c0-4.1,0-8.2,0-12.3c0-0.5-0.1-0.9-0.3-1.3
		c-0.7-1.1-2-1.6-3.3-1.2c-1,0.3-1.9,1.2-1.9,2.6c0,7.8,0,15.6,0,23.4c0,1.6,1.4,2.8,2.8,2.8c1.4,0,2.9-1.1,2.8-2.8
		c-0.1-1.4,0-2.9,0-4.4c0-0.1,0-0.2,0.1-0.3c0.1,0.1,0.1,0.2,0.2,0.2c1.9,2.1,3.9,4.1,5.8,6.2c0.6,0.6,1.2,1,2,1
		c1.2,0.1,2.3-0.6,2.6-1.6c0.3-1,0-1.9-0.7-2.7C212.5,29.4,210.6,27.4,208.6,25.4z"/>
	<path d="M65.5,21.6c-0.6-0.3-1.2-0.5-1.8-0.7c0,0,0-0.1,0-0.1c0.1-0.1,0.2-0.1,0.3-0.2c1.2-0.5,2.1-1.3,2.7-2.5
		c0.5-1,0.7-2.1,0.6-3.2c-0.1-1.6-0.7-3.1-1.8-4.3c-1.5-1.6-3.3-2.3-5.4-2.4c-3.1-0.1-6.2,0-9.3-0.1c-1,0-1.8,0.4-2.2,1.4
		c-0.2,0.4-0.2,0.9-0.2,1.4c0,7.2,0,14.4,0,21.6c0,0.3,0,0.5,0,0.8c0.1,0.9,0.8,1.7,1.7,1.9c0.3,0.1,0.6,0.1,0.9,0.1
		c2.8,0,5.7,0,8.5,0c0.7,0,1.4,0,2.1-0.1c1.3-0.2,2.6-0.6,3.7-1.4c2-1.4,3.1-3.3,3.4-5.7C69.1,25.6,67.9,23,65.5,21.6z M54.2,13.5
		c0-0.2,0-0.3,0.2-0.3c1.5,0,3,0,4.5,0c1.4,0,2.3,0.9,2.4,2.3c0.1,0.8,0,1.7-0.5,2.4c-0.5,0.7-1.2,1.1-2,1.1c-1.5,0-2.9,0-4.4,0
		c-0.2,0-0.2-0.1-0.2-0.3c0-0.9,0-1.8,0-2.6C54.2,15.3,54.2,14.4,54.2,13.5z M62,29.2c-0.5,0.7-1.1,1.1-2,1.1c-1.9,0-3.8,0-5.6,0
		c-0.2,0-0.2-0.1-0.2-0.3c0-1,0-2.1,0-3.1c0-1,0-2,0-3c0-0.2,0-0.3,0.3-0.3c1.7,0,3.5,0,5.2,0c1.9,0,2.9,1.6,3,2.9
		C62.8,27.5,62.6,28.4,62,29.2z"/>
	<path d="M146.6,18.2c-1.8-1.2-3.9-1.8-6.1-1.4c-1.7,0.3-3.3,1-4.4,2.5c-0.1,0.1-0.1,0.2-0.2,0.3c0-0.2,0-0.3,0-0.5
		c0-3.2,0-6.4,0-9.6c0-0.5-0.1-0.9-0.3-1.3c-0.7-1-1.6-1.5-2.8-1.4c-1.2,0.1-2.4,1-2.4,2.6c0,7.9,0,15.7,0,23.6c0,0.3,0,0.6,0.1,0.9
		c0.5,1.6,2.4,2.2,3.8,1.5c1-0.5,1.6-1.3,1.6-2.5c1,1.5,1.9,1.9,2.6,2.2c1.7,0.8,3.4,0.9,5.2,0.4c2.8-0.7,4.8-2.4,6-5
		c0.9-2.1,1-4.2,0.6-6.4C149.9,21.6,148.7,19.6,146.6,18.2z M142.8,30.2c-2,1.4-4.8,0.7-6.2-1.4c-1.7-2.7-0.3-6.3,2.7-7.1
		c2.5-0.7,4.9,1,5.3,3.6c0,0.3,0.1,0.6,0.1,1C144.7,27.9,144.2,29.3,142.8,30.2z"/>
	<path d="M91.7,18.1c-0.6-1.1-1.9-1.6-3.2-1.3c-1.3,0.3-2,1.3-2.1,2.7c-0.1-0.1-0.2-0.2-0.2-0.3c-0.4-0.5-0.9-1.1-1.4-1.4
		c-1.8-1.1-3.8-1.5-5.9-1c-2.9,0.7-5,2.4-6.2,5.1c-0.9,2.2-1,4.5-0.5,6.8c0.3,1.4,0.9,2.8,1.9,3.9c2,2.3,4.6,3.4,7.7,3.1
		c1.5-0.1,2.8-0.8,3.9-1.9c0.3-0.3,0.5-0.6,0.8-1c0,0.4,0,0.7,0.1,0.9c0.4,1.1,1.3,1.8,2.6,1.8c1.5,0.1,2.9-1,2.9-2.6
		c0-4.6,0-9.1,0-13.7C92,18.9,91.9,18.5,91.7,18.1z M83.8,30.5c-0.6,0.3-1.2,0.4-1.8,0.4c-2.7,0-4.1-2.1-4.3-3.9
		c-0.2-1.4,0.1-2.7,0.9-3.8c1.4-1.8,4-2.2,5.9-0.8C87.4,24.5,87,28.9,83.8,30.5z"/>
	<path d="M191.4,18.5c-1.8-1.3-3.8-1.8-6.8-1.9c-0.8,0-2.3,0.3-3.7,1c-2.2,1.1-3.8,2.7-4.6,5.1c-0.6,1.6-0.7,3.2-0.5,4.9
		c0.4,3.3,2.1,5.7,5,7.2c3.3,1.6,6.7,1.5,9.9-0.4c1.8-1.1,3.1-2.7,3.8-4.7c0.5-1.6,0.7-3.2,0.5-4.8C194.7,22.1,193.5,20,191.4,18.5z
		 M185.4,30.5c-2.3,0-4.2-1.9-4.2-4.3c0-2.4,1.8-4.2,4.2-4.2c2.4,0,4.2,1.8,4.2,4.2C189.5,28.6,187.7,30.5,185.4,30.5z"/>
	<path d="M168.4,18c-2.4-1.4-5-1.7-7.7-1.2c-2.7,0.6-4.8,2-6.2,4.4c-0.9,1.5-1.2,3.2-1.2,5c0,0.4,0,0.8,0.1,1.3
		c0.4,3.3,2.1,5.8,5,7.2c3.3,1.6,6.7,1.5,9.9-0.4c1.8-1.1,3.1-2.7,3.8-4.7c0.6-1.7,0.7-3.4,0.4-5.2C172.2,21.6,170.8,19.5,168.4,18z
		 M163,30.5c-2.3,0-4.1-1.9-4.1-4.3c0-2.4,1.8-4.2,4.2-4.2c2.4,0,4.2,1.8,4.2,4.2C167.2,28.6,165.4,30.5,163,30.5z"/>
</g>
</svg>
