<?xml version="1.0" encoding="utf-8"?>
<!-- Generator: Adobe Illustrator 22.1.0, SVG Export Plug-In . SVG Version: 6.00 Build 0)  -->
<svg version="1.2" baseProfile="tiny" id="Layer_1" xmlns="http://www.w3.org/2000/svg" xmlns:xlink="http://www.w3.org/1999/xlink"
	 x="0px" y="0px" viewBox="0 0 107 31" xml:space="preserve">
<path fill="#0F0E0E" d="M101.4,3.5c-3.1,0-5.6,2.5-5.6,5.6s2.5,5.6,5.6,5.6s5.6-2.5,5.6-5.6C107,5.9,104.5,3.5,101.4,3.5z"/>
<path fill="#0F0E0E" d="M101.7,16.3c-0.2,0.7-0.3,1.3-0.5,1.7l-0.1,0.2c-0.1,0.5-0.5,0.8-1,0.8h-0.3c-0.2,0-0.4-0.1-0.6-0.3
	c-0.1-0.2-0.2-0.4-0.2-0.6l0.3-2c0-0.1,0.1-0.3,0.2-0.4c-2.9-0.7-5-3.3-5-6.4c0-0.5,0.1-0.9,0.1-1.4h-8.2c-0.5,0-0.9-0.3-1-0.8
	L85,5.4c-0.2-0.6-0.7-1.1-1.4-1.1h-2.4c-0.5,0-0.8,0.4-0.8,0.8c0,0.5,0.4,0.8,0.8,0.8h1.3c0.5,0,0.9,0.3,1,0.8l3.2,13
	c0.2,0.6,0.7,1.1,1.4,1.1h13.1c0.7,0,1.2-0.4,1.4-1.1l1.1-4.4c-0.7,0.3-1.4,0.4-2.1,0.5C101.8,16.1,101.8,16.2,101.7,16.3z M87,12.7
	c-0.1-0.5-0.3-1-0.4-1.4l-0.1-0.4c-0.1-0.2,0-0.4,0.1-0.6c0.1-0.2,0.4-0.3,0.6-0.3h0.9c0.5,0,0.9,0.3,0.9,0.8l0.3,1.8
	c0,0.2,0,0.4-0.2,0.6c-0.1,0.2-0.4,0.3-0.6,0.3H88C87.5,13.4,87.1,13.1,87,12.7z M90.1,18.7C90,18.9,89.7,19,89.5,19h-0.1
	c-0.5,0-0.9-0.3-1-0.8L88.3,18c-0.1-0.5-0.3-1.1-0.5-1.8c-0.1-0.2,0-0.4,0.1-0.6c0.1-0.2,0.4-0.3,0.6-0.3H89c0.5,0,0.9,0.3,1,0.8
	l0.3,2C90.3,18.3,90.3,18.6,90.1,18.7z M93.8,18.3c0,0.4-0.3,0.7-0.7,0.7c-0.4,0-0.8-0.3-0.8-0.7L92,16.2c0-0.2,0-0.4,0.2-0.6
	c0.1-0.2,0.4-0.3,0.6-0.3h0.3c0.5,0,0.9,0.4,0.9,0.9v2.1H93.8z M93.8,12.6c0,0.5-0.4,0.9-0.9,0.9h-0.7c-0.5,0-0.9-0.3-1-0.8L91,10.8
	c0-0.2,0-0.4,0.2-0.6c0.2-0.2,0.4-0.3,0.6-0.3H93c0.5,0,0.8,0.4,0.8,0.9V12.6z M97.6,16.2l-0.3,2.1c-0.1,0.4-0.4,0.7-0.8,0.7
	s-0.7-0.3-0.7-0.7v-2.1c0-0.5,0.4-0.9,0.9-0.9H97c0.2,0,0.4,0.1,0.6,0.3C97.6,15.8,97.6,16,97.6,16.2z"/>
<polygon fill="#FFFFFF" points="101.4,4.3 102.8,7.1 106,7.6 103.7,9.8 104.2,12.9 101.4,11.5 98.6,12.9 99.1,9.8 96.9,7.6 100,7.1 
	"/>
<ellipse fill="#0F0E0E" cx="89" cy="24.7" rx="2.4" ry="2.5"/>
<ellipse fill="#0F0E0E" cx="100.6" cy="24.7" rx="2.4" ry="2.5"/>
<g>
	<path fill="#0F0E0E" d="M27.2,22.3c-1.1,0.8-2.8,1.1-5.1,1.1h-3.3c-0.5,0-0.9,0-1.5,0c-0.5,0-1-0.1-1.5-0.2s-1-0.3-1.4-0.4
		c-0.5-0.2-0.9-0.5-1.2-0.8s-0.6-0.8-0.8-1.3s-0.3-1.1-0.3-1.9V7.4h3v11.3c0,1.2,1.1,1.8,3.4,1.8h4.1c2.2,0,3.3-0.6,3.3-1.8V7.4h3
		v11.5C28.8,20.4,28.3,21.6,27.2,22.3z"/>
	<path fill="#0F0E0E" d="M51.5,23.6V13.1L45,22.7c-0.2,0.3-0.5,0.6-0.8,0.8c-0.3,0.2-0.6,0.3-1,0.3c-0.7,0-1.3-0.3-1.8-1L34.9,13
		v10.6h-3V9.1c0-0.6,0.2-1,0.5-1.3c0.3-0.3,0.7-0.5,1.2-0.5c0.7,0,1.3,0.3,1.7,0.8l8.1,11.6l8-11.5c0.4-0.6,0.9-0.9,1.6-0.9
		c0.5,0,0.9,0.2,1.2,0.5s0.5,0.8,0.5,1.4v14.3h-3.2V23.6z"/>
	<path fill="#0F0E0E" d="M57.5,23.5V7.4h3v16.1H57.5z"/>
	<path fill="#0F0E0E" d="M80.9,23.6l-2.5-4.4H69l-2.4,4.4H63l9-15.1c0.4-0.7,1-1.1,1.7-1.1s1.3,0.4,1.7,1.1l8.8,15.1H80.9z
		 M73.7,11.4l-2.9,4.8h5.8L73.7,11.4z"/>
	<path fill="#0F0E0E" d="M9.1,16.3c0,4.9-1.8,7-5,7.7C1,24.6,0,24.6,0,24.6v-3.3c1.2-0.1,3.1-0.3,4.3-0.7c1.1-0.4,1.9-1.5,1.9-4.3
		l0.1-5.9v-3h3L9.1,16.3z"/>
</g>
</svg>
