<?xml version="1.0" encoding="utf-8"?>
<!-- Generator: Adobe Illustrator 22.1.0, SVG Export Plug-In . SVG Version: 6.00 Build 0)  -->
<svg version="1.2" baseProfile="tiny" id="Layer_1" xmlns="http://www.w3.org/2000/svg" xmlns:xlink="http://www.w3.org/1999/xlink"
	 x="0px" y="0px" viewBox="0 0 787 225" xml:space="preserve">
<g>
	<path d="M394.7,143.1c0,10.6-3,18.9-9,24.9c-6,6-14.3,9-24.9,9h-48.7c-10.6,0-18.9-3-24.9-9c-6-6-9-14.3-9-24.9V94.4
		c0-10.6,3-18.9,9-24.9c6-6,14.3-9,24.9-9h48.7c10.6,0,18.9,3,24.9,9c6,6,9,14.3,9,24.9V143.1z M357.6,97.6c0-5.6-2.8-8.5-8.5-8.5
		h-25.4c-5.6,0-8.5,2.8-8.5,8.5v42.3c0,5.6,2.8,8.5,8.5,8.5h25.4c5.6,0,8.5-2.8,8.5-8.5V97.6z"/>
	<path d="M467.7,91.2c-7.5,0-15.9,1.4-25.4,4.2v79.4h-37V62.7h32.8l2.1,10.6c6.6-4.4,13.4-7.6,20.4-9.6c7-2,12.9-3.1,17.7-3.1h9.5
		c9.6,0,17.3,2.9,23.1,8.7c5.8,5.8,8.7,13.5,8.7,23.1v82.5h-37V98.6c0-2.1-0.7-3.9-2.1-5.3c-1.4-1.4-3.2-2.1-5.3-2.1H467.7z"/>
	<path d="M603.2,166.4c-13.7,2.8-25.7,4.2-36,4.2h-7.4c-9.6,0-17.3-2.9-23.1-8.7c-5.8-5.8-8.7-13.5-8.7-23.1V96.5
		c0-10.6,3-18.9,9-24.9c6-6,14.3-9,24.9-9h78.3v118.5c0,9.6-2.9,17.3-8.7,23.1c-5.8,5.8-13.5,8.7-23.1,8.7
		c-22.2,0-46.8-1.4-74.1-4.2v-27.5c26.9,2.1,47.4,3.2,61.4,3.2c2.1,0,3.9-0.7,5.3-2.1c1.4-1.4,2.1-3.2,2.1-5.3V166.4z M577.8,142
		c8.9,0,17.4-0.7,25.4-2.1V91.2h-29.6c-5.6,0-8.5,2.8-8.5,8.5v34.9c0,2.1,0.7,3.9,2.1,5.3c1.4,1.4,3.2,2.1,5.3,2.1H577.8z"/>
</g>
<g>
	<path d="M658.2,64.8c25.8-2.8,49.1-4.2,69.8-4.2c9.6,0,17.3,2.9,23.1,8.7c5.8,5.8,8.7,13.5,8.7,23.1v82.5H727l-2.1-10.6
		c-6.6,4.4-13.4,7.6-20.4,9.6c-7,2-12.9,3.1-17.7,3.1h-7.4c-9.6,0-17.3-2.9-23.1-8.7c-5.8-5.8-8.7-13.5-8.7-23.1v-9.5
		c0-9.6,2.9-17.3,8.7-23.1c5.8-5.8,13.5-8.7,23.1-8.7h43.4v-8.5c0-2.1-0.7-3.9-2.1-5.3c-1.4-1.4-3.2-2.1-5.3-2.1
		c-9.2,0-19.3,0.4-30.4,1.3c-11.1,0.8-20,1.5-26.8,1.9V64.8z M697.3,147.3c7.5,0,15.9-1.4,25.4-4.2v-12.7h-30.7
		c-2.1,0-3.9,0.7-5.3,2.1c-1.4,1.4-2.1,3.2-2.1,5.3v2.1c0,2.1,0.7,3.9,2.1,5.3c1.4,1.4,3.2,2.1,5.3,2.1H697.3z"/>
</g>
<g>
	<g>
		<path d="M649.4,217.9h-13.7v-14.4h13.7V217.9z"/>
	</g>
	<g>
		<path d="M675.6,218.7c-2.7,0-5.2-0.3-7.5-1c-2.3-0.6-4.2-1.7-5.9-3c-1.7-1.4-2.9-3.1-3.8-5.1c-0.9-2.1-1.4-4.5-1.4-7.2
			c0-2.9,0.5-5.4,1.5-7.5c1-2.1,2.3-3.9,4.1-5.3c1.7-1.3,3.6-2.3,5.8-2.9c2.2-0.6,4.5-0.9,6.9-0.9c2.1,0,4.1,0.2,5.9,0.7
			c1.8,0.5,3.5,1.1,5,1.8v8.5h-1.4c-0.4-0.3-0.9-0.7-1.4-1.2c-0.5-0.4-1.2-0.9-2-1.3c-0.8-0.4-1.6-0.7-2.5-1c-0.9-0.3-2-0.4-3.2-0.4
			c-2.7,0-4.7,0.8-6.2,2.5c-1.4,1.7-2.2,4-2.2,6.9c0,3,0.7,5.3,2.2,6.9c1.5,1.6,3.6,2.3,6.3,2.3c1.3,0,2.4-0.1,3.4-0.4
			c1-0.3,1.8-0.6,2.5-1c0.6-0.4,1.2-0.8,1.7-1.2c0.5-0.4,0.9-0.8,1.3-1.2h1.4v8.5c-1.6,0.7-3.2,1.3-4.9,1.8
			C679.6,218.5,677.7,218.7,675.6,218.7z"/>
		<path d="M723.7,202.2c0,5.1-1.5,9.2-4.5,12.2c-3,3-7.2,4.4-12.6,4.4s-9.6-1.5-12.6-4.4c-3-3-4.5-7-4.5-12.2
			c0-5.2,1.5-9.2,4.5-12.2c3-3,7.2-4.4,12.6-4.4c5.5,0,9.7,1.5,12.7,4.5C722.2,193,723.7,197.1,723.7,202.2z M711.4,209.8
			c0.6-0.8,1.1-1.8,1.5-2.9c0.3-1.1,0.5-2.7,0.5-4.7c0-1.8-0.2-3.4-0.5-4.6c-0.3-1.2-0.8-2.2-1.4-3c-0.6-0.8-1.3-1.3-2.1-1.6
			c-0.8-0.3-1.7-0.5-2.7-0.5c-1,0-1.8,0.1-2.6,0.4c-0.8,0.3-1.5,0.8-2.2,1.6c-0.6,0.7-1.1,1.7-1.5,3c-0.4,1.3-0.5,2.8-0.5,4.8
			c0,1.7,0.2,3.2,0.5,4.4c0.3,1.3,0.8,2.3,1.4,3c0.6,0.7,1.3,1.3,2.1,1.6c0.8,0.3,1.8,0.5,2.8,0.5c0.9,0,1.8-0.2,2.6-0.5
			C710.1,211.1,710.8,210.6,711.4,209.8z"/>
		<path d="M760.3,195.7v22.2h-10.1v-15.6c0-1.5,0-2.8-0.1-3.9c-0.1-1.1-0.3-1.9-0.6-2.6c-0.3-0.7-0.8-1.2-1.5-1.5
			c-0.7-0.3-1.6-0.5-2.9-0.5c-1,0-1.9,0.2-2.9,0.6c-0.9,0.4-1.8,0.8-2.5,1.3v22.2h-10.1v-31.3h10.1v3.5c1.7-1.4,3.4-2.4,5-3.2
			c1.6-0.8,3.3-1.1,5.2-1.1c2.1,0,3.9,0.5,5.5,1.4c1.6,0.9,2.8,2.3,3.7,4.1c2-1.7,3.9-3,5.8-4c1.9-1,3.7-1.4,5.6-1.4
			c3.4,0,5.9,1,7.7,3c1.8,2,2.6,4.9,2.6,8.7v20.4h-10.1v-15.6c0-1.5,0-2.8-0.1-3.9c-0.1-1.1-0.3-1.9-0.6-2.6
			c-0.3-0.7-0.8-1.2-1.5-1.5c-0.7-0.3-1.7-0.5-2.9-0.5c-0.8,0-1.7,0.1-2.5,0.4C762.4,194.6,761.5,195,760.3,195.7z"/>
	</g>
</g>
<path d="M280.4,62.7h-39.2L218,101.8H201V26.7h-37v28.5c5.7,11.3,8.5,24,8.5,38.1c0,14.1-2.9,26.8-8.5,38.1v43.4h37v-44.4h15.9
	l24.3,44.4h39.2l-31.7-58.2L280.4,62.7z"/>
<path d="M89.9,178c-24,0-44.3-8.2-60.4-24.3C13.4,137.5,5.3,117.2,5.3,93.3c0-24,8.2-44.3,24.2-60.4C45.6,16.8,65.9,8.7,89.9,8.7
	c24,0,44.3,8.2,60.4,24.2c16.1,16.1,24.2,36.4,24.2,60.4c0,24-8.2,44.3-24.2,60.4C134.2,169.8,113.9,178,89.9,178z M89.9,12.8
	c-22.8,0-42.2,7.8-57.5,23c-15.3,15.3-23,34.6-23,57.5c0,22.8,7.8,42.1,23,57.4c15.3,15.3,34.6,23.1,57.5,23.1
	c22.9,0,42.2-7.8,57.5-23c15.3-15.3,23-34.6,23-57.5c0-22.9-7.8-42.2-23-57.5C132.1,20.5,112.8,12.8,89.9,12.8z"/>
<g>
	<g>
		<path d="M47.1,65.4c3.1-2.6,6.6-3.8,10.8-3.9c4.2-0.1,8.5,0.7,12.7,2.4c4.2,1.6,8.4,4.1,12.4,6.9l1.9-1.5
			c-2.5-4.8-6.4-8.7-11-11.7c-4.7-3-10.4-4.7-16.2-4.7c-2.8,0-6,0.5-8.9,1.8c-2.9,1.3-5.4,3.3-7.3,5.6c-1.9,2.3-3.1,5-3.9,7.7
			c-0.7,2.7-1.1,5.4-0.8,8.2l2.4,0.3C41.4,72,44,68,47.1,65.4z"/>
	</g>
	<g>
		<path d="M100.7,57.7c3.7-2.6,7.7-4.4,11.8-5.2c4.2-0.9,7.8-0.5,11.4,1.3c3.6,1.8,7,5.2,10.1,9l2.3-0.8c-0.3-2.8-1.3-5.3-2.6-7.8
			c-1.4-2.4-3.2-4.8-5.6-6.6c-2.4-1.9-5.3-3.2-8.4-3.8c-3.1-0.6-6.3-0.4-9,0.3c-5.7,1.3-10.8,4.3-14.7,8.3c-3.8,4-6.7,8.7-8.1,13.9
			l2.2,1C93.5,63.5,97,60.2,100.7,57.7z"/>
	</g>
	<g>
		<path d="M138.7,113.1c-1.7,4.2-4.3,8.1-7.2,11.3c-1.5,1.7-3.1,3.2-4.8,4.5c-1.7,1.4-3.5,2.7-5.3,3.8c-7.5,4.5-16.1,7.1-25,8.5
			c-8.7,1.4-17.7,1.3-26.4-0.7c-4.3-1-8.6-2.4-12.7-4.4c-4.1-1.9-8.1-4.4-11.6-7.3l-1.3,1.1c2.7,4.2,6.4,7.5,10.4,10.5
			c4,2.9,8.5,5.2,13.3,6.9c9.5,3.4,19.8,4,29.7,2.5c9.7-1.5,19.6-4.8,27.7-11c8.1-6.1,14.2-15.3,14.9-25.3L138.7,113.1z"/>
	</g>
	<g>
		<polygon points="88.3,86.5 91.5,115.9 93.2,115.7 90,86.3 		"/>
	</g>
</g>
</svg>
