<?xml version="1.0" encoding="utf-8"?>
<!-- Generator: Adobe Illustrator 22.1.0, SVG Export Plug-In . SVG Version: 6.00 Build 0)  -->
<svg version="1.2" baseProfile="tiny" id="Layer_1" xmlns="http://www.w3.org/2000/svg" xmlns:xlink="http://www.w3.org/1999/xlink"
	 x="0px" y="0px" viewBox="0 0 3189.1 771.5" xml:space="preserve">
<path d="M820.2,29.2c12.4,3.6,18.3,13.6,24.1,24c9.5,17.1,19.5,33.9,29.3,50.9c8.5,14.7,16.8,29.5,25.2,44.2
	c15.1,26.2,30.2,52.3,45.3,78.4c6.7,11.6,13.4,23.2,19.9,34.9c1.6,2.9,3,4.1,6.6,2.7c17-6.7,34.7-11.4,52.8-13.8
	c16.2-2.2,32.4-2.8,48.9-1.5c27.7,2.1,53.7,9.6,78.3,21.6c20.2,9.8,38.8,22.3,55.4,37.7c27.3,25.2,45.8,55.6,57.4,90.6
	c5.4,16.2,8.9,32.7,9.8,49.8c0.4,8.4,1.1,16.9,0.9,25.3c-0.3,16.8-3.1,33.2-7.5,49.4c-6.6,24-16.9,46.2-31.3,66.5
	c-12.9,18.3-28.1,34.3-45.9,48c-20.6,15.8-42.9,28.2-67.7,35.4c-13.5,4-27.5,6.6-41.5,8.9c-9.9,1.6-20.1,2.3-30.1,2
	c-27.8-0.7-54.8-6-80.6-16.7c-21.3-8.8-41.1-20.3-58.7-35.1c-20-16.9-36.5-36.8-49.6-59.6c-12.5-21.7-20.3-45.1-24.9-69.6
	c-1.4-7.4-1.6-15-2.1-22.6c-0.5-6.8-1.2-13.6-0.9-20.3c1.3-27.6,6.8-54.3,17.8-79.9c8.1-18.9,18.8-36.3,31.8-52.1
	c10.8-13.2,22.9-25.2,36.8-35.2c3.6-2.6,4.5-4.9,1.9-9.1c-8.7-14.4-17-29-25.4-43.6c-7.1-12.3-14.1-24.6-21.4-37.3
	c-6.8,11.5-13.4,22.7-20,33.9c-8.7,14.9-17.3,30-26,44.9c-8.9,15.4-18,30.7-27,46c-12.5,21.2-25,42.4-37.5,63.7
	c-13.4,23-26.7,46-40,69c-3.1,5.4-6.2,10.7-9.4,16c-5.6,9.4-14.4,13.4-24.7,13.5c-30.8,0.3-61.7,0.1-92.5,0.1c-4.5,0-9.1,0-13.6,0
	c-3.6,0-5.4,1.9-6.2,5.2c-2,9.2-3.6,18.5-6,27.6c-6.8,26-17.8,50.1-34.6,71.1c-9.5,11.8-19.8,23.2-30.7,33.7
	c-11.9,11.4-25.6,20.7-40.2,28.8c-17.1,9.4-35,16.5-54,20.9c-14.1,3.3-28.3,6-42.8,5.7c-14.9-0.4-29.8-0.4-44.6-2.2
	c-17.5-2.1-34.4-6.9-50.8-13.7c-21.1-8.8-40.7-20.2-58.3-34.8c-14.5-12.1-27.1-25.9-38.1-41.4c-17.3-24.5-27.9-51.9-34.8-80.8
	c-4.8-20.6-5.4-41.7-3.9-62.6c2.2-30.4,10.8-59.3,25.7-86.1c7.9-14.2,17.6-27.1,28.3-39.3c19.6-22.3,42.8-39.6,69.5-52.3
	c18-8.5,36.9-14.9,56.7-17.6c15-2,30.1-4.1,45.2-3.9c26.8,0.4,52.8,5.7,77.9,15.8c21.9,8.8,41.8,20.9,59.8,35.9
	c19.5,16.2,35.2,35.8,48,57.7c12.3,20.9,20,43.5,25.4,66.9c0.7,3.2,1,6.5,1.2,9.7c0.3,4.5,3.1,7.6,7.8,7.7
	c29.8,0.1,59.7,0.2,89.5-0.2c2.9,0,6.9-2.9,8.5-5.6c13.6-22.8,26.8-45.9,40.2-68.9c13.2-22.5,26.5-45,39.7-67.5
	c12.4-21.3,24.6-42.7,37-64c10.5-18,21.1-36,31.8-54.4c-93.9,0-187.5,0-281.8,0c5.7,9,11.1,17.8,16.7,26.5
	c10.6,16.4,21.4,32.8,32.1,49.2c6.1,9.5,5.2,20.9-1.5,28.5c-7.3,8.2-20.6,11.3-29.4,5.4c-3.6-2.4-7.1-5.6-9.5-9.1
	c-11.1-16.1-21.8-32.5-32.6-48.9c-11.1-16.9-22-34-33-50.9c-17.6-27.1-35.4-54.1-53-81.1c-1-1.6-1.7-3.5-2.9-5.9
	c6.7,0,12.8,0,18.8,0c10,0,20,0,30,0c4.8,0,8.3,1.6,11.1,5.9c5.6,8.8,11.6,17.4,17.4,26c2.9,4.3,6.7,7.1,12.2,7.1
	c101.8,0,203.7,0,305.5,0c0.8,0,1.7,0,3.2,0c-6.1-10.7-11.9-21-17.7-31.3c-3.6-6.4-7.5-12.6-10.9-19.2c-2.8-5.5-6.9-7.7-13-7.6
	c-16,0.2-32,0.2-48,0c-6.8-0.1-13.3-1.9-18.4-6.7c-13.2-12.1-8-32.9,9.7-39.3c0.5-0.2,1-0.6,1.5-1C765.6,29.2,792.9,29.2,820.2,29.2
	z M535.5,442.2c-4.6-38.7-21.2-71.2-47.5-98.4c-34.2-35.5-76.9-53.7-126-54.3c-45.2-0.6-86,13.6-120.3,43.9
	c-38.5,34-59.5,77.1-61.1,128.1c-2.6,84.7,59.4,170,161.7,180.4c99.1,10.1,182.4-62.4,193.4-151.5c-0.5-0.1-1-0.2-1.5-0.2
	c-29.8,0-59.7,0-89.5-0.1c-4.3,0-6.7,2.1-8.4,5.7c-5.8,12.6-13,24.1-24.1,33c-14.8,12-31.6,18.7-50.3,19.1
	c-8.7,0.2-17.6-1.7-26.1-3.9c-18.1-4.6-32.7-14.9-43.6-30c-13.2-18.3-17.6-38.8-14-61.1c3.6-22.1,14.2-39.7,32.3-52.9
	c19.2-13.9,40.7-17.4,63.6-13.9c16.5,2.5,30.7,9.8,42.8,21.2c8.6,8.1,14.4,18.2,19.2,28.9c1.9,4.1,5.2,5.8,9.3,5.8c6,0.1,12,0,18,0
	C487.2,442.2,510.9,442.2,535.5,442.2z M987.4,302.6c2.6,4.4,4.4,7.3,6.1,10.3c12.5,21.6,25.3,43.1,37.4,64.9
	c3.2,5.8,7.1,7.8,13.4,7.6c11.2-0.3,22.4-0.5,33.4,2.6c14.6,4.2,26.6,12.2,37.1,23.2c12.2,12.8,19.8,28,21.2,45.3
	c2.3,27.9-5.5,52.6-27.7,71.3c-17.7,14.8-37.5,22.7-61.1,19.7c-12.8-1.6-25-4.5-36.1-11.2c-23.9-14.5-37.3-36-39.7-63.7
	c-1.7-20.3,4-39.1,16.6-55.2c6.5-8.4,4.7-9.8,0.3-17.4c-8.9-15.6-18-31.1-27-46.6c-5.1-8.8-10.3-17.6-15.6-26.7
	c-1.6,1.5-2.5,2.4-3.6,3.2c-19.1,14.4-34.2,32.3-45.7,53.1c-12.1,21.9-19,45.5-21,70.3c-1.4,17.8,0,35.6,4.3,53
	c5.7,23.1,15.5,44.2,29.5,63.5c9,12.3,19.2,23.6,31.2,33c13.8,10.8,28.6,20,45,26.6c17.1,6.8,34.7,11.6,53,12.7
	c12,0.8,24.2-0.1,36.3-0.9c19.6-1.3,38.1-7.2,55.7-15.6c22.9-11,42.9-25.8,59.5-45.3c9.5-11.2,17.8-23.1,24.2-36.2
	c9.1-18.5,15.2-38,17.2-58.8c1.6-16.4,1.6-32.7-1.3-48.9c-3.4-18.5-9.6-36.1-18.6-52.8c-13.3-24.8-31.5-45.2-54.4-61.4
	c-20.1-14.2-42.3-23.9-66.5-28.6c-12.5-2.4-25.4-4-38.1-4.1c-11.5-0.1-23.2,1.7-34.6,3.9C1007.8,295.5,998,299.3,987.4,302.6z"/>
<path d="M538.2,29.2c7.4,2.6,13.7,6.1,17.1,13.9c5.3,12.2-1.6,30.7-17.2,32.1c-3.9,0.3-7.9,0.9-11.8,0.9c-45.8,0.1-91.7,0.2-137.5,0
	c-15.1-0.1-24.7-9.9-24.7-24.6c0-9,6.1-17.5,14.7-20.7c1.2-0.4,2.2-1.1,3.3-1.7C434.2,29.2,486.2,29.2,538.2,29.2z"/>
<g>
	<path d="M1707.5,336.5c-25.6,27.7-50,54.1-74.6,80.7c24.9,33.8,49.6,67.3,75.1,101.9c3.3-8.1,6.2-15.1,9-22.2
		c13.4-34.1,26.8-68.3,40.3-102.4c7.3-18.4,14.5-36.9,22-55.2c0.7-1.7,3.4-3.9,5.1-3.9c19,0.4,13.5-4.2,20.8,14
		c12.1,30.4,24,60.8,35.9,91.2c10.4,26.7,20.8,53.4,31.6,81.1c-7.4,0-14.4,0.3-21.3-0.2c-1.6-0.1-3.8-2.6-4.5-4.5
		c-6.7-16.4-13.3-32.8-19.4-49.5c-1.3-3.6-2.9-4.1-6-4.1c-21.4,0-42.7-0.1-64.1,0.2c-2.1,0-5.3,2.2-6,4.1
		c-7.1,17.8-13.7,35.8-20.6,54c-15.2,0-30.3,0.1-45.3-0.1c-1.5,0-3.5-0.8-4.3-1.9c-20-26.5-40-53.1-59.9-79.7
		c-1.6-2.2-3.3-4.3-5-6.5c-4.3,3.6-8.2,7.1-12.4,10.4c-4.6,3.6-6.2,7.9-6,13.9c0.4,19,0.2,38,0.2,57c0,2.1,0,4.2,0,6.6
		c-7.8,0-15.1,0-22.8,0c0-61.3,0-122.7,0-184.5c7.4,0,14.8,0,22.7,0c0,29.4,0,58.7,0,89.5c11.2-12.4,21.4-23.7,31.6-35
		c4.7-5.2,9.5-10.5,14.2-15.7c10.9-11.8,21.7-23.7,32.9-35.2c2.2-2.2,6.1-3.5,9.4-3.8C1692.4,336.1,1699.1,336.5,1707.5,336.5z
		 M1818.5,442.5c-9.7-26.4-19.2-52-28.4-77.2c-9.4,25.4-18.9,51.2-28.5,77.2C1780.5,442.5,1799,442.5,1818.5,442.5z"/>
	<path d="M2250,336.5c23.7,0,47-0.7,70.3,0.3c12.3,0.5,24.8,2.9,35.5,10.1c10.9,7.4,16.4,18.1,16.9,31.2c0.5,11.5-0.8,22.3-8.8,31.7
		c-6.7,7.9-15.5,11.5-24.4,13.8c6.5,2.8,13.5,5.5,20.2,8.8c12.2,6,17.6,17.1,19.2,29.7c1.4,10.8,0.2,21.7-5.1,31.7
		c-8.4,15.7-22,24.4-38.9,26.3c-17,1.9-34.3,1.3-51.5,1.6c-11,0.2-22,0-33.4,0C2250,460,2250,398.6,2250,336.5z M2273.3,436.2
		c0,21.6,0,43.6,0,66.1c15.9,0,31.4,0.7,46.9-0.2c10.6-0.6,21.4-3.4,28.1-12.6c7.7-10.7,8.6-23.1,4-35.2
		c-4.4-11.7-15.1-16.9-26.5-17.7C2308.5,435.3,2291.1,436.2,2273.3,436.2z M2273.1,416.7c19-1.3,37.3-1.4,55.2-4.2
		c13.9-2.2,20-11.2,20.9-24.4c1-15-5.2-24.4-18.2-28.4c-4.8-1.5-9.9-2.7-14.8-2.8c-14.3-0.4-28.6-0.1-42.9-0.1
		C2273.1,376.2,2273.1,395.5,2273.1,416.7z"/>
	<path d="M1897.5,521.7c0-61.8,0-123.1,0-184.6c0.7-0.2,1.4-0.6,2.2-0.6c22.4,0,44.9-0.9,67.3,0.2c21.2,1.1,40.8,8.2,55.8,24
		c13,13.5,19.6,30.2,22.1,48.8c2.4,18.3,1.7,36.3-3.4,53.8c-8.9,30.7-30.1,48.8-61,55.7c-7.8,1.7-16,2.5-24,2.6
		C1937,522,1917.4,521.7,1897.5,521.7z M1920.8,355.9c0,49.3,0,97.5,0,147.6c17.4-1.3,34.7-1,51.3-4.2c22.9-4.4,39.1-18.1,45.7-41.5
		c5.8-20.5,5.9-41.1-0.4-61.2c-5.8-18.6-18.9-30.9-37.6-36.6C1960.6,354,1940.8,356.3,1920.8,355.9z"/>
	<path d="M2610.1,428.6c-0.1-17.6,2.9-34.5,10.1-50.4c11.2-24.7,30.4-39.4,57.7-43.2c14.4-2,28.9-2.7,42.9,0.8
		c27.4,6.9,46,24,54.9,51.3c6.3,19.4,8.4,39.1,4.9,59.1c-1.8,10.5-3.9,21.2-7.8,31.1c-9.9,25.2-28.9,40.7-55.3,45.3
		c-20.8,3.7-41.9,3.5-61.9-6c-24.2-11.6-36.7-31.8-41.8-57.1C2611.6,449.4,2611.2,438.9,2610.1,428.6z M2757.2,428
		c1.1-13.6-1.1-27.7-6.5-41c-5.7-14-15.5-24.4-30-29.2c-10.6-3.6-21.5-4.7-33.1-3.5c-22.1,2.3-39.6,15.4-47,36.2
		c-8.3,23.3-8.3,47.2-2.2,70.8c4.9,18.7,15.5,33.3,34.9,39.8c11.4,3.8,23,4.6,35.1,2.7c18.2-2.7,31.4-11.8,39.8-28
		C2756,461.1,2758.1,445.2,2757.2,428z"/>
	<path d="M2407.6,428.4c0.3-18.8,3.5-36.8,11.8-53.3c11.5-22.8,30.1-36.6,55.9-40c21.7-2.8,43-2.7,62.9,8.3
		c16.1,8.9,27.1,22.2,33.9,39.1c7.3,18.4,8.9,37.7,7.6,57.1c-1.6,24.5-8.5,47.1-27.1,64.5c-13.7,12.8-30.2,19.4-48.8,20
		c-13.2,0.4-26.5,0.9-39.4-3.2c-28-8.8-44.6-28.3-51.4-56.1C2410,453,2409.3,440.6,2407.6,428.4z M2555.2,428.9
		c0.9-13.8-1-27.8-6.4-41.3c-5.8-14.6-15.9-25.2-30.7-30.1c-10.4-3.4-21.1-4.5-32.5-3.2c-22.6,2.5-39.2,15.1-46.8,35.6
		c-8.6,23.4-8.6,47.5-2.3,71.4c4.9,18.7,15.5,33.3,34.9,39.7c11.4,3.8,23,4.6,35.1,2.7c18.2-2.8,31.4-11.8,39.8-28
		C2553.8,461.2,2556,445.6,2555.2,428.9z"/>
	<path d="M1362.1,428.3c0.5-18.3,3.5-35.8,11.4-52.1c11.5-23.6,30.1-37.6,56.4-41.1c21.7-2.9,43-2.7,62.9,8.4
		c16.1,8.9,27.1,22.2,33.8,39.2c7.3,18.4,8.9,37.7,7.6,57.1c-1.6,24.5-8.5,47.1-27.2,64.5c-13.7,12.7-30.2,19.3-48.9,20
		c-14.3,0.5-28.7,0.8-42.4-4.2c-26.2-9.6-42-28.6-48.3-55.3C1364.7,452.9,1363.9,440.5,1362.1,428.3z M1509.7,428.2
		c1.1-13.8-1.1-27.8-6.5-41.2c-5.7-14-15.5-24.4-30-29.2c-10.6-3.6-21.5-4.7-33.1-3.5c-22.1,2.3-39.6,15.4-47,36.2
		c-8.3,23.3-8.3,47.2-2.2,70.8c4.9,18.7,15.5,33.3,34.9,39.8c11.4,3.8,23,4.6,35.1,2.7c18.2-2.7,31.4-11.8,39.8-28
		C1508.5,461.1,1510.6,445.2,1509.7,428.2z"/>
	<path d="M2845.3,426.4c7.3-8.2,13.1-14.9,19.2-21.5c12.2-13.2,24.6-26.3,36.9-39.5c7.7-8.3,15-17,22.9-25.1
		c2.1-2.1,5.8-3.4,8.8-3.6c6.6-0.5,13.4-0.2,22-0.2c-25.4,27.5-49.8,53.9-74.5,80.7c25.5,34.6,50.8,69,77,104.5
		c-9.3,0-17,0.1-24.7-0.1c-1.4,0-3.4-0.9-4.2-2.1c-21.6-28.5-43.1-57.1-64.9-86.2c-5.6,5-11.3,9.7-16.5,15c-1.4,1.4-1.6,4.3-1.7,6.5
		c-0.1,22-0.1,44-0.1,66.5c-7.7,0-15.1,0-22.9,0c0-61.4,0-122.7,0-184.4c7.5,0,14.7,0,22.8,0
		C2845.3,366.2,2845.3,395.5,2845.3,426.4z"/>
	<path d="M2226.5,521.7c-7.5,0-14.3,0.3-21.1-0.2c-1.8-0.2-4.1-2.8-4.9-4.8c-6.6-16.2-13.2-32.4-19.2-48.8c-1.4-3.7-3-4.4-6.4-4.4
		c-21.2,0.1-42.3,0.2-63.5-0.1c-4.1,0-5.7,1.9-6.9,5.1c-6.7,17.7-13.3,35.4-19.9,53.1c-7.7,0-15,0-23.4,0c2.7-7.3,5.2-14.1,7.9-20.9
		c15.7-40,31.4-80.1,47.1-120.1c5.5-13.9,11-27.8,16.8-41.6c0.7-1.6,3-3.4,4.8-3.6c4.9-0.5,9.9-0.2,15.6-0.2
		C2177.6,397,2201.9,459,2226.5,521.7z M2143.7,365.2c-9.4,25.5-18.9,51.3-28.4,77c18.9,0,37.5,0,56.7,0
		C2162.5,416.1,2153,390.5,2143.7,365.2z"/>
	<path d="M3081.7,343.7c-1.5,4.2-2.7,7.8-4,11.3c-1.1,2.9-2.4,5.8-3.7,9c-16.6-7.5-33.6-10.7-51.2-9.3c-10.8,0.9-21.3,3.7-25.8,15
		c-6.7,16.5-1.9,30.1,11.8,37.2c13.1,6.8,27.1,11.8,40.6,17.7c13,5.7,25.7,12,31.8,25.8c11.5,26.4,3.8,57.1-27.3,68.7
		c-18.5,6.9-37.6,6.5-56.8,3.9c-9.5-1.2-19-3.5-28.2-5.3c0-8.7,0-15.8,0-22c13.9,2.9,27.6,6.3,41.5,8.5c14.8,2.3,29.7,1.1,42.2-7.8
		c14.1-10.1,15.4-35.1-2.2-45.6c-12-7.2-25.7-11.5-38.6-17.2c-12.9-5.7-25.9-11.8-33.3-24.6c-15.6-26.9-8.6-63,28.5-72.4
		C3032.1,330.2,3056.9,333.9,3081.7,343.7z"/>
</g>
</svg>
