<?xml version="1.0" encoding="utf-8"?>
<!-- Generator: Adobe Illustrator 22.1.0, SVG Export Plug-In . SVG Version: 6.00 Build 0)  -->
<svg version="1.2" baseProfile="tiny" id="Layer_1" xmlns="http://www.w3.org/2000/svg" xmlns:xlink="http://www.w3.org/1999/xlink"
	 x="0px" y="0px" viewBox="0 0 498 126.7" xml:space="preserve">
<path d="M483.7,91c-1.5,0-3.1,0.1-4.6,0.1c-1,0-1.9,0-2.9,0c-1.2,0-2.5,0-3.7-0.1c-0.5,0-1.1,0.1-1.6,0c-2.6,0-5.2,0-7.8-0.1
	c-0.3,0-0.6,0-0.9,0c-0.6,0-1.2,0-1.8,0c-0.4,0-0.9,0.1-1.3,0.1c-0.3,0-0.6,0.1-0.9,0c-1-0.2-2.1-0.2-3.1-0.1
	c-0.8,0-1.5,0.1-2.3-0.1c-0.6-0.1-1.2,0-1.8,0.1c-0.3,0.1-0.7,0.1-1,0.1c-0.6-0.1-1.2-0.1-1.7,0c-0.3,0-0.5,0-0.8,0
	c-0.6-0.1-1.1-0.2-1.7-0.2c-1.5,0-3,0-4.5,0.3c-0.6,0.1-1.5-0.5-1.6-1.1c0-0.1,0-0.3,0.1-0.4c0.4-0.6,0.9-1,1.6-1c0.3,0,0.6,0,1,0
	c1.5,0,3.1,0,4.6,0c0.8,0,1.5,0,2.2,0.1c0.3,0.1,0.6,0,0.9,0c0.6-0.1,0.9-0.4,0.9-1c0-1,0.1-2,0.1-3c0-9.1,0-18.2,0-27.3
	c0-1.9,0-3.8,0-5.7c0-0.3,0-0.6,0-0.9c0-0.2,0-0.4,0-0.6c-0.1-0.4-0.3-0.6-0.7-0.5c-0.6,0.1-1.1,0.2-1.7,0c-0.3-0.1-0.6,0-0.9,0
	c-0.4,0-0.8,0.1-1.2,0.1c-5.2,0-10.4,0-15.6,0c-1.1,0-2.3,0.1-3.4,0c-1.6,0-3.1-0.1-4.7-0.1c-0.3,0-0.5,0-0.8,0.1
	c-0.5,0.2-0.6,0.3-0.6,0.8c0,1.6,0,3.1,0,4.7c0,6.1,0,12.3,0,18.4c0,2.7,0,5.4,0,8.1c0,0.7-0.1,1.3-0.1,2c0,0.4,0,0.9,0,1.3
	c0.1,0.8,0.2,1.6,0.1,2.4c0,0.2,0,0.5,0,0.7c0.1,0.4,0.3,0.6,0.7,0.6c0.6,0,1.3,0,1.9,0c0.2,0,0.4,0,0.6,0c0.8-0.2,1.6,0,2.3,0.1
	c0.4,0.1,0.9,0.1,1.3,0c0.9-0.1,1.7-0.2,2.6-0.3c0.7-0.1,1.2,0.3,1.7,0.7c0.6,0.7,0.6,0.7,0,1.3c-0.2,0.2-0.4,0.4-0.7,0.5
	c-0.3,0.2-0.6,0.2-0.9,0.1c-0.2-0.1-0.5-0.1-0.8-0.2c-1.4-0.1-2.8-0.2-4.2,0c-0.1,0-0.3,0-0.4,0c-0.7-0.1-1.5-0.1-2.2,0.1
	c-0.6,0.2-1.3,0.2-2,0c-0.7-0.1-1.4-0.2-2.1-0.1c-0.3,0.1-0.7,0-1,0c-0.1,0-0.2,0-0.3,0c-1.2,0-2.5,0-3.7,0c-0.2,0-0.4,0-0.6,0
	c-0.6,0-1.1,0-1.7,0c-0.4,0-0.7,0.1-1.1,0.1c-1.5,0-3-0.1-4.5-0.1c-0.5,0-1,0-1.5,0c-2,0-4,0-6.1,0c-0.4,0-0.7-0.1-1.1-0.1
	c-0.7-0.1-1.5,0-2.2,0.2c-0.7,0.2-1.4,0.2-2.1,0.1c-0.6-0.1-1.2-0.1-1.8-0.1c-3,0-5.9,0.1-8.9,0.1c-0.5,0-1-0.1-1.5-0.1
	c-0.6-0.1-1.1,0-1.7,0.1c-0.5,0.2-1.1,0.2-1.6,0.1c-0.9-0.2-1.8-0.3-2.7-0.1c-0.6,0.1-1.2,0.1-1.8,0.2c-0.3,0-0.5,0-0.8-0.1
	c-0.7-0.2-1.5-0.2-2.2-0.1c-1.5,0.1-2.9,0.2-4.4,0.1c-0.8-0.1-1.6,0-2.4,0c-0.6,0-1.2-0.2-1.7-0.6c-0.4-0.3-0.3-0.9,0.1-1.2
	c0.2-0.2,0.4-0.3,0.6-0.4c0.5-0.2,1.1-0.3,1.6-0.3c1.3,0,2.5-0.1,3.8,0.1c0.8,0.1,1.6,0,2.5,0c0.6,0,1.3-0.1,1.9,0.1
	c0.4,0.1,0.7,0,1-0.4c0.2-0.4,0.2-0.8,0-1.2c-0.1-0.2-0.2-0.3-0.4-0.4c-0.3-0.3-0.5-0.6-0.6-1.1c0-0.5-0.2-0.8-0.5-1.2
	c-0.3-0.3-0.6-0.7-0.6-1.2c0-0.4-0.3-0.7-0.6-0.9c-0.4-0.3-0.6-0.7-0.7-1.3c0-0.5-0.3-0.9-0.6-1.4c-0.2-0.3-0.4-0.6-0.5-1
	c-0.1-0.7-0.5-1.2-0.8-1.8c-0.1-0.2-0.3-0.4-0.3-0.5c-0.1-0.6-0.4-1.1-0.8-1.5c-0.2-0.2-0.3-0.5-0.4-0.8c-0.1-0.5-0.3-0.9-0.7-1.2
	c-0.3-0.3-0.5-0.6-0.6-1.1c-0.1-0.5-0.2-0.9-0.3-1.4c-0.2-0.6-1-1.1-1.6-0.9c-0.3,0.1-0.7,0.3-1,0.5c-0.4,0.3-0.7,0.5-1.2,0.5
	c-0.9,0-1.6,0.4-2.3,0.9c-0.4,0.2-0.8,0.4-1.3,0.4c-1.5,0.1-3,0.2-4.5-0.1c-0.6-0.1-1.2-0.3-1.8-0.5c-0.5-0.1-1-0.3-1.5-0.4
	c-0.6-0.1-1.2-0.2-1.8-0.3c-0.3-0.1-0.6-0.1-0.8-0.3c-0.9-0.5-1.8-0.8-2.9-0.9c-0.4,0-0.7-0.2-0.9-0.5c-0.1-0.1-0.1-0.2-0.2-0.2
	c-0.2-0.2-0.5-0.3-0.8-0.2c-0.3,0.1-0.5,0.4-0.5,0.7c0,0.2,0,0.4,0,0.6c0.1,0.9,0.1,1.8,0.1,2.7c0,0.7,0,1.5-0.1,2.2
	c0,0.3-0.1,0.6-0.2,0.8c-0.1,0.5-0.3,1-0.5,1.4c-0.1,0.3-0.2,0.6-0.3,0.9c-0.1,0.5-0.3,0.9-0.4,1.4c-0.1,0.5-0.2,0.9-0.7,1.3
	c-0.3,0.2-0.4,0.6-0.5,0.9c0,0.5-0.2,0.9-0.7,1.2c-0.2,0.1-0.4,0.4-0.5,0.6c-0.3,0.5-0.7,0.9-1.1,1.3c-0.4,0.4-0.8,0.7-1.2,1.1
	c-0.3,0.3-0.7,0.5-1,0.8c-0.4,0.3-0.8,0.6-1.3,0.7c-0.7,0.2-1.3,0.7-1.9,1.2c-0.2,0.2-0.2,0.5,0.1,0.6c0.1,0,0.3,0,0.4,0
	c1.5-0.2,3-0.3,4.5-0.5c1.1-0.1,1.6,0.2,2.2,1.1c0.2,0.3,0.1,0.6-0.1,0.9c-0.4,0.4-0.9,0.5-1.4,0.6c-1.9,0.1-3.7,0.1-5.6-0.1
	c-0.2,0-0.4,0-0.6,0c-1.8,0.1-3.5,0.1-5.3,0.2c-0.6,0-1.2-0.1-1.8-0.1c-0.6,0-1.2-0.1-1.8-0.1c-2.1-0.1-4.2,0.2-6.3,0.2
	c-1.6,0-3.1,0.1-4.7,0c-0.8-0.1-1.6,0.1-2.4,0.1c-0.3,0-0.7,0-1,0c-1.1-0.2-2.3-0.2-3.4-0.1c-1.6,0-3.2,0-4.8,0c-0.4,0-0.7,0-1.1,0
	c-1.4,0.2-2.8,0.2-4.2,0c-0.7-0.1-1.3,0-2,0c-0.4,0.1-0.8,0-1.2,0c-0.6,0-1.1,0-1.7,0c-0.5,0-1.1,0-1.6-0.1c-0.5-0.1-1-0.1-1.5,0
	c-0.3,0.1-0.6,0-0.9,0c-0.4,0-0.9,0-1.3,0c-0.4,0-0.8,0.1-1.2,0.1c-0.4,0-0.7,0-1.1,0c-0.3,0-0.6,0-0.9-0.1c-0.5-0.1-1,0-1.6,0.1
	c-0.3,0.1-0.6,0.1-0.9,0.1c-0.8,0-1.6-0.1-2.4-0.2c-0.4,0-0.8,0-1.2,0.1c-0.4,0.1-0.8,0.2-1.2-0.1c-0.3-0.2-0.7-0.3-1.1-0.1
	c-0.2,0.1-0.5,0.1-0.7,0.2c-0.2,0-0.4,0.1-0.7,0c-0.8-0.1-1.5-0.1-2.3-0.1c-0.7,0-1.5,0-2.2,0c-0.7,0-1.5,0.1-2.2,0.1
	c-0.4,0-0.9,0-1.3,0c-0.2,0-0.4-0.1-0.6-0.1c-1.5,0-3.1,0-4.6,0c-0.6,0-1.2,0-1.8,0c-1.1,0-2.2,0.1-3.4-0.1c-0.1,0-0.3,0-0.4,0
	c-1.6,0.3-3.1,0.1-4.7,0c-0.4,0-0.7,0-1.1,0.1c-0.7,0.1-1.2-0.2-1.3-0.8c-0.1-0.6,0.3-1.3,0.9-1.4c0.5-0.1,0.9-0.1,1.4-0.1
	c1.5,0,3,0,4.5,0c1,0,2.1,0,3.1,0c0.3,0,0.6,0.1,0.9,0.1c0.2,0,0.5,0,0.7,0c0.3-0.1,0.4-0.6,0.2-0.8c-0.1-0.1-0.2-0.2-0.3-0.2
	c-0.4-0.3-0.7-0.7-0.8-1.2c-0.1-0.6-0.3-1.1-0.8-1.5c-0.3-0.3-0.3-0.6-0.3-1c0-0.2,0-0.4,0-0.6c0-0.3-0.1-0.5-0.4-0.6
	c-0.1-0.1-0.3-0.2-0.4-0.3c-0.3-0.2-0.4-0.4-0.4-0.7c0-0.6-0.2-1-0.7-1.3c-0.3-0.2-0.5-0.6-0.5-1c0-0.6-0.2-1.2-0.8-1.5
	c-0.2-0.1-0.3-0.4-0.3-0.6c-0.1-0.2-0.1-0.5-0.1-0.7c0-0.4-0.2-0.7-0.6-0.9c-0.4-0.2-0.6-0.6-0.6-1.1c0-0.1,0-0.2,0-0.3
	c0.1-0.5,0-0.8-0.5-1.1c-0.4-0.2-0.7-0.6-0.7-1.1c0-0.4-0.2-0.7-0.5-1c-0.3-0.3-0.5-0.6-0.6-1c0-0.1-0.1-0.3-0.1-0.4
	c-0.1-0.3-0.4-0.4-0.7-0.3c-0.3,0.1-0.6,0.2-0.8,0.6c-0.2,0.4-0.6,0.5-1,0.5c-0.4,0-0.8,0.1-1.2,0.1c-0.5,0-0.9,0.3-1.1,0.6
	c-0.2,0.3-0.4,0.4-0.7,0.5c-0.7,0.1-1.5,0.2-2.2,0.2c-1.5,0.1-3,0-4.5-0.4c-0.1,0-0.2,0-0.3-0.1c-1.1-0.7-2.4-0.7-3.6-0.8
	c-0.5-0.1-0.9-0.2-1.2-0.5c-0.2-0.2-0.5-0.4-0.9-0.5c-0.3,0-0.6-0.1-0.9-0.2c-0.3-0.1-0.6-0.2-0.9-0.4c-0.6-0.4-1.3-0.7-2-0.8
	c-0.4,0-0.8-0.2-1.2-0.5c-0.3-0.3-0.7-0.5-1.1-0.5c-0.4,0-0.8-0.1-1.2-0.1c-0.2,0-0.5,0-0.7,0.1c-0.5,0.1-0.6,0.3-0.5,0.8
	c0,0.2,0,0.3,0,0.5c0.1,0.5-0.1,0.8-0.5,1c-0.4,0.2-0.6,0.5-0.6,0.9c0,0.7-0.2,1.2-0.8,1.6c-0.2,0.1-0.3,0.4-0.4,0.6
	c-0.2,0.5-0.4,1-0.6,1.5c-0.2,0.4-0.4,0.8-0.5,1.2c-0.2,0.5-0.4,0.9-0.8,1.3c-0.3,0.3-0.5,0.6-0.5,1.1c0,0.6-0.3,1.1-0.7,1.6
	c-0.2,0.2-0.4,0.5-0.4,0.7c-0.1,0.6-0.4,1-0.7,1.4c-0.3,0.3-0.5,0.7-0.5,1.2c0,0.5-0.2,1-0.6,1.3c-0.3,0.3-0.5,0.7-0.5,1.1
	c0,0.6-0.2,1-0.8,1.3c-0.3,0.1-0.4,0.4-0.4,0.7c0,0.4,0,0.8-0.1,1.2c0,0.3,0.1,0.4,0.3,0.4c0.1,0,0.2,0,0.3,0c0.9,0,1.8-0.1,2.7-0.1
	c0.7-0.1,1.3-0.1,2,0c1.3,0.2,2.5,0.1,3.8-0.1c1.2-0.1,1.3-0.1,1.8,1c0.2,0.5,0.2,1-0.2,1.4c-0.4,0.4-0.8,0.5-1.4,0.3
	c-0.6-0.2-1.3-0.2-2-0.2c-0.7,0-1.5,0-2.2,0c-0.2,0-0.5,0-0.7,0c-0.9,0.1-1.8,0-2.7,0c-1.7,0-3.3,0-5,0c-1,0-2,0-3,0
	c-0.9,0-1.7-0.1-2.6-0.1c-0.5,0-1,0.1-1.5,0.1c-0.4,0-0.7,0-1.1,0c-0.4,0-0.8-0.1-1.2-0.1c-1,0-1.9,0.1-2.9,0.2c-0.1,0-0.1,0-0.2,0
	c-0.9-0.2-1.8-0.1-2.6-0.1c-0.6,0-1.2,0-1.8,0c-0.4,0-0.9-0.1-1.3,0c-0.9,0.1-1.9,0-2.8,0c-0.2,0-0.4,0-0.6,0.1
	c-0.6,0.1-1.3,0.1-1.9,0c-0.5-0.1-1,0-1.5,0c-0.4,0-0.8,0-1.2,0c-0.8,0-1.6,0-2.4,0.2c-0.2,0-0.5,0-0.7,0c-1-0.2-2-0.2-3.1-0.1
	c-1,0.1-2.1,0.1-3.1,0.1c-2.4,0-4.7,0-7.1,0c-1.3,0-2.7,0.1-4-0.1c-0.5-0.1-1,0-1.5,0c-0.8,0.1-1.7,0.2-2.5,0c-1-0.2-2-0.1-3,0.1
	c-0.7,0.1-1.3,0.1-2,0c-0.1,0-0.2,0-0.3,0c-1,0-2,0-3-0.2c-0.2,0-0.5,0-0.7,0c-1.5,0.3-3,0.1-4.4,0.1c-0.6,0-1.3,0.1-1.9,0.1
	c-0.3,0-0.6,0.1-0.9-0.1c-0.6-0.3-1.1-0.2-1.7-0.1c-0.4,0.1-0.8,0.1-1.2,0c-0.4-0.1-0.9-0.1-1.3-0.1c-1.2,0-2.3,0-3.5,0
	c-0.5,0-1,0.1-1.5,0.1c-0.5,0-0.9,0-1.4,0c-0.4,0-0.8-0.1-1.1-0.1c-0.9,0.1-1.8,0-2.7-0.1c-0.6,0-1.2,0-1.8,0.1c-0.7,0-1.4,0-2.1,0
	c-0.3,0-0.7,0.1-1,0.1c-0.5,0.1-0.9-0.1-1.2-0.5c-0.3-0.4-0.3-0.7-0.1-1.1c0.3-0.5,0.7-0.8,1.3-0.8c0.2,0,0.5,0,0.7,0
	c1.8,0,3.6,0,5.3,0.1c0.1,0,0.3,0,0.4,0c0.7-0.1,1.4-0.1,2.2,0.1c0.6,0.2,1.2-0.1,1.7-0.5c0.2-0.2,0.2-0.4,0-0.5
	c-0.5-0.4-0.7-1-0.9-1.6c-0.1-0.3-0.3-0.7-0.5-0.9c-0.4-0.4-0.5-0.9-0.5-1.4c0-0.2,0-0.3,0-0.5c0-0.2-0.1-0.4-0.3-0.5
	c-0.1-0.1-0.3-0.2-0.4-0.3c-0.3-0.2-0.4-0.4-0.4-0.7c0-0.6-0.2-1-0.7-1.3c-0.3-0.2-0.5-0.5-0.5-0.9c0-0.2,0-0.4-0.1-0.6
	c0-0.4-0.2-0.7-0.5-0.9c-0.4-0.3-0.6-0.7-0.6-1.2c0-0.2,0-0.5-0.2-0.7c-0.1-0.2-0.3-0.4-0.5-0.5c-0.4-0.2-0.6-0.6-0.6-1.1
	c0-0.1,0-0.2,0-0.3c0.1-0.4,0-0.8-0.4-1c-0.4-0.3-0.7-0.7-0.7-1.3c0-0.4-0.3-0.6-0.5-0.9c-0.2-0.2-0.4-0.5-0.5-0.8
	c-0.3-0.9-0.8-1-1.6-0.5c-0.7,0.9-1.7,0.9-2.6,1c-0.6,0.1-1.1,0.2-1.5,0.7c-0.3,0.3-0.8,0.5-1.2,0.5c-1.1,0-2.3,0.1-3.4,0
	c-0.9-0.1-1.9-0.2-2.7-0.6c-0.1-0.1-0.3-0.1-0.4-0.1c-1-0.2-2.1-0.4-3.1-0.5c-0.4-0.1-0.7-0.1-1-0.4c-0.5-0.4-1.1-0.6-1.7-0.7
	c-0.5-0.1-1-0.2-1.4-0.6c-0.5-0.3-1.1-0.6-1.7-0.7c-0.4,0-0.8-0.2-1.1-0.5c-0.4-0.4-0.8-0.5-1.3-0.6c-0.4,0-0.8-0.1-1.2-0.1
	c-0.7,0-0.9,0.3-1,0.9c-0.1,0.6-0.2,1.1-0.8,1.3c-0.3,0.1-0.4,0.4-0.4,0.7c0,0.2,0,0.3,0,0.5c0,0.6-0.2,1-0.6,1.3
	c-0.3,0.2-0.4,0.5-0.6,0.8c-0.2,0.5-0.4,0.9-0.6,1.4c-0.1,0.3-0.3,0.5-0.3,0.8c-0.2,0.7-0.5,1.4-1,1.9c-0.2,0.2-0.3,0.4-0.4,0.7
	c-0.1,0.5-0.4,1-0.7,1.4c-0.3,0.4-0.5,0.7-0.5,1.2c0,0.5-0.2,0.9-0.6,1.2c-0.4,0.3-0.5,0.7-0.5,1.2c0,0.1,0,0.3,0,0.4
	c0,0.4-0.2,0.8-0.6,1c-0.4,0.2-0.6,0.5-0.5,1c0,0.1,0,0.3,0,0.4c0,0.4-0.2,0.8-0.5,1c-0.3,0.2-0.5,0.5-0.6,0.9
	c0,0.3-0.2,0.6-0.2,0.9c-0.1,0.4,0.1,0.7,0.6,0.6c0.1,0,0.1,0,0.2,0c0.7-0.3,1.5-0.3,2.3-0.2c1.2,0.1,2.4,0.1,3.7,0.1
	c0.6,0,1.2-0.1,1.8-0.2c1.2-0.2,2,0.1,2.6,1.1c0.2,0.3,0,0.9-0.4,1.2c-0.4,0.2-0.8,0.4-1.3,0.2c-0.1,0-0.2-0.1-0.3-0.1
	c-1.7,0-3.4-0.2-5.1,0c-0.6,0.1-1.3,0.1-2,0c-0.6,0-1.2-0.1-1.8,0c-0.5,0.1-1,0.1-1.5,0C85.1,90.9,84,91,83,91
	c-1.4,0-2.8,0.1-4.2,0.1c-0.6,0-1.3,0-1.9,0.1c-0.8,0.1-1.4-0.1-1.8-0.7c-0.2-0.3-0.2-0.6,0-0.9c0.5-0.6,1.2-1.1,2.1-1
	c0.7,0,1.4,0,2.1,0.3c0.3,0.2,0.7,0.1,1,0c0.5-0.2,1-0.2,1.4-0.1c0.5,0.1,1,0,1.5-0.2c0.3-0.1,0.5-0.3,0.6-0.5
	c0.2-0.6,0.5-1.1,1-1.5c0.2-0.1,0.2-0.4,0.3-0.6c0.1-0.6,0.3-1.2,0.8-1.6c0.2-0.1,0.3-0.4,0.3-0.7c0-0.6,0.3-1.2,0.9-1.5
	c0.3-0.2,0.4-0.4,0.4-0.7c0-0.1,0-0.3,0-0.4c0-0.5,0.2-0.9,0.6-1.2c0.4-0.3,0.6-0.6,0.6-1.1c0-0.6,0.2-1.1,0.6-1.5
	c0.3-0.3,0.4-0.6,0.5-1c0.1-0.6,0.4-1.1,0.8-1.5c0.2-0.2,0.3-0.5,0.4-0.7c0.2-0.6,0.4-1.1,0.9-1.5c0.2-0.1,0.2-0.4,0.3-0.6
	c0.1-0.2,0.1-0.5,0.1-0.7c0.1-0.3,0.2-0.6,0.5-0.7c0.5-0.3,0.7-0.7,0.6-1.2c0-0.2,0-0.4,0.1-0.6c0-0.4,0.2-0.7,0.5-0.9
	c0.3-0.2,0.4-0.5,0.5-0.8c0.1-0.3,0.2-0.7,0.3-1c0.2-0.6,0.1-0.8-0.5-0.8C93.9,65,93.4,65,93,65c-0.4,0-0.8-0.2-1.1-0.5
	c-0.3-0.3-0.6-0.4-0.9-0.5c-0.3,0-0.5-0.1-0.8-0.2c-0.7-0.2-1-0.1-1.4,0.5c-0.3,0.4-0.6,0.8-0.9,1.1c-0.1,0.1-0.2,0.3-0.3,0.5
	c-0.2,0.5-0.6,0.9-0.9,1.3c-0.5,0.5-0.9,1.1-1.4,1.6c-0.3,0.3-0.6,0.5-0.8,0.8c-0.1,0.1-0.2,0.1-0.3,0.2c-1,0.8-1.9,1.6-3,2.2
	c0,0-0.1,0-0.1,0.1c-0.5,0.5-1.2,0.9-1.9,1.1c-0.2,0-0.4,0.1-0.5,0.3c-0.5,0.7-1.2,0.8-2,0.9c-0.2,0-0.5,0-0.7,0.1
	c-0.3,0.1-0.7,0.2-0.9,0.4c-0.6,0.4-1.2,0.5-1.9,0.5c-1.4,0.1-2.9,0.2-4.3,0.4c-0.4,0.1-0.7,0.1-1.1,0.1c-1.2-0.1-2.3-0.1-3.5-0.4
	c-0.4-0.1-0.9-0.1-1.3-0.1c-0.5,0-1-0.2-1.3-0.5c-0.3-0.3-0.8-0.5-1.2-0.5c-0.5,0-1-0.2-1.4-0.5c-0.4-0.3-0.8-0.5-1.2-0.8
	c-0.2-0.1-0.3-0.3-0.5-0.4c-0.6-0.6-1.2-1.2-1.8-1.8c-0.3-0.3-0.5-0.5-0.6-0.9c-0.1-0.4-0.2-0.7-0.5-1c-0.4-0.3-0.5-0.7-0.5-1.1
	c0-0.7,0-1.4-0.3-2.1c-0.1-0.2-0.1-0.4,0-0.6c0.2-1.1,0-2.2,0.3-3.4c0.1-0.4,0.1-0.7,0.1-1.1c0-0.4,0.1-0.8,0.4-1.1
	c0.3-0.3,0.5-0.6,0.6-1c0.1-0.3,0.4-0.7,0.6-0.9c0.4-0.5,0.9-1,1.4-1.3c0.2-0.1,0.3-0.3,0.4-0.5c0.2-0.3,0.5-0.4,0.9-0.4
	c0.7,0.1,1.3,0,1.8-0.4c0.2-0.2,0.5-0.2,0.7,0c0.4,0.3,0.9,0.3,1.4,0.1c0.4-0.2,0.7-0.1,1,0.2c0.2,0.2,0.5,0.3,0.8,0.2
	c0.1,0,0.3,0,0.4-0.1c0.5-0.1,1-0.1,1.3,0.5c0.1,0.2,0.3,0.3,0.4,0.4c0.4,0.3,0.6,0.7,0.6,1.3c0,0.1,0,0.3,0,0.4
	c-0.1,0.4,0,0.8,0.2,1.1c0.2,0.3,0.2,0.6,0,1c-0.4,0.6-1.3,0.7-1.7,0c-0.1-0.1-0.1-0.2-0.2-0.3c-0.4-0.4-0.6-0.8-0.6-1.3
	c-0.1-0.4-0.3-0.7-0.7-0.8c-0.6-0.2-1.2-0.3-1.9-0.3c-0.9,0.1-1.8,0.2-2.7,0.3c-0.3,0-0.5,0.2-0.7,0.4c-0.3,0.3-0.6,0.6-0.9,0.8
	c-0.1,0.1-0.2,0.2-0.2,0.3c-0.2,0.4-0.5,0.7-0.8,1c-0.3,0.2-0.4,0.5-0.4,0.8c0,0.9,0,1.8-0.1,2.7c-0.2,1.2,0,2.3,0.1,3.5
	c0,0.1,0,0.1,0,0.2c0,0.3,0.1,0.5,0.4,0.7c0.2,0.1,0.4,0.3,0.5,0.5c0.3,0.3,0.5,0.7,0.8,1c0.5,0.6,1,1.1,1.5,1.6
	c0.3,0.4,0.7,0.6,1.2,0.8c0.3,0.1,0.6,0.3,0.8,0.5c0.4,0.5,0.9,0.7,1.5,0.6c1.1-0.1,2.1,0.1,3.2,0.4c1,0.3,2,0.2,3-0.1
	c0.9-0.3,1.9-0.4,2.8-0.4c0.4,0,0.8,0,1.1-0.1c0.2-0.1,0.5-0.2,0.7-0.4c0.3-0.4,0.7-0.6,1.2-0.7c0.7-0.2,0.9-0.5,0.7-1.2
	c-0.1-0.5-0.3-0.9-0.3-1.4c-0.1-0.6,0.1-1.1,0.4-1.7c0.2-0.3,0.2-0.7,0.3-1.1c0-0.3,0-0.5,0-0.8c0-0.4,0.2-0.7,0.5-0.9
	c0.3-0.2,0.5-0.5,0.7-0.8c0.3-0.4,0.6-0.8,0.9-1.1c0.4-0.4,0.8-0.8,1.2-1.2c0.3-0.3,0.6-0.5,1.1-0.6c0.4-0.1,0.7-0.3,1.1-0.5
	c0.3-0.3,0.7-0.4,1.1-0.5c0.7-0.1,1.3-0.2,2-0.3c0.2,0,0.4-0.2,0.6-0.4c0.1-0.1,0.1-0.2,0.1-0.3c0.3-1.4,0.7-2.8,1-4.2
	c0.1-0.7,0.2-1.3,0.2-2c0-1.4,0-2.8,0-4.2c0-0.5-0.1-1-0.2-1.6c0-0.4-0.1-0.7,0-1.1c0-0.3,0-0.6-0.2-0.8c-0.3-0.4-0.5-0.9-0.5-1.5
	c-0.1-0.7-0.2-1.5-0.4-2.2c-0.1-0.3-0.2-0.6-0.3-0.9c-0.3-0.4-0.5-0.9-0.5-1.4c-0.1-0.6-0.3-1.2-0.7-1.6c-0.2-0.2-0.2-0.4-0.3-0.7
	c-0.1-0.6-0.3-1-0.7-1.4c-0.2-0.2-0.4-0.5-0.5-0.8c-0.2-0.3-0.4-0.7-0.7-1c-0.2-0.3-0.3-0.5-0.4-0.8c-0.2-0.3-0.3-0.5-0.5-0.7
	c-0.8-0.8-1.5-1.6-2.3-2.3c-1.3-1-2.5-2.2-4-2.8c-0.2-0.1-0.3-0.2-0.5-0.4c-0.3-0.4-0.8-0.7-1.3-0.7c-0.5,0-0.9-0.3-1.2-0.7
	c-0.2-0.3-0.5-0.4-0.8-0.4c-0.4,0-0.7-0.1-1.1-0.1c-0.4,0-0.8-0.2-1.1-0.4c-0.6-0.4-1.2-0.7-1.9-0.7c-0.3,0-0.6,0-1-0.1
	c-0.6,0-1.2-0.2-1.8-0.4c-0.6-0.3-1.3-0.5-1.9-0.5c-1.5-0.1-3.1-0.2-4.7-0.2c-2.1,0-4.2,0-6.2,0c-0.4,0-0.7,0-1.1,0
	c-0.3,0-0.5,0-0.8,0c-0.7,0-0.8,0.2-0.8,0.9c0,1.3,0,2.5,0,3.8c0,5.6,0,11.2,0,16.8c0,5.2,0,10.4,0,15.6c0,5,0,9.9,0,14.9
	c0,3.2,0,6.4,0,9.6c0,1.3,0,2.7,0,4c0,1.1,0.1,1.2,1.2,1.2c0.4,0,0.7-0.1,1.1-0.1c0.1,0,0.2,0,0.3,0c1.2,0,2.4,0,3.5-0.1
	c0.5,0,0.9,0,1.4-0.1c0.6-0.1,1.2,0.1,1.7,0.4c0.4,0.3,0.6,0.7,0.2,1.1c-0.6,0.6-1.3,1.2-2.3,0.9c-0.6-0.2-1.3-0.2-1.9,0
	c-0.5,0.1-1,0-1.5,0.1c-0.4,0-0.9,0-1.3,0.1c-0.8,0.1-1.5,0.1-2.3-0.1c-0.5-0.1-1.1-0.1-1.6-0.1c-1.1,0.1-2.1,0.1-3.2,0.1
	c-0.5,0-1,0-1.5,0.1c-0.4,0-0.8,0.1-1.2,0c-1.7-0.3-3.3,0.1-5,0c-0.1,0-0.3,0-0.4,0c-0.9-0.1-1.7-0.2-2.6,0c-0.3,0.1-0.7-0.1-1-0.2
	c-0.4-0.1-0.7-0.1-1,0c-0.5,0.1-1,0.2-1.5,0.1c-0.3,0-0.5-0.2-0.8-0.3c-0.1-0.1-0.2-0.2-0.4-0.3c-0.1,0.1-0.2,0.2-0.3,0.3
	c-0.3,0.3-0.7,0.4-1.1,0.4c-3.4-0.3-6.9,0-10.3-0.1c-0.3,0-0.6,0-1,0c0-0.8,0-1.6,0-2.4c0.1,0,0.3,0,0.4,0c2.8,0,5.6,0,8.4,0
	c0.6,0,1.2,0,1.9,0c0.6,0,0.9-0.2,1-0.9c0-0.3,0-0.5,0-0.8c0-2,0-4.1,0-6.1c0-6.7,0-13.5,0-20.2c0-10.1,0-20.3,0-30.4
	c0-2.5,0-4.9-0.1-7.4c0-0.8-0.2-0.9-1-0.9c-0.3,0-0.7,0-1,0c-1.9,0-3.9,0-5.8,0c-1.3,0-2.6,0-3.9,0c0-0.7,0-1.4,0-2.1
	c0.2,0,0.4,0,0.6,0c2.1,0,4.2,0,6.2,0c2.2,0,4.4-0.1,6.6-0.1c2,0,4,0,6.1,0c1.4,0,2.8,0,4.3,0c2.8,0,5.7,0.2,8.5,0
	c0.2,0,0.3,0,0.5,0c2.1,0,4.2,0.1,6.3,0.1c2.8,0,5.6,0,8.4,0.1c0.8,0,1.5,0.1,2.2,0.5c0.5,0.3,1.1,0.4,1.7,0.5c0.4,0,0.9,0,1.3,0
	c0.7,0,1.4,0.1,2,0.3c1,0.3,2,0.8,3.1,0.9c0.5,0,0.8,0.2,1.2,0.4c0.4,0.3,0.9,0.5,1.4,0.6c0.4,0.1,0.7,0.3,1,0.4
	c0.4,0.2,0.9,0.4,1.3,0.6c0.4,0.2,0.8,0.4,1.1,0.6c0.3,0.2,0.7,0.4,1,0.6c0.4,0.2,0.7,0.3,1,0.7c0.2,0.2,0.4,0.4,0.6,0.5
	c0.5,0.3,0.9,0.6,1.3,1c0.1,0.1,0.3,0.2,0.4,0.3c0.3,0.2,0.6,0.4,0.8,0.7c0.7,0.7,1.4,1.5,2.1,2.3c0.5,0.5,0.9,1,1.3,1.5
	c0.4,0.6,0.7,1.2,1.1,1.8c0.1,0.2,0.2,0.5,0.3,0.8c0.1,0.3,0.2,0.7,0.5,1c0.5,0.7,0.8,1.4,0.9,2.3c0.1,0.4,0.3,0.8,0.5,1.1
	c0.2,0.3,0.4,0.6,0.4,1c0.1,0.9,0.2,1.9,0.3,2.8c0,0.4,0.1,0.7,0.3,1c0.2,0.3,0.4,0.6,0.4,0.9c0.2,1,0.3,2.1,0.4,3.1
	c0,1.4,0,2.8-0.1,4.3c0,0.4-0.1,0.9-0.3,1.3c-0.3,0.8-0.6,1.7-0.7,2.6c-0.1,0.8-0.2,1.5-0.2,2.3c-0.1,0.7,0.2,1,0.9,1
	c0.3,0,0.6,0,0.8,0c0.8,0,1.5,0.2,2.2,0.7c0.5,0.4,1.1,0.5,1.7,0.4c0.8-0.1,1.3-0.6,1.3-1.3c0-0.2,0.1-0.4,0.1-0.6
	c0.1-0.5,0.3-1,0.7-1.3c0.3-0.3,0.5-0.7,0.5-1.1c0.1-0.5,0.2-1.1,0.7-1.4c0.3-0.2,0.4-0.5,0.5-0.9c0.1-0.3,0.1-0.5,0.2-0.7
	c0.4-0.6,0.6-1.2,0.8-1.8c0.1-0.3,0.3-0.6,0.5-0.9c0.2-0.4,0.5-0.9,0.7-1.4c0.2-0.5,0.4-1,0.7-1.3c0.3-0.3,0.4-0.6,0.5-1
	c0.1-0.5,0.3-1,0.6-1.5c0.2-0.3,0.4-0.6,0.5-0.9c0.3-1.1,0.9-2,1.3-2.9c0-0.1,0.1-0.2,0.2-0.3c0.5-0.5,0.8-1.2,0.9-2
	c0-0.5,0.2-0.9,0.6-1.2c0.4-0.3,0.5-0.7,0.6-1.1c0-0.4,0.2-0.8,0.5-1c0.5-0.3,0.6-0.8,0.7-1.3c0-0.5,0.2-0.8,0.5-1.1
	c0.3-0.3,0.5-0.7,0.6-1.2c0.1-0.5,0.3-0.9,0.6-1.3c0.3-0.3,0.5-0.7,0.5-1.1c0.1-0.4,0.2-0.8,0.6-1.1c0.4-0.3,0.6-0.7,0.6-1.2
	c0-0.5,0.2-0.9,0.6-1.2c0.4-0.3,0.6-0.6,0.6-1.1c0-0.6,0.2-1.1,0.6-1.5c0.3-0.3,0.4-0.6,0.5-1c0.1-0.5,0.3-1,0.8-1.3
	c0.3-0.2,0.4-0.5,0.5-0.8c0-0.6,0.2-1.2,0.7-1.7c0.2-0.2,0.3-0.5,0.4-0.7c0.1-0.6,0.4-1,1-1.3c0.3-0.1,0.4-0.3,0.4-0.6
	c0-0.1,0-0.3,0.1-0.4c0.7,0,1.4,0,2.1,0c0,0.2,0,0.5,0.1,0.7c0,0.4,0.2,0.7,0.5,1c0.4,0.4,0.6,0.8,0.7,1.4c0.1,0.4,0.2,0.8,0.5,1.1
	c0.3,0.4,0.5,0.8,0.7,1.3c0.1,0.3,0.2,0.7,0.4,0.9c0.4,0.4,0.6,1,0.8,1.5c0.1,0.3,0.2,0.7,0.4,0.9c0.3,0.3,0.5,0.7,0.6,1.2
	c0.1,0.3,0.3,0.7,0.5,1c0.4,0.4,0.6,0.9,0.7,1.4c0.1,0.4,0.2,0.8,0.5,1.1c0.3,0.3,0.5,0.7,0.6,1.1c0.2,0.5,0.4,1,0.7,1.4
	c0.3,0.3,0.4,0.7,0.6,1.1c0.2,0.4,0.3,0.7,0.5,1.1c0.2,0.4,0.4,0.7,0.5,1.1c0.1,0.5,0.4,0.8,0.7,1.2c0.2,0.3,0.4,0.7,0.6,1.1
	c0.2,0.3,0.2,0.7,0.5,0.9c0.4,0.5,0.7,1,0.8,1.7c0.1,0.4,0.2,0.8,0.5,1.1c0.4,0.3,0.6,0.7,0.7,1.2c0.1,0.5,0.3,0.9,0.6,1.3
	c0.2,0.3,0.3,0.7,0.5,1c0.1,0.3,0.3,0.6,0.5,0.9c0.4,0.5,0.7,1,0.7,1.6c0,0.4,0.2,0.8,0.5,1.1c0.3,0.3,0.5,0.7,0.6,1.1
	c0.1,0.5,0.3,0.9,0.6,1.3c0.1,0.1,0.2,0.2,0.2,0.3c0.3,0.8,0.6,1.5,1.2,2.1c0,0,0,0.1,0.1,0.1c0.2,0.9,0.7,1.6,1.2,2.4
	c0.4,0.7,0.7,1.5,1.1,2.2c0.2,0.3,0.2,0.6,0.3,1c0.1,0.4,0.2,0.7,0.5,1c0.4,0.4,0.7,0.9,0.8,1.5c0.1,0.4,0.3,0.7,0.4,1.1
	c0.2,0.4,0.4,0.8,0.6,1.2c0.1,0.3,0.3,0.6,0.5,0.8c0.4,0.4,0.6,0.8,0.7,1.4c0.1,0.5,0.2,0.8,0.6,1.1c0.4,0.4,0.6,0.8,0.7,1.3
	c0.1,0.5,0.3,0.9,0.6,1.3c0.8,1,1.4,2.1,1.7,3.4c0.1,0.3,0.2,0.5,0.4,0.7c0.4,0.3,0.6,0.8,0.8,1.3c0.1,0.4,0.3,0.8,0.6,1.2
	c0.2,0.2,0.3,0.6,0.4,0.9c0.1,0.2,0.1,0.5,0.2,0.8c0.1,0.2,0.1,0.4,0.3,0.5c0.5,0.4,0.7,0.9,0.8,1.5c0.1,0.6,0.3,1.1,0.7,1.5
	c0.2,0.3,0.3,0.6,0.5,0.9c0.1,0.2,0.2,0.5,0.4,0.7c0.5,0.5,0.7,1.2,0.8,1.8c0.1,0.4,0.2,0.6,0.5,0.8c0.4,0.2,0.6,0.6,0.6,1.1
	c0,0.2,0,0.3,0,0.5c0,0.3,0.1,0.5,0.4,0.6c0.7,0.2,1.4,0.5,2.2,0.5c1.1-0.1,2.3-0.1,3.4,0.1c0.2,0,0.5,0,0.7,0c0.7,0,1.3-0.1,2-0.1
	c2.3,0,4.5,0,6.8,0c0.3,0,0.6,0,0.8,0.1c0.5,0.1,0.9,0,1.3-0.2c0.7-0.3,0.9-0.8,0.8-1.6c-0.1-0.8-0.2-1.7-0.1-2.5
	c0-0.4-0.1-0.8-0.1-1.2c0-0.2-0.1-0.4-0.1-0.7c0-0.8,0-1.5,0-2.3c0-5.3,0-10.5,0-15.8c0-12.3,0-24.7,0-37c0-0.8,0.1-1.6,0.2-2.3
	c0.1-0.3,0-0.7,0-1c-0.1-0.5-0.2-1.1-0.1-1.6c0-0.1,0-0.2,0.1-0.3c0.1-0.4,0-0.6-0.4-0.8c-0.3-0.1-0.7-0.2-1-0.2
	c-0.6-0.1-1.1-0.1-1.7-0.2c-0.8-0.1-1.7-0.3-2.5-0.4c-1.8-0.2-3.6-0.4-5.4,0.2c-0.1,0-0.2,0-0.3,0.1c-0.1,0-0.3,0.1-0.4,0.2
	c-0.6,0.4-1.2,0.5-1.8,0.5c-0.7,0-1.4,0-2.1,0.1c-0.5,0-0.9,0.2-1.2,0.6c-0.3,0.3-0.6,0.5-1,0.5c-0.3,0-0.5,0.1-0.8,0.1
	c-0.6,0.1-1.1,0.2-1.6,0.7c-0.2,0.2-0.5,0.2-0.7,0.4c-0.4,0.2-0.8,0.4-1.2,0.6c-0.3,0.2-0.6,0.4-0.9,0.6c-0.9,0.5-1.6,1.2-2.3,1.8
	c-0.8,0.7-1.4,1.5-2.1,2.3c-0.2,0.2-0.3,0.4-0.5,0.6c-0.6,0.4-0.9,1-0.9,1.7c0,0.4-0.1,0.7-0.4,1c-0.6,0.5-0.8,1.2-0.7,2
	c0,0.5,0,1.1-0.3,1.6c-0.2,0.3-0.2,0.8-0.3,1.1c-0.1,0.3-0.1,0.6-0.1,0.8c-0.4,1.5-0.3,3.1,0.1,4.6c0.3,1,0.5,1.9,0.6,2.9
	c0.1,0.4,0.2,0.8,0.4,1.2c0.3,0.4,0.5,0.8,0.6,1.2c0.1,0.3,0.3,0.6,0.6,0.8c0.2,0.1,0.4,0.3,0.6,0.5c0.8,0.7,1.5,1.5,2.5,1.9
	c0.2,0.1,0.4,0.2,0.5,0.4c0.5,0.4,1,0.6,1.6,0.6c1.2,0,2.4,0.1,3.5,0.1c0.6,0,1.3-0.1,1.9-0.2c0.2,0,0.4-0.1,0.5-0.2
	c0.5-0.5,1.1-0.7,1.7-0.8c0.2,0,0.4-0.2,0.5-0.4c0.2-0.4,0.6-0.8,1-1c0.3-0.2,0.4-0.4,0.5-0.7c0.2-0.5,0.4-0.9,0.6-1.3
	c0.3-0.4,0.4-0.8,0.4-1.3c0-0.8,0-1.6,0.1-2.4c0-0.3-0.1-0.6-0.4-0.8c-0.2-0.1-0.4-0.3-0.6-0.5c-0.4-0.9-1.3-1.3-1.9-1.9
	c-0.6-0.5-0.8-1-0.9-1.7c0-0.5,0.2-0.7,0.6-0.8c0.9-0.2,1.8-0.1,2.5,0.5c0.4,0.3,0.7,0.7,1,1c0.4,0.4,0.6,0.8,0.8,1.3
	c0.1,0.4,0.2,0.7,0.5,1c0.4,0.4,0.5,0.9,0.6,1.4c0,1.1,0,2.2,0,3.4c0,0.7-0.2,1.2-0.7,1.7c-0.3,0.3-0.5,0.6-0.4,1
	c0.1,0.6-0.3,1-0.7,1.4c-0.2,0.2-0.3,0.4-0.4,0.6c-0.2,0.2-0.3,0.5-0.5,0.7c-0.2,0.2-0.4,0.3-0.5,0.5c-0.3,0.5-0.8,0.7-1.4,0.8
	c-0.3,0-0.7,0-0.9,0.3c-0.4,0.5-0.9,0.6-1.4,0.7c-0.8,0.1-1.6,0.1-2.3,0.2c-0.3,0-0.7,0.1-1,0.1c-0.5,0-1,0-1.6,0
	c-1.4,0-2.8,0-4.2-0.3c-0.4-0.1-0.7-0.2-1.1-0.5c-0.3-0.2-0.7-0.5-1.1-0.6c-0.8-0.1-1.4-0.5-1.9-1c-0.1-0.1-0.1-0.1-0.2-0.2
	c-0.4-0.4-0.8-0.7-1.2-1.1c-0.3-0.3-0.4-0.6-0.7-0.9c-0.6-0.4-1-1-1.3-1.6c-0.1-0.1-0.1-0.2-0.2-0.3c-0.5-0.5-0.7-1.1-0.7-1.8
	c-0.1-0.4-0.2-0.8-0.5-1.1c-0.2-0.2-0.3-0.4-0.4-0.7c-0.1-0.5-0.1-1-0.1-1.4c-0.2-2.5-0.1-5.1,0-7.6c0-0.6,0.2-1.1,0.5-1.5
	c0.3-0.5,0.6-1,0.7-1.6c0.1-0.5,0.2-0.9,0.5-1.3c0.5-0.7,1-1.4,1.6-2.1c0-0.1,0.1-0.1,0.1-0.2c0.1-0.8,0.6-1.3,1.2-1.8c0,0,0,0,0,0
	c0.3-0.3,0.6-0.6,1-0.9c0.5-0.5,1.1-0.9,1.6-1.4c0.3-0.2,0.5-0.4,0.8-0.6c0.4-0.2,0.9-0.3,1.2-0.7c0.3-0.5,0.8-0.7,1.4-0.8
	c0.3-0.1,0.7-0.2,0.9-0.4c0.4-0.3,0.8-0.5,1.3-0.6c0.3-0.1,0.7-0.2,0.9-0.4c0.5-0.5,1.1-0.7,1.8-0.7c0.5,0,0.9-0.1,1.3-0.4
	c0.6-0.5,1.3-0.6,2-0.6c1.1,0,2.3-0.1,3.4-0.2c0.4,0,0.8-0.2,1.1-0.4c0.4-0.2,0.8-0.3,1.2-0.3c0.5,0,1-0.1,1.6-0.2
	c0.2,0,0.3-0.1,0.5-0.1c1.5,0,3.1-0.1,4.6,0.1c1.2,0.2,2.3,0.3,3.5,0.4c0.2,0,0.5,0.1,0.7,0.2c0.4,0.2,0.9,0.2,1.3,0.2
	c0.2,0,0.5,0,0.7,0c1,0.1,2,0.1,3,0.2c0.4,0,0.9,0.2,1.3,0.3c0.5,0.1,0.9,0.3,1.3,0.4c1.4,0.3,2.9,0.4,4.3,0.5c0.5,0,1,0.1,1.5,0.3
	c0.9,0.2,1.8,0.5,2.7,0.7c0.1,0,0.3,0,0.4,0c1.1,0.1,2.3,0.1,3.4,0.1c1.2,0.1,2.4,0.5,3.5,0.8c0.4,0.1,0.8,0.3,1.2,0.3
	c1.4,0.1,2.8,0.1,4.2,0.1c1.7,0,3.4,0.3,5.1,0.7c0.3,0.1,0.7,0.1,1.1,0.1c0.4,0,0.7,0.1,1.1,0.1c0.5,0.1,0.9,0,1.4-0.2
	c0.3-0.1,0.6-0.2,0.8-0.3c0.4-0.1,0.8-0.1,1.3-0.2c0.4-0.1,0.9-0.1,1.3-0.2c0.7-0.1,1.5-0.1,2.2-0.1c0.5,0,0.8-0.2,1.1-0.6
	c0.3-0.4,0.7-0.6,1.1-0.6c0.7,0.1,1.2-0.1,1.6-0.7c0.3-0.4,0.7-0.6,1-1c0.7-0.8,1.6-1,2.5-1.3c0.3-0.1,0.6,0,0.9,0.2
	c0.6,0.4,0.9,1.3,0.6,2c-0.1,0.3-0.2,0.6-0.3,0.9c-0.1,0.7-0.4,1.1-1.1,1.2c-0.4,0.1-0.8,0.2-1,0.5c-0.4,0.4-0.8,0.6-1.3,0.6
	c-0.2,0-0.5,0.1-0.7,0.1c-0.4,0.1-0.9,0.1-1.2,0.4c-0.5,0.5-1.1,0.6-1.7,0.6c-0.4,0-0.9,0-1.3,0c-1.1,0-2.2,0.1-3.2,0.6
	c-0.4,0.2-0.8,0.2-1.3,0.3c-0.2,0-0.5,0-0.7,0.1c-2.3,0.4-4.6,0.3-6.8-0.1c-1.2-0.2-2.4-0.4-3.6-0.6c-0.6-0.1-1.3-0.2-2-0.2
	c-0.9,0-1.9,0.1-2.8-0.3c-0.4-0.2-0.7,0.1-0.8,0.4c0,0.2-0.1,0.4-0.1,0.6c0,0.4,0,0.9,0,1.3c0,3,0,6,0,9c0,6.2,0,12.4,0,18.6
	c0,3.8,0,7.6,0,11.3c0,1.5,0,3,0,4.5c0,2,0,4.1,0,6.1c0,3.7,0,7.3,0,11c0,0.2,0,0.5,0,0.7c0,0.3,0.2,0.4,0.5,0.5c0.1,0,0.2,0,0.3,0
	c1.4,0,2.8-0.2,4.2,0c0.1,0,0.2,0,0.3,0c1.1-0.3,2.2-0.1,3.3-0.1c0.1,0,0.3,0,0.4,0.1c0.7,0.2,1.3,0.1,2-0.2
	c0.3-0.1,0.5-0.3,0.6-0.6c0.2-0.5,0.5-0.9,0.9-1.3c0.3-0.3,0.5-0.6,0.5-1c0.1-0.5,0.3-1,0.7-1.3c0.2-0.1,0.3-0.4,0.3-0.6
	c0-0.2,0-0.4,0-0.6c0.1-0.4,0.2-0.8,0.6-1c0.6-0.2,0.7-0.6,0.6-1.1c0-0.1,0-0.2,0-0.3c0-0.4,0.2-0.7,0.5-0.9
	c0.5-0.3,0.7-0.7,0.7-1.3c0-0.5,0.2-1,0.7-1.3c0.3-0.2,0.4-0.5,0.4-0.8c0-0.6,0.2-1.1,0.7-1.5c0.2-0.2,0.3-0.4,0.3-0.7
	c0.1-0.7,0.3-1.2,0.9-1.6c0.2-0.1,0.3-0.4,0.3-0.7c0-0.2,0-0.4,0-0.6c0-0.4,0.2-0.8,0.7-0.9c0.5-0.1,0.6-0.4,0.6-0.9
	c0-0.2,0-0.3,0-0.5c0-0.5,0.2-1,0.7-1.4c0.3-0.2,0.3-0.4,0.4-0.7c0-0.3,0.1-0.6,0.2-0.9c0.3-0.9,0.1-1.1-0.8-1.1
	c-0.8,0-1.5-0.1-2.2-0.7c-0.1-0.1-0.2-0.1-0.3-0.2c-0.6-0.3-1.2-0.3-1.9-0.3c-1,0.1-1.9,0-2.9,0c-0.3,0-0.6-0.1-0.9-0.2
	c-0.4-0.2-0.8-0.2-1.3-0.1c-0.9,0.1-1.8,0.4-2.7,0.4c-0.3,0-0.6,0.1-0.8,0.3c-0.4,0.3-0.7,0.6-1.1,0.9c-0.4,0.3-0.6,0.7-1,1
	c-0.5,0.3-0.7,0.7-0.7,1.3c0,0.1,0,0.2,0,0.2c-0.1,0.4-0.1,0.8-0.3,1.1c-0.4,0.4-0.3,0.8-0.1,1.3c0.3,0.8,0.7,1.5,0.7,2.4
	c0,0.5-0.3,0.9-0.8,0.9c-0.2,0-0.3,0-0.5,0c-0.7,0.1-1.2-0.2-1.2-0.9c-0.1-0.8-0.2-1.6-0.3-2.4c0-0.5,0-1,0-1.5
	c0.1-0.6,0.2-1.2,0.2-1.8c0-1.2,0.8-2,1.4-2.9c0,0,0.1-0.1,0.1-0.1c0.4-0.2,0.7-0.6,0.9-1c0.4-0.7,1-1.3,1.9-1.6
	c0.4-0.1,0.7-0.3,1-0.5c0.4-0.2,0.7-0.4,1.1-0.4c0.9-0.1,1.7-0.2,2.5-0.4c1.6-0.4,3.2-0.3,4.7-0.1c1.3,0.2,2.6,0.4,3.8,0.6
	c0.6,0.1,1.1,0.3,1.6,0.7c0.2,0.2,0.5,0.3,0.8,0.3c0.9,0.2,1.9-0.5,2.2-1.4c0.2-0.6,0.5-1.3,0.9-1.8c0.2-0.3,0.4-0.7,0.4-1.1
	c0.1-0.4,0.2-0.8,0.5-1.2c0.3-0.3,0.5-0.7,0.6-1.2c0.1-0.3,0.2-0.6,0.4-0.8c0.3-0.4,0.5-0.9,0.7-1.3c0.2-0.4,0.4-0.9,0.6-1.2
	c0.2-0.4,0.4-0.8,0.6-1.2c0.1-0.4,0.2-0.8,0.5-1.1c0.4-0.5,0.6-1,0.8-1.6c0.1-0.3,0.3-0.6,0.5-0.9c0.3-0.4,0.4-0.7,0.5-1.2
	c0.1-0.3,0.2-0.7,0.4-1c0.3-0.4,0.5-0.8,0.6-1.3c0.1-0.5,0.2-1.1,0.6-1.5c0.4-0.4,0.6-0.9,0.7-1.4c0.1-0.3,0.2-0.7,0.4-0.9
	c0.4-0.5,0.6-0.9,0.7-1.5c0-0.4,0.2-0.7,0.5-0.9c0.5-0.3,0.7-0.9,0.7-1.4c0-0.4,0.1-0.7,0.4-0.9c0.4-0.4,0.7-0.9,0.7-1.4
	c0-0.4,0.2-0.6,0.5-0.9c0.4-0.3,0.6-0.8,0.6-1.3c0-0.6,0.2-1,0.7-1.4c0.3-0.3,0.5-0.6,0.5-1c0-0.5,0.3-0.9,0.7-1.2
	c0.3-0.3,0.5-0.6,0.5-1.1c0-0.2,0-0.3,0-0.5c0-0.4,0.2-0.7,0.5-0.9c0.4-0.2,0.6-0.6,0.6-1c0-0.5,0.2-1,0.7-1.2
	c0.4-0.2,0.5-0.6,0.5-1c0-0.6,0.2-1,0.7-1.3c0.3-0.2,0.4-0.5,0.4-0.9c-0.1-0.6,0.1-1.1,0.8-1.4c0.4-0.2,0.6-0.6,0.5-1
	c0.8,0,1.5,0,2.3,0c0,0.7,0.2,1.2,0.8,1.7c0.1,0.1,0.2,0.2,0.2,0.4c0.1,0.3,0.2,0.7,0.3,1c0.1,0.4,0.2,0.8,0.5,1.1
	c0.4,0.4,0.6,0.8,0.7,1.4c0.1,0.3,0.2,0.7,0.4,0.9c0.5,0.5,0.7,1.1,0.8,1.7c0,0.3,0.2,0.5,0.4,0.7c0.3,0.3,0.5,0.6,0.6,1
	c0.1,0.3,0.3,0.7,0.5,0.9c0.4,0.5,0.6,1,0.7,1.5c0.1,0.4,0.2,0.7,0.5,1c0.4,0.4,0.6,0.9,0.7,1.4c0.1,0.4,0.3,0.7,0.6,1
	c0.4,0.3,0.6,0.8,0.7,1.2c0.1,0.3,0.2,0.7,0.4,1c0.3,0.4,0.5,0.8,0.5,1.2c0.1,0.4,0.2,0.7,0.6,0.9c0.5,0.3,0.6,0.7,0.7,1.2
	c0,0.5,0.2,0.9,0.5,1.2c0.4,0.3,0.6,0.8,0.6,1.2c0.1,0.5,0.3,0.9,0.6,1.3c0.3,0.4,0.6,0.8,0.6,1.4c0.1,0.4,0.3,0.8,0.5,1.2
	c0.2,0.3,0.4,0.6,0.5,0.9c0.1,0.4,0.3,0.7,0.6,1c0.4,0.3,0.6,0.8,0.6,1.2c0.1,0.5,0.3,0.9,0.6,1.2c0.3,0.4,0.5,0.8,0.6,1.3
	c0.1,0.3,0.3,0.6,0.4,0.9c0.3,0.5,0.6,0.9,0.8,1.4c0.1,0.2,0.2,0.4,0.3,0.6c0.5,0.6,0.7,1.2,0.7,1.9c0,0.2,0.2,0.5,0.4,0.7
	c0.5,0.4,0.8,0.9,0.8,1.5c0,0.5,0.3,0.9,0.6,1.4c0.2,0.3,0.4,0.6,0.6,1c0.2,0.4,0.4,0.8,0.6,1.1c0.2,0.5,0.5,1,0.7,1.4
	c0.1,0.3,0.2,0.6,0.4,0.8c0.3,0.4,0.5,0.9,0.6,1.4c0,0.4,0.2,0.7,0.5,0.9c0.4,0.2,0.5,0.6,0.6,1c0,0.2,0.1,0.4,0.1,0.6
	c0.1,0.2,0.2,0.5,0.3,0.6c0.4,0.4,0.6,0.8,0.8,1.3c0.1,0.3,0.3,0.7,0.5,1c0.3,0.4,0.5,0.8,0.7,1.2c0.1,0.4,0.4,0.8,0.7,1.2
	c0.2,0.3,0.3,0.7,0.4,1c0.1,0.2,0,0.4,0,0.6c0,0.4,0.1,0.7,0.5,0.9c0.3,0.2,0.5,0.5,0.6,0.8c0.1,0.2,0.1,0.5,0.1,0.7
	c0,0.4,0.2,0.6,0.5,0.8c0.4,0.2,0.5,0.6,0.6,1c0,0.1,0.1,0.3,0.1,0.4c0,0.4,0.2,0.7,0.6,1c0.4,0.2,0.5,0.6,0.6,1
	c0.1,0.2,0.1,0.5,0.2,0.7c0.1,0.3,0.2,0.5,0.4,0.7c0.4,0.4,0.5,0.8,0.6,1.3c0.1,0.4,0.2,0.6,0.5,0.8c0.4,0.3,0.6,0.7,0.7,1.1
	c0.1,0.4,0.2,0.8,0.4,1c0.5,0.6,0.7,1.2,0.8,1.9c0,0.3,0.2,0.5,0.5,0.6c0.4,0.2,0.9,0.4,1.3,0.6c0.3,0.2,0.6,0.2,1,0.1
	c0.3-0.1,0.5-0.2,0.8-0.4c0.6-0.3,0.8-0.8,0.7-1.4c-0.1-0.7-0.1-1.5,0-2.2c0-0.4-0.1-0.9-0.1-1.3c0-0.4-0.1-0.8-0.1-1.2
	c0-0.5,0-1.1,0-1.6c0-0.3,0-0.6,0-0.9c0-0.5,0-1,0-1.5c0-1,0.1-1.9,0.1-2.9c0-0.3,0-0.6,0-0.8c0-0.5-0.1-1-0.1-1.5
	c0-1.3,0.1-2.7,0.1-4c0-3.4,0-6.8,0-10.2c0-6.5,0-13,0-19.5c0-5.5-0.1-11,0.1-16.5c0-0.2-0.1-0.4-0.3-0.4c-0.2,0-0.4,0-0.6,0
	c-0.6,0-1.3,0-1.9,0c-1.7,0-3.4,0-5.1,0c-0.9,0-1.7,0-2.6,0c-0.7,0-1.1-0.5-1.1-1.3c0-0.6,0.4-1,1.1-1c0.1,0,0.1,0,0.2,0
	c0.7,0,1.4,0,2.1,0c2,0,4.1,0,6.1,0c1.7,0,3.4,0,5.1,0c0.8,0,1.6,0,2.5,0c2.8,0,5.7-0.1,8.5-0.1c1.3,0,2.7,0,4,0c1.5,0,2.9,0,4.4,0
	c1.9,0,3.8,0,5.7,0c0.6,0,1.3,0,1.9,0.2c0.4,0.1,0.8,0.2,1.2,0.3c0.2,0,0.3,0,0.5,0.1c0.7,0.4,1.5,0.4,2.2,0.4c0.7,0,1.3,0.2,2,0.5
	c0.5,0.2,1,0.5,1.6,0.6c0.7,0.2,1.3,0.4,1.9,0.9c0.7,0.5,1.4,0.9,2.2,1.3c0.9,0.4,1.5,1.2,2.2,1.8c0.6,0.5,1.1,1.2,1.7,1.7
	c0.4,0.4,0.7,0.8,1,1.3c0.1,0.2,0.1,0.3,0.2,0.4c0.5,0.7,0.8,1.4,1,2.2c0.2,0.8,0.4,1.5,0.7,2.2c0.4,0.8,0.4,1.7,0.4,2.6
	c0,0.7,0,1.5-0.1,2.2c0,0.4-0.1,0.8-0.3,1.2c-0.5,0.8-0.8,1.7-0.9,2.7c-0.1,0.6-0.4,1.2-0.8,1.6c-0.2,0.2-0.3,0.4-0.4,0.6
	c-0.2,0.4-0.4,0.7-0.7,1.1c-0.3,0.4-0.6,0.7-1,1.1c-0.2,0.2-0.5,0.4-0.7,0.7c-0.3,0.3-0.6,0.5-0.8,0.7c-0.3,0.3-0.6,0.5-0.9,0.8
	c-0.2,0.2-0.4,0.3-0.5,0.5c-0.3,0.5-0.7,0.7-1.1,0.7c-0.4,0-0.6,0.2-0.9,0.5c-0.2,0.2-0.4,0.4-0.7,0.6c-0.3,0.2-0.4,0.4-0.1,0.7
	c0.2,0.2,0.4,0.3,0.6,0.3c0.3,0,0.6,0,0.8-0.1c0.9-0.1,1.7,0.1,2.5,0.5c0.1,0,0.1,0.1,0.2,0.1c0.3,0.5,0.8,0.6,1.3,0.7
	c0.7,0,1.4,0.2,2,0.7c0.4,0.3,0.9,0.5,1.4,0.7c0.1,0,0.3,0.1,0.4,0.2c0.6,0.5,1.3,1,1.9,1.5c0.3,0.3,0.6,0.6,1,0.9
	c0.5,0.4,0.9,0.8,1,1.4c0,0.3,0.2,0.4,0.5,0.5c0.3,0.1,0.4-0.1,0.6-0.3c0.2-0.2,0.3-0.5,0.6-0.7c0.5-0.3,0.8-0.6,0.7-1.2
	c0-0.1,0.1-0.2,0.1-0.3c0-0.5,0.3-0.8,0.6-1.1c0.3-0.2,0.4-0.4,0.4-0.8c0-0.1,0-0.2,0-0.3c0-0.5,0.1-1,0.6-1.2
	c0.4-0.2,0.6-0.6,0.5-1c0-0.1,0-0.3,0-0.4c0-0.5,0.2-0.8,0.6-1c0.4-0.2,0.5-0.5,0.5-0.9c-0.1-0.7,0.2-1.2,0.8-1.6
	c0.3-0.1,0.4-0.4,0.4-0.7c0-0.1,0-0.3,0-0.4c0.1-0.5,0.2-1.1,0.6-1.5c0.2-0.2,0.3-0.5,0.4-0.8c0.1-0.4,0.3-0.8,0.7-1.1
	c0.5-0.3,0.6-0.7,0.7-1.3c0-0.6,0.2-1.1,0.6-1.5c0.2-0.2,0.3-0.5,0.4-0.8c0.2-0.5,0.3-1,0.8-1.3c0.3-0.2,0.4-0.5,0.4-0.8
	c0.1-0.3,0.1-0.5,0.2-0.8c0.1-0.3,0.2-0.6,0.5-0.7c0.3-0.2,0.5-0.5,0.5-0.9c0-0.5,0.2-1,0.7-1.3c0.4-0.3,0.5-0.6,0.5-1.1
	c0-0.5,0.1-1,0.5-1.3c0.4-0.4,0.6-0.8,0.7-1.3c0.1-0.6,0.3-1.1,0.7-1.5c0.3-0.3,0.5-0.8,0.6-1.2c0.1-0.5,0.3-1,0.7-1.4
	c0.2-0.2,0.3-0.5,0.5-0.8c0.2-0.3,0.4-0.6,0.5-1c0.2-0.3,0.3-0.6,0.4-1c0.2-0.6,0.4-1.2,0.8-1.8c0.2-0.3,0.4-0.7,0.5-1.1
	c0.1-0.3,0.2-0.7,0.4-1c0.4-0.5,0.7-1.1,0.8-1.7c0.1-0.4,0.3-0.8,0.6-1.1c0.5-0.4,0.6-0.8,0.6-1.4c0.8,0,1.5,0,2.3,0
	c0,0.4-0.1,0.8,0.3,1c0.5,0.2,0.7,0.6,0.9,1.2c0.1,0.3,0.3,0.7,0.5,1c0.3,0.3,0.5,0.7,0.6,1.2c0,0.2,0,0.4,0.1,0.6
	c0.1,0.3,0.2,0.6,0.5,0.7c0.2,0.1,0.3,0.3,0.4,0.5c0.1,0.2,0.1,0.4,0.2,0.6c0.1,0.5,0.2,0.9,0.7,1.2c0.2,0.1,0.3,0.4,0.4,0.7
	c0.1,0.2,0.1,0.5,0.1,0.8c0.1,0.4,0.2,0.7,0.5,0.9c0.2,0.1,0.3,0.3,0.4,0.5c0.1,0.2,0.2,0.5,0.2,0.7c0.1,0.4,0.2,0.9,0.6,1.1
	c0.2,0.1,0.3,0.4,0.3,0.6c0.1,0.3,0.1,0.6,0.2,0.9c0.1,0.3,0.2,0.6,0.4,0.7c0.5,0.3,0.6,0.8,0.8,1.3c0.1,0.3,0.2,0.7,0.4,0.9
	c0.5,0.4,0.6,0.9,0.8,1.4c0.1,0.3,0.2,0.7,0.4,0.9c0.5,0.4,0.6,1,0.8,1.5c0.1,0.3,0.2,0.6,0.4,0.8c0.4,0.4,0.6,0.8,0.8,1.3
	c0.1,0.3,0.2,0.7,0.5,0.9c0.4,0.4,0.5,0.9,0.7,1.4c0.1,0.3,0.2,0.7,0.4,1c0.4,0.4,0.6,0.9,0.8,1.5c0.1,0.3,0.2,0.7,0.4,0.9
	c0.5,0.4,0.6,0.9,0.8,1.5c0.1,0.4,0.2,0.9,0.6,1.2c0.2,0.1,0.3,0.4,0.4,0.6c0.1,0.3,0.1,0.6,0.2,0.9c0.1,0.3,0.2,0.6,0.4,0.7
	c0.5,0.4,0.6,0.8,0.8,1.4c0.1,0.4,0.2,0.8,0.6,1.1c0.2,0.1,0.3,0.4,0.4,0.6c0.1,0.3,0.1,0.5,0.2,0.8c0.1,0.3,0.2,0.6,0.4,0.7
	c0.4,0.3,0.6,0.8,0.7,1.2c0.1,0.4,0.2,0.8,0.6,1.1c0.3,0.3,0.5,0.7,0.6,1.1c0.1,0.4,0.3,0.8,0.5,1.1c0.3,0.4,0.5,0.8,0.6,1.3
	c0.1,0.4,0.2,0.8,0.5,1c0.4,0.3,0.6,0.7,0.6,1.2c0.1,0.4,0.3,0.7,0.6,1c0.4,0.3,0.5,0.8,0.6,1.3c0,0.2,0.1,0.4,0.1,0.7
	c0,0.4,0.2,0.6,0.5,0.8c0.3,0.2,0.5,0.4,0.5,0.7c0,0.3,0.1,0.5,0.1,0.8c0.1,0.3,0.1,0.6,0.4,0.8c0.4,0.2,0.5,0.6,0.6,0.9
	c0.1,0.4,0.2,0.8,0.6,1.1c0.3,0.3,0.5,0.7,0.6,1.1c0.1,0.5,0.3,0.9,0.7,1.3c0.3,0.3,0.5,0.7,0.6,1.1c0.1,0.4,0.2,0.8,0.4,1
	c0.4,0.5,0.7,1,0.8,1.6c0.1,0.4,0.2,0.7,0.5,1c0.3,0.3,0.5,0.6,0.6,1c0.1,0.4,0.3,0.8,0.6,1.1c0.4,0.4,0.5,0.8,0.6,1.3
	c0,0.2,0.1,0.4,0.1,0.6c0,0.3,0.2,0.6,0.5,0.8c0.4,0.3,0.6,0.6,0.7,1c0.2,0.5,0.3,1,0.7,1.4c0.2,0.2,0.3,0.5,0.4,0.8
	c0.2,0.8,0.6,1.4,1.1,1.9c0.4,0.4,0.8,0.5,1.2,0.2c0.7-0.3,1-1,0.9-2c-0.1-0.6,0-1.3,0-2c0-0.2,0-0.5,0-0.7c0-1.3-0.1-2.7-0.2-4
	c0-2.2,0-4.4,0-6.6c0-3,0-5.9,0-8.9c0-7.3,0-14.7,0-22c0-4.2,0-8.3,0-12.5c0-1.2-0.1-2.4,0.1-3.6c0.1-1.1-0.1-2-0.2-3.1
	c-0.1-0.4-0.2-0.5-0.6-0.5c-0.3,0-0.6,0-0.8,0c-1.2,0-2.5-0.1-3.7-0.1c-1.7,0-3.3,0-5,0c-0.7,0-1.1-0.3-1.1-1
	c-0.1-1,0.2-1.3,1.2-1.3c1.6,0,3.3,0,4.9,0c2.5,0,5,0,7.4,0c1.7,0,3.4,0,5.1,0c0.4,0,0.9,0,1.3,0c4.6,0,9.3,0.1,13.9,0.1
	c3,0,6,0,8.9-0.1c0.1,0,0.3,0,0.4,0c0.6,0.1,1,0.5,0.9,1.1c0,0.8-0.4,1.2-1.1,1.2c-1.1,0-2.2,0-3.3,0c-1.9-0.1-3.7,0.1-5.6,0
	c-0.3,0-0.6,0-1,0.1c-0.3,0-0.4,0.1-0.4,0.5c0,0.3,0.1,0.5,0.1,0.8c0,0.7,0,1.4,0,2.1c0,3.3,0,6.6,0,9.8c0,3.5,0,7,0,10.5
	c0,0.2,0,0.4,0,0.6c0.1,0.5,0.2,0.6,0.7,0.6c0.9,0,1.9-0.1,2.8-0.1c0.8,0,1.7,0.1,2.5,0.1c5,0,10.1,0,15.1,0c1.7,0,3.3-0.1,5,0.1
	c0.2,0,0.3,0,0.5-0.1c0.6-0.2,1.2-0.1,1.8,0c0.9,0.1,1,0,1-0.9c0,0,0,0,0-0.1c0-2.9,0-5.8,0-8.7c0-4.8,0-9.5,0-14.3
	c0-1-0.1-1.1-1.1-1c-0.2,0-0.5,0.1-0.7,0.1c-0.3,0-0.7-0.1-1-0.1c-2.1,0-4.3,0-6.4,0c-0.3,0-0.6,0-1,0c-0.6-0.1-1-0.4-1.2-1
	c-0.1-0.4,0-0.7,0.4-0.9c0.4-0.2,0.8-0.3,1.2-0.2c1,0,2.1,0,3.2,0c2.7,0,5.4-0.1,8.2-0.1c1,0,2,0.1,3,0.1c2.7,0,5.3-0.1,8-0.1
	c2.3,0,4.6,0.2,6.9,0.1c1.5-0.1,3,0,4.4,0c2.7,0,5.4,0,8,0c0.3,0,0.6,0,0.8,0.1c0,0.7,0,1.4,0,2.1c-3.1,0-6.2,0-9.3,0
	c-0.5,0-1.1,0-1.6,0.1c-0.3,0-0.4,0.2-0.4,0.6c0,0.2,0.1,0.3,0.1,0.5c0.1,0.6,0.2,1.2,0.2,1.8c0,0.7,0,1.3,0,2c0,9.3,0,18.5,0,27.8
	c0,6.1,0,12.3,0,18.4c0,3.2,0.1,6.4-0.1,9.6c0,0.1,0,0.3,0,0.4c0,1.2,0.2,2.5,0.1,3.7c0,0.4,0.1,0.6,0.4,0.9
	c0.4,0.3,0.9,0.5,1.4,0.4c0.3-0.1,0.6-0.1,0.8-0.1c1.3,0,2.6,0,3.9,0c1.5,0,3,0.1,4.6,0.1C483.7,89.5,483.7,90.3,483.7,91z
	 M318.6,73.2c-0.2,0-0.4-0.1-0.7-0.1c-0.2,0-0.5,0-0.7-0.1c-0.8-0.1-1-0.3-1-1.1c0-1.7-0.1-3.4-0.1-5.1c0-0.6,0.1-1.1,0.6-1.5
	c0.2-0.2,0.3-0.4,0.4-0.7c0.1-0.6,0.5-1.2,1-1.6c0.5-0.5,1-1,1.5-1.4c0.2-0.2,0.5-0.4,0.8-0.5c0.4-0.1,0.8-0.3,1.1-0.6
	c0.3-0.3,0.7-0.5,1.2-0.5c0.3,0,0.6,0,0.8-0.1c0.6-0.1,1.2-0.1,1.8-0.3c0.8-0.3,1.6-0.4,2.5-0.2c0.4,0.1,0.8,0,1.2,0
	c0.4,0,0.8,0,1.2,0.1c0.3,0.1,0.6,0.2,0.9,0.3c0.4,0.1,0.5-0.1,0.5-0.5c0-0.1-0.1-0.3-0.2-0.4c-0.4-0.4-0.7-0.9-1.3-1
	c-0.5-0.1-1-0.4-1.3-0.9c-0.2-0.3-0.5-0.4-0.8-0.5c-0.3-0.1-0.7-0.3-0.9-0.5c-0.4-0.4-0.9-0.6-1.4-0.6c-0.5,0-1-0.1-1.4-0.4
	c-0.4-0.3-0.9-0.4-1.4-0.5c-0.7-0.1-1.5-0.2-2.2-0.4c-1.8-0.6-3.7-1-5.6-1.1c-0.6,0-1.2-0.2-1.7-0.6c-0.5-0.3-1.1-0.6-1.7-0.6
	c-1.2,0.1-1.8-0.7-2.5-1.4c-0.2-0.2-0.2-0.5,0-0.7c0.3-0.4,0.8-0.6,1.3-0.4c0.4,0.1,0.8,0.2,1.3,0.2c0.6,0,1.2,0.2,1.7,0.6
	c0.7,0.6,1.5,0.7,2.4,0.7c0.6,0,1.2,0.1,1.8,0.1c0.4,0,0.8,0,1.2,0c0.7-0.1,1.3-0.1,2-0.2c0.4-0.1,0.8-0.2,1.1-0.6
	c0.3-0.4,0.7-0.6,1.3-0.6c0.4,0,0.7-0.1,0.9-0.4c0.3-0.4,0.6-0.6,1-0.8c0.2-0.1,0.3-0.3,0.5-0.5c0.3-0.5,0.6-0.9,0.8-1.4
	c0.1-0.2,0.2-0.5,0.4-0.8c0.2-0.3,0.4-0.7,0.5-1c0.2-0.3,0.4-0.6,0.4-0.9c0.1-0.8,0.2-1.6,0.2-2.4c0-2.3,0-4.6,0-7
	c0-0.7-0.2-1.3-0.6-1.9c-0.2-0.3-0.3-0.6-0.4-0.9c-0.1-0.6-0.3-1-0.7-1.5c-0.1-0.2-0.3-0.3-0.3-0.5c-0.2-0.5-0.6-0.9-1-1.3
	c-0.1-0.1-0.2-0.2-0.3-0.3c-0.4-0.8-1.3-1.2-1.8-1.8c-0.1-0.1-0.2-0.1-0.3-0.2c-0.4-0.2-0.7-0.4-0.9-0.7c-0.2-0.2-0.5-0.3-0.7-0.4
	c-0.2-0.1-0.5,0-0.7-0.1c-0.3-0.1-0.6-0.2-0.8-0.4c-0.3-0.4-0.7-0.6-1.2-0.6c-0.3,0-0.6-0.1-0.8-0.1c-0.5,0-0.9-0.2-1.3-0.4
	c-0.3-0.2-0.7-0.3-1.1-0.4c-0.5-0.1-1-0.2-1.6-0.2c-2.1,0-4.2-0.1-6.3-0.1c-0.6,0-0.6,0.1-0.5,0.7c0.2,1,0.4,1.9,0.2,2.9
	c0,0.2,0,0.4,0,0.6c0,0.8,0,1.5,0,2.3c0,4.9,0,9.8,0,14.7c0,1.1-0.1,2.3-0.1,3.4c0,0.3,0,0.7,0.1,1c0,0.6,0.2,1.2,0.1,1.7
	c-0.1,1-0.2,2-0.2,3c0,0.7,0.1,1.4,0.1,2.1c0,7.2,0,14.4,0,21.6c0,2.2-0.1,4.3-0.1,6.5c0,0.6,0,1.3,0.1,1.9c0.1,0.8,0.2,1.6-0.1,2.3
	c-0.1,0.2,0,0.4,0,0.6c0.1,0.4,0.4,0.7,0.8,0.7c0.2,0,0.3,0,0.5,0c0.8-0.2,1.6-0.1,2.5-0.1c0.8,0.1,1.7,0,2.5-0.1c0.3,0,0.6,0,1,0
	c1.7,0.2,3.5,0,5.2-0.1c1.4-0.1,2.8-0.2,4.1-0.3c0.5,0,1-0.1,1.3-0.6c0.1-0.1,0.2-0.2,0.3-0.2c0.5-0.3,0.8-0.8,0.9-1.3
	c0.1-0.3,0.2-0.6,0.5-0.8c0.3-0.3,0.4-0.6,0.5-1c0.1-0.4,0.2-0.9,0.5-1.2c0.5-0.4,0.7-0.9,0.7-1.5c0-0.6,0.3-1,0.7-1.5
	c0.3-0.3,0.4-0.6,0.5-1c0.1-0.4,0.3-0.8,0.5-1.2c0.2-0.4,0.4-0.7,0.6-1.1c0.2-0.3,0.3-0.7,0.6-1c0.4-0.4,0.6-0.9,0.7-1.5
	c0.1-0.5,0.2-1,0.6-1.4c0.3-0.3,0.5-0.6,0.7-1.1c0.1-0.3,0.3-0.5,0.4-0.8c0.3-0.5,0.6-0.9,0.7-1.5c0-0.4,0.2-0.9,0.6-1.1
	c0.5-0.3,0.6-0.8,0.5-1.3c0-0.5,0-1.1,0.1-1.6c0.1-0.5,0-0.7-0.6-0.8c-0.3,0-0.6,0-0.9,0c-0.4,0-0.7-0.1-0.9-0.5
	c-0.2-0.3-0.5-0.6-0.9-0.6c-0.6,0-1.2-0.1-1.8,0c-0.9,0.1-1.8,0-2.7-0.3c-0.2-0.1-0.5-0.1-0.7,0c-0.8,0.2-1.6,0.2-2.4,0.1
	c-0.3,0-0.6,0.1-0.9,0.1c-0.3,0.1-0.6,0.1-0.9,0.2c-0.3,0.1-0.7,0.1-1,0.3c-0.5,0.3-0.9,0.6-1.4,1c-0.1,0.1-0.2,0.2-0.3,0.3
	c-0.3,0.4-0.7,0.7-1,1.1c-0.1,0.2-0.3,0.3-0.3,0.5c-0.1,0.6-0.1,1.3,0.1,1.9c0.1,0.3,0.2,0.7,0,1.1c-0.2,0.6-0.2,1.2,0.1,1.7
	C319,72.3,318.9,72.8,318.6,73.2z M116.8,68.5C116.8,68.5,116.8,68.5,116.8,68.5c1.1-0.1,2.1,0,3.2-0.1c0.5,0,0.9-0.1,1.2-0.4
	c0.3-0.3,0.7-0.6,1.1-0.7c0.4-0.1,0.4-0.5,0.1-0.7c-0.1-0.1-0.2-0.1-0.3-0.2c-0.4-0.1-0.5-0.4-0.6-0.8c0-0.3-0.1-0.5,0-0.8
	c0-0.4,0-0.7-0.5-0.9c-0.5-0.2-0.8-0.6-0.7-1.1c0-0.4-0.2-0.8-0.6-1c-0.4-0.3-0.6-0.7-0.6-1.2c0-0.2,0-0.4,0-0.6
	c0-0.3-0.1-0.5-0.4-0.7c-0.1-0.1-0.2-0.2-0.4-0.3c-0.3-0.2-0.4-0.5-0.4-0.9c0-0.2,0-0.5,0-0.7c0-0.3-0.2-0.5-0.4-0.6
	c-0.6-0.2-0.8-0.7-0.8-1.3c0.1-0.4-0.1-0.7-0.4-1c-0.5-0.3-0.7-0.7-0.7-1.3c0-0.4-0.2-0.7-0.5-0.9c-0.5-0.3-0.6-0.7-0.6-1.2
	c0-0.4-0.1-0.8-0.5-1c-0.6-0.4-0.7-0.9-0.7-1.5c0-0.4-0.2-0.8-0.6-1.1c-0.3-0.2-0.5-0.5-0.5-0.8c0-0.2,0-0.4,0-0.7
	c0-0.7,0-0.7-0.5-0.9c-0.1-0.1-0.2-0.1-0.3-0.2c-0.3-0.1-0.4-0.4-0.4-0.7c0-0.3,0.1-0.6,0.1-0.8c0-0.5-0.1-0.7-0.6-0.7
	c-0.5,0-1,0.1-1.4,0.2c-0.1,0-0.2,0.2-0.2,0.3c0,0.2,0,0.3,0,0.5c0,0.5-0.1,1.1-0.6,1.3c-0.6,0.2-0.8,0.6-0.7,1.2c0,0.1,0,0.3,0,0.4
	c0,0.4-0.2,0.7-0.5,0.9c-0.5,0.3-0.7,0.8-0.7,1.4c0,0.4-0.2,0.7-0.5,0.9c-0.4,0.3-0.6,0.7-0.6,1.2c0,0.6-0.2,1-0.6,1.4
	c-0.3,0.3-0.5,0.6-0.5,1c-0.1,0.5-0.3,0.9-0.7,1.2c-0.3,0.2-0.4,0.5-0.4,0.9c0,0.8-0.4,1.4-0.9,2c-0.2,0.2-0.3,0.5-0.4,0.7
	c-0.1,0.5-0.3,0.9-0.7,1.2c-0.3,0.3-0.4,0.6-0.5,0.9c0,0.3-0.1,0.6-0.2,0.8c-0.2,0.6-0.1,1,0.1,1.6c0.3,0.6,0.8,0.8,1.4,0.8
	c0.5,0,0.8,0.2,1.1,0.5c0.4,0.4,0.9,0.6,1.5,0.7c0.3,0,0.7,0.2,0.9,0.4c0.5,0.5,1.1,0.7,1.8,0.8c0.4,0,0.8,0.1,1.1,0.4
	c0.5,0.6,1.2,0.7,1.9,0.7c0.4,0,0.8,0.2,1.2,0.4c0.6,0.2,1.2,0.5,1.8,0.6C114.4,68.4,115.6,68.4,116.8,68.5z M241.1,68.5
	C241.1,68.5,241.1,68.5,241.1,68.5c0.2,0,0.5,0,0.7,0c0.8,0,1.6,0,2.4,0c0.4,0,0.9-0.1,1.2-0.4c0.4-0.3,0.8-0.6,1.3-0.7
	c0.2,0,0.3-0.2,0.4-0.4c0-0.2,0-0.4-0.3-0.6c-0.2-0.1-0.3-0.2-0.5-0.3c-0.4-0.2-0.5-0.5-0.5-1c0-0.1,0-0.2,0-0.2
	c0-0.4-0.1-0.7-0.5-0.9c-0.5-0.3-0.7-0.7-0.7-1.2c0-0.4-0.2-0.8-0.5-1.1c-0.5-0.3-0.6-0.7-0.6-1.2c0-0.2,0-0.4,0-0.6
	c0-0.3-0.1-0.5-0.4-0.6c-0.6-0.3-0.8-0.8-0.8-1.5c0-0.5-0.1-0.8-0.6-1c-0.5-0.2-0.7-0.7-0.6-1.2c0-0.1,0-0.1,0-0.2
	c0.1-0.4,0-0.8-0.5-1c-0.5-0.2-0.8-0.7-0.7-1.3c0.1-0.5-0.1-0.9-0.6-1.2c-0.4-0.3-0.6-0.6-0.6-1.1c0-0.5-0.2-1-0.6-1.3
	c-0.4-0.3-0.5-0.7-0.6-1.1c0-0.3-0.1-0.7-0.4-0.9c-0.7-0.4-0.9-1.1-0.8-1.8c0,0,0-0.1,0-0.1c0-0.3-0.1-0.5-0.4-0.6
	c-0.1-0.1-0.2-0.2-0.3-0.2c-0.5-0.2-0.6-0.5-0.5-1c0-0.3,0.1-0.7,0-1c0-0.3-0.2-0.5-0.6-0.5c-0.2,0-0.4,0.1-0.6,0.2
	c-0.2,0.1-0.3,0.2-0.5,0.2c-0.5,0.1-0.6,0.2-0.6,0.7c0,0.2,0,0.5-0.1,0.7c0,0.4-0.2,0.7-0.6,0.9c-0.4,0.2-0.6,0.6-0.5,1
	c0,0.5-0.1,1-0.6,1.3c-0.5,0.3-0.7,0.8-0.7,1.3c0,0.5-0.2,1-0.6,1.3c-0.4,0.3-0.5,0.7-0.6,1.2c-0.1,0.6-0.3,1.1-0.8,1.5
	c-0.2,0.2-0.3,0.4-0.4,0.7c0,0.5-0.3,0.8-0.6,1c-0.3,0.2-0.5,0.5-0.5,0.9c0,0.7-0.3,1.4-0.8,1.9c-0.3,0.3-0.5,0.7-0.5,1.2
	c0,0.6-0.3,1-0.7,1.4c-0.6,0.7-0.8,1.5-0.6,2.3c0.3,1.1,0.4,1.1,1.4,1.1c0.5,0,1,0.1,1.4,0.5c0.4,0.4,0.9,0.6,1.4,0.7
	c0.4,0.1,0.8,0.2,1,0.5c0.3,0.4,0.8,0.6,1.3,0.6c0.6,0.1,1.1,0.2,1.6,0.6c0.5,0.4,1.1,0.5,1.8,0.6c0.5,0.1,0.9,0.2,1.3,0.4
	c0.7,0.3,1.3,0.6,2,0.6C238.9,68.4,240,68.4,241.1,68.5z M357.9,68.5C357.9,68.5,357.9,68.5,357.9,68.5c1-0.1,1.9-0.1,2.9-0.1
	c0.3,0,0.7-0.1,0.9-0.3c0.3-0.4,0.7-0.6,1.1-0.9c0.3-0.2,0.4-0.7,0.2-1c-0.1-0.1-0.2-0.2-0.3-0.4c-0.3-0.3-0.6-0.6-0.6-1
	c-0.1-0.6-0.5-1.1-0.8-1.6c-0.2-0.3-0.4-0.6-0.5-1c-0.1-0.6-0.3-1.1-0.7-1.6c-0.2-0.2-0.3-0.5-0.4-0.8c-0.3-0.5-0.5-1-0.8-1.6
	c-0.1-0.3-0.3-0.5-0.4-0.8c-0.2-0.4-0.3-0.8-0.5-1c-0.4-0.4-0.5-0.8-0.6-1.3c-0.1-0.3-0.2-0.5-0.4-0.7c-0.7-0.4-0.9-1-0.8-1.7
	c0-0.1,0-0.1,0-0.2c0.1-0.6-0.2-1-0.6-1.3c-0.3-0.2-0.4-0.5-0.5-0.9c0-0.2,0-0.4-0.1-0.6c0-0.3-0.2-0.6-0.4-0.8
	c-0.5-0.3-0.7-0.8-0.7-1.3c0-0.4-0.2-0.8-0.6-1.1c-0.3-0.3-0.5-0.6-0.6-1.1c0-0.5-0.3-0.9-0.7-1.2c-0.4-0.3-0.5-0.6-0.5-1.1
	c0-0.3,0-0.7,0-1c0-0.1-0.1-0.3-0.3-0.4c-0.1,0-0.3,0.1-0.4,0.2c-0.2,0.2-0.3,0.4-0.4,0.6c-0.2,0.3-0.3,0.7-0.6,1
	c-0.5,0.4-0.7,0.9-0.7,1.6c0,0.5-0.2,0.9-0.6,1.1c-0.4,0.2-0.5,0.5-0.5,0.9c0,0.2,0,0.5-0.1,0.7c-0.1,0.2-0.2,0.6-0.4,0.7
	c-0.6,0.3-0.8,0.9-0.8,1.5c0,0.1,0,0.1,0,0.2c0,0.4-0.2,0.7-0.6,0.9c-0.4,0.2-0.6,0.5-0.6,1c0,0.6-0.2,1-0.7,1.3
	c-0.3,0.2-0.4,0.4-0.4,0.8c0,0.3,0,0.6,0,0.8c0,0.3-0.2,0.6-0.5,0.7c-0.5,0.2-0.7,0.7-0.7,1.2c0,0.6-0.3,1-0.7,1.3
	c-0.3,0.2-0.4,0.4-0.4,0.8c0,0.1,0,0.3,0,0.4c-0.1,0.4-0.2,0.8-0.6,1.1c-0.3,0.1-0.5,0.4-0.5,0.7c0,0.4,0,0.9,0.1,1.3
	c0.1,0.6,0.5,0.9,1.1,1c0.6,0.1,1.1,0.3,1.5,0.7c0.3,0.3,0.7,0.5,1.2,0.5c0.4,0,0.7,0.2,0.9,0.5c0.4,0.5,1,0.7,1.6,0.8
	c0.6,0,1.2,0.3,1.7,0.6c0.5,0.3,1.1,0.5,1.7,0.6c0.4,0.1,0.8,0.2,1.2,0.4c0.6,0.2,1.1,0.4,1.7,0.5C355,68.3,356.4,68.4,357.9,68.5z
	 M457.7,55.8C457.7,55.8,457.7,55.8,457.7,55.8c0-10.4,0-20.9,0-31.3c0-0.4,0-0.7-0.1-1.1c-0.1-0.5-0.3-0.6-0.8-0.6
	c-0.4,0-0.9,0-1.3,0c-0.6,0-1.1,0-1.7,0c-0.5,0-0.6,0.2-0.6,0.7c0,0.9,0.1,1.9,0.1,2.8c0,4.6,0,9.3,0,13.9c0,1.7,0,3.4,0,5.2
	c0,0.3,0,0.7,0,1c0,0.5,0,1,0,1.6c0,0.8,0,1.6,0,2.5c0,0.9,0,1.7,0,2.6c0,1.2-0.1,2.4-0.1,3.5c0,5.5,0,11.1,0,16.6c0,3.5,0,7,0,10.5
	c0,1.4,0,2.7,0,4.1c0,0.3,0,0.6,0.3,0.7c0.7,0.3,1.3,0.6,2.1,0.5c0.5-0.1,0.9-0.2,1.4-0.3c0.4-0.1,0.6-0.3,0.6-0.7
	c0-0.2,0-0.3,0-0.5c0-2,0-3.9,0-5.9C457.7,72.9,457.7,64.3,457.7,55.8z M123.8,27.4c0.1-0.4-0.1-0.7-0.5-1c-0.4-0.3-0.6-0.7-0.6-1.2
	c0-0.4-0.1-0.8-0.5-1c-0.5-0.3-0.8-0.7-0.7-1.3c0-0.6-0.2-1.1-0.8-1.3c-0.1,0-0.3-0.2-0.4-0.2c-0.8-0.3-1.1-0.4-1.1,0.7
	c0,0.7-0.2,1.3-0.7,1.7c-0.6,0.5-0.5,1.4,0,1.9c0.2,0.2,0.4,0.6,0.6,0.9c0.2,0.5,0.4,0.9,0.8,1.3c0.2,0.2,0.3,0.5,0.5,0.8
	c0.2,0.5,0.4,0.9,0.6,1.4c0.2,0.4,0.4,0.8,0.6,1.2c0.2,0.5,0.3,1.1,0.7,1.5c0.8,0.9,1,2,1.6,3c0.3,0.5,0.5,1,0.7,1.4
	c0.2,0.3,0.3,0.7,0.5,1c0.2,0.5,0.4,0.9,0.7,1.4c0.2,0.3,0.3,0.7,0.5,1c0.2,0.4,0.5,0.9,0.7,1.3c0.2,0.3,0.4,0.7,0.6,1
	c0.2,0.4,0.4,0.8,0.6,1.2c0.1,0.3,0.3,0.6,0.5,1c0.2,0.5,0.4,0.9,0.7,1.3c0.2,0.3,0.4,0.6,0.5,0.9c0.1,0.5,0.3,0.9,0.7,1.3
	c0.3,0.3,0.5,0.7,0.6,1.2c0.1,0.6,0.4,1.2,0.8,1.7c0.4,0.4,0.6,0.9,0.8,1.5c0.1,0.3,0.2,0.5,0.3,0.7c0.5,1,1,1.9,1.5,2.9
	c0.5,1,1,2,1.5,3c0.1,0.3,0.3,0.6,0.4,0.9c0.4,0.6,0.6,1.2,0.8,1.8c0.1,0.3,0.2,0.5,0.4,0.8c0.2,0.3,0.3,0.7,0.5,1
	c0.2,0.4,0.4,0.8,0.7,1.1c0.3,0.3,0.4,0.7,0.6,1.1c0.1,0.3,0.3,0.7,0.5,0.9c0.4,0.4,0.6,0.9,0.7,1.5c0.1,0.6,0.3,1.1,0.7,1.5
	c0.4,0.5,0.6,1,0.7,1.6c0,0.3,0.2,0.5,0.3,0.7c0.4,0.6,0.8,1.3,1.1,1.9c0.7,1.3,1.3,2.6,2,3.9c0.4,0.8,0.8,1.5,1.2,2.3
	c0.3,0.7,0.6,1.3,0.9,2c0.2,0.5,0.5,1,0.8,1.5c0.2,0.3,0.3,0.6,0.5,0.9c0.2,0.3,0.2,0.7,0.4,1c0.3,0.6,0.6,1.1,0.9,1.7
	c0.5,0.8,1.3,1.2,2.2,1c0.4-0.1,0.8-0.1,1.2,0.1c0.1,0,0.2,0.1,0.3,0.1c0.4,0.1,0.6,0,0.8-0.3c0.2-0.4,0.2-0.8-0.1-1.1
	c-0.1-0.2-0.3-0.4-0.5-0.6c-0.2-0.3-0.4-0.6-0.4-0.9c-0.1-0.6-0.3-1-0.7-1.4c-0.2-0.2-0.4-0.6-0.5-0.9c-0.1-0.5-0.3-0.9-0.7-1.3
	c-0.3-0.3-0.5-0.7-0.5-1.1c0-0.4-0.2-0.7-0.5-1c-0.4-0.4-0.6-0.8-0.7-1.4c-0.1-0.4-0.2-0.8-0.5-1.1c-0.4-0.4-0.6-0.8-0.6-1.4
	c0-0.5-0.2-0.8-0.6-1.1c-0.4-0.3-0.6-0.7-0.6-1.2c0-0.5-0.2-0.9-0.6-1.2c-0.3-0.3-0.5-0.6-0.6-1c-0.1-0.5-0.3-0.9-0.7-1.2
	c-0.3-0.3-0.5-0.6-0.5-1.1c0-0.5-0.2-1-0.6-1.3c-0.3-0.3-0.5-0.6-0.5-1c0-0.6-0.3-1-0.8-1.3c-0.3-0.2-0.5-0.5-0.4-0.9
	c0.1-0.7-0.2-1.1-0.7-1.5c-0.3-0.2-0.5-0.5-0.5-0.9c0-0.5-0.2-0.9-0.6-1.2c-0.4-0.3-0.6-0.7-0.6-1.2c0-0.5-0.2-1-0.6-1.3
	c-0.3-0.3-0.5-0.6-0.6-1.1c-0.1-0.5-0.3-0.9-0.7-1.3c-0.4-0.3-0.5-0.7-0.5-1.1c0-0.6-0.2-1-0.7-1.3c-0.3-0.2-0.5-0.5-0.5-0.9
	c0-0.6-0.2-1-0.7-1.3c-0.3-0.2-0.5-0.5-0.5-0.9c0-0.6-0.3-1.1-0.8-1.5c-0.3-0.2-0.4-0.5-0.4-0.9c0-0.6-0.2-1.1-0.8-1.4
	c-0.3-0.2-0.5-0.5-0.4-0.9c0.1-0.6-0.1-1.1-0.6-1.4c-0.4-0.2-0.6-0.5-0.6-0.9c0-0.4-0.1-0.8-0.5-1c-0.5-0.3-0.7-0.8-0.7-1.4
	c0-0.5-0.1-0.9-0.6-1.2c-0.4-0.2-0.6-0.6-0.6-1.1c0-0.6-0.1-1-0.6-1.4c-0.4-0.3-0.5-0.6-0.5-1.1c0.1-0.5-0.1-0.9-0.6-1.2
	c-0.4-0.2-0.7-0.6-0.7-1.1c0-0.4-0.2-0.7-0.5-1c-0.4-0.3-0.6-0.7-0.7-1.2c0-0.5-0.2-0.9-0.6-1.1c-0.3-0.2-0.4-0.4-0.5-0.7
	c0-0.2-0.1-0.4-0.1-0.7c-0.1-0.4-0.1-0.8-0.5-1C124,28.6,123.8,28.1,123.8,27.4z M245.9,22.8c0-0.2,0-0.3,0-0.4
	c0-0.5-0.2-0.7-0.6-0.9c-0.4-0.2-0.8-0.1-1.3,0c-0.4,0.1-0.5,0.2-0.5,0.6c0,0.3,0,0.5,0,0.8c0,0.5-0.2,0.9-0.6,1.1
	c-0.6,0.4-0.6,0.6-0.3,1.2c0.3,0.5,0.6,0.9,0.9,1.4c0.4,0.8,0.8,1.7,1.3,2.5c0.1,0.2,0.3,0.5,0.4,0.7c0.2,0.4,0.5,0.9,0.7,1.3
	c0.2,0.4,0.3,0.8,0.5,1.1c0.6,1.1,1.2,2.3,1.7,3.4c0.2,0.4,0.4,0.8,0.7,1.2c0.3,0.3,0.4,0.6,0.6,1c0.2,0.5,0.4,0.9,0.6,1.4
	c0.2,0.4,0.4,0.7,0.5,1.1c0.1,0.6,0.3,1.1,0.7,1.5c0.1,0.1,0.2,0.2,0.2,0.3c0.4,1,1,1.8,1.3,2.8c0.4,1.1,1.1,2.1,1.5,3.1
	c0.1,0.2,0.2,0.4,0.4,0.6c0.3,0.4,0.5,0.8,0.6,1.2c0.1,0.5,0.4,0.9,0.6,1.3c0.2,0.5,0.5,0.9,0.7,1.4c0.4,0.8,0.7,1.5,1.1,2.3
	c0.2,0.3,0.4,0.6,0.6,0.9c0.2,0.3,0.4,0.6,0.5,1c0.1,0.5,0.3,0.9,0.6,1.3c0.2,0.3,0.4,0.6,0.5,0.9c0.2,0.6,0.4,1.2,0.8,1.7
	c0.2,0.2,0.3,0.5,0.4,0.7c0.2,0.7,0.5,1.3,0.9,1.9c0.1,0.2,0.2,0.4,0.3,0.6c0.6,1.2,1.3,2.4,1.9,3.6c0.1,0.3,0.3,0.6,0.5,0.8
	c0.3,0.5,0.5,1,0.8,1.5c0.2,0.3,0.3,0.7,0.5,1c0.2,0.4,0.3,0.7,0.5,1.1c0.3,0.4,0.5,0.9,0.6,1.4c0.1,0.4,0.3,0.8,0.6,1.1
	c0.3,0.2,0.5,0.6,0.6,0.9c0.1,0.5,0.2,0.9,0.6,1.3c0.3,0.3,0.5,0.7,0.6,1.2c0,0.5,0.2,0.9,0.7,1.2c0.2,0.2,0.4,0.5,0.5,0.8
	c0.2,0.7,0.4,1.4,0.9,2.1c0.2,0.2,0.3,0.5,0.3,0.8c0.1,0.5,0.3,0.9,0.6,1.3c0.2,0.3,0.4,0.8,0.6,1.1c0.1,0.3,0.2,0.7,0.4,0.9
	c0.4,0.5,0.7,1,0.9,1.6c0.3,0.8,1.1,1.4,1.9,1.2c0.6-0.1,1.2-0.1,1.8,0.2c0.2,0.1,0.5,0,0.6-0.2c0.2-0.3,0.4-0.6,0.2-0.9
	c-0.1-0.3-0.3-0.6-0.5-0.9c-0.4-0.4-0.6-0.9-0.6-1.5c0-0.4-0.1-0.7-0.5-1c-0.3-0.2-0.6-0.5-0.6-1c0-0.6-0.3-1-0.7-1.3
	c-0.3-0.2-0.5-0.5-0.5-0.9c0-0.7-0.4-1.2-0.8-1.8c-0.2-0.2-0.3-0.5-0.4-0.8c-0.1-0.6-0.4-1.1-0.7-1.6c-0.1-0.2-0.3-0.5-0.4-0.7
	c-0.1-0.5-0.4-0.9-0.8-1.2c-0.3-0.2-0.5-0.5-0.5-0.9c0-0.7-0.3-1.2-0.7-1.7c-0.2-0.2-0.4-0.6-0.5-0.9c-0.2-0.4-0.3-0.8-0.5-1.1
	c-0.2-0.4-0.4-0.8-0.6-1.2c-0.2-0.4-0.3-0.8-0.6-1.1c-0.3-0.4-0.6-0.9-0.6-1.4c-0.1-0.5-0.3-0.8-0.6-1.1c-0.3-0.3-0.5-0.7-0.5-1.1
	c0-0.5-0.2-0.9-0.5-1.2c-0.2-0.3-0.5-0.7-0.7-1c-0.3-0.5-0.5-1.1-0.7-1.6c-0.1-0.3-0.3-0.5-0.4-0.7c-0.1-0.5-0.4-0.9-0.7-1.2
	c-0.4-0.4-0.5-0.8-0.6-1.3c0-0.4-0.2-0.8-0.5-1c-0.4-0.3-0.6-0.7-0.6-1.2c0-0.5-0.2-0.9-0.6-1.3c-0.2-0.3-0.5-0.6-0.6-1
	c-0.2-0.4-0.4-0.8-0.7-1.1c-0.4-0.4-0.6-0.8-0.5-1.3c0-0.5-0.1-0.9-0.6-1.2c-0.4-0.3-0.6-0.7-0.6-1.2c0-0.5-0.2-0.9-0.6-1.2
	c-0.4-0.3-0.6-0.7-0.6-1.2c0-0.5-0.2-0.9-0.6-1.2c-0.4-0.3-0.6-0.6-0.6-1.1c-0.1-0.5-0.3-1-0.7-1.5c-0.2-0.2-0.3-0.5-0.4-0.8
	c-0.2-0.5-0.4-1-0.8-1.4c-0.3-0.3-0.4-0.6-0.4-1c0-0.5-0.2-0.9-0.6-1.2c-0.4-0.3-0.6-0.6-0.5-1.1c0.1-0.6-0.1-1-0.6-1.3
	c-0.3-0.2-0.5-0.5-0.5-0.9c-0.1-0.5-0.3-1-0.7-1.3c-0.4-0.3-0.6-0.7-0.5-1.2c0-0.1,0-0.1,0-0.2c0-0.4-0.1-0.7-0.5-0.9
	c-0.5-0.3-0.7-0.7-0.7-1.2c0-0.1,0-0.1,0-0.2c0-0.5-0.2-0.8-0.6-1c-0.5-0.3-0.7-0.7-0.6-1.2c0.1-0.5-0.1-0.8-0.5-1
	c-0.5-0.3-0.8-0.7-0.7-1.3c0-0.1,0-0.2,0-0.2c0-0.4-0.2-0.7-0.5-0.9C245.9,23.8,245.7,23.4,245.9,22.8z M361.9,21.7
	c0-0.1,0-0.2,0-0.4c0-0.1,0-0.1,0-0.2c-0.1-0.2-0.3-0.4-0.5-0.2c-0.7,0.5-1.3,1.1-1.6,2c-0.5,1.5-0.5,1.5-0.2,3c0,0.2,0,0.3,0.1,0.5
	c0.1,0.2,0.1,0.4,0.3,0.5c0.5,0.4,0.6,0.9,0.7,1.4c0.1,0.4,0.2,0.7,0.5,1c0.4,0.4,0.6,0.8,0.7,1.3c0.1,0.4,0.2,0.8,0.5,1
	c0.4,0.4,0.6,0.8,0.7,1.4c0.1,0.4,0.2,0.7,0.5,1c0.4,0.4,0.6,0.8,0.7,1.3c0.1,0.3,0.3,0.7,0.5,1c0.3,0.4,0.5,0.8,0.6,1.3
	c0.1,0.4,0.2,0.8,0.5,1.1c0.4,0.4,0.7,0.9,0.7,1.5c0.1,0.4,0.2,0.7,0.5,1c0.4,0.3,0.6,0.7,0.7,1.2c0.1,0.4,0.3,0.8,0.5,1
	c0.3,0.4,0.5,0.7,0.6,1.2c0.1,0.4,0.2,0.7,0.5,1c0.4,0.4,0.6,0.9,0.7,1.4c0.1,0.4,0.2,0.9,0.5,1.2c0.3,0.3,0.5,0.7,0.6,1.2
	c0.1,0.3,0.2,0.7,0.4,1c0.5,0.4,0.7,1,0.8,1.6c0.1,0.4,0.3,0.7,0.5,1c0.3,0.4,0.5,0.7,0.6,1.2c0.1,0.3,0.3,0.7,0.5,1
	c0.4,0.4,0.6,0.8,0.7,1.3c0.1,0.4,0.2,0.8,0.5,1.1c0.4,0.4,0.6,0.9,0.7,1.4c0.1,0.4,0.2,0.8,0.5,1c0.4,0.3,0.5,0.7,0.6,1.1
	c0.1,0.4,0.2,0.8,0.5,1.1c0.4,0.4,0.6,0.8,0.7,1.4c0.1,0.3,0.2,0.7,0.5,0.9c0.4,0.4,0.6,0.8,0.7,1.3c0.1,0.4,0.2,0.9,0.5,1.2
	c0.3,0.3,0.5,0.7,0.6,1.1c0.1,0.4,0.2,0.8,0.5,1.1c0.4,0.4,0.6,0.8,0.7,1.3c0.1,0.5,0.3,0.9,0.7,1.3c0.2,0.2,0.3,0.5,0.4,0.8
	c0.2,0.6,0.4,1.1,0.8,1.5c0.2,0.2,0.4,0.6,0.4,0.9c0.1,0.6,0.3,1.1,0.7,1.6c0.2,0.2,0.3,0.6,0.4,0.9c0.2,0.5,0.3,1.1,0.8,1.5
	c0.2,0.2,0.3,0.5,0.4,0.8c0.2,0.5,0.3,1,0.7,1.4c0.2,0.2,0.3,0.5,0.4,0.8c0.2,0.4,0.4,0.7,0.6,1.1c0.3,0.5,0.6,0.9,0.7,1.5
	c0.1,0.4,0.2,0.8,0.4,1.1c0.5,0.6,0.8,1.3,1,2c0.2,0.8,1.1,1.6,2.1,1.4c0.5-0.1,0.9-0.1,1.4,0.1c0.2,0.1,0.4,0.1,0.5,0.1
	c0.3,0,0.5-0.1,0.5-0.4c0-0.8,0-1.6-0.8-2.2c-0.2-0.2-0.4-0.4-0.4-0.7c0-0.2,0-0.3-0.1-0.5c0-0.5-0.2-0.9-0.6-1.1
	c-0.3-0.2-0.4-0.4-0.5-0.7c0-0.2-0.1-0.4-0.1-0.7c0-0.4-0.1-0.8-0.6-1.1c-0.4-0.2-0.6-0.6-0.6-1.1c0-0.6-0.2-1-0.6-1.3
	c-0.4-0.2-0.5-0.6-0.5-1c0-0.5-0.2-0.9-0.6-1.1c-0.4-0.3-0.6-0.7-0.7-1.2c-0.1-0.4-0.3-0.9-0.5-1.2c-0.3-0.4-0.5-0.7-0.5-1.1
	c-0.1-0.5-0.2-0.9-0.6-1.2c-0.4-0.3-0.6-0.7-0.6-1.2c0-0.4-0.1-0.8-0.5-1c-0.5-0.3-0.7-0.8-0.8-1.4c0-0.4-0.2-0.7-0.5-0.9
	c-0.5-0.4-0.6-0.8-0.7-1.4c0-0.4-0.2-0.8-0.6-1.1c-0.4-0.3-0.5-0.7-0.6-1.2c0-0.2,0-0.4-0.1-0.6c-0.1-0.2-0.2-0.5-0.4-0.7
	c-0.5-0.3-0.7-0.8-0.7-1.4c0-0.4-0.2-0.8-0.5-1c-0.4-0.3-0.6-0.7-0.6-1.2c0-0.4-0.2-0.8-0.5-1c-0.5-0.4-0.7-0.9-0.7-1.4
	c-0.1-0.4-0.2-0.7-0.5-0.9c-0.4-0.3-0.6-0.8-0.6-1.3c-0.1-0.5-0.3-0.9-0.6-1.2c-0.2-0.2-0.3-0.5-0.4-0.7c-0.1-0.2-0.1-0.4-0.1-0.7
	c-0.1-0.4-0.1-0.8-0.5-1c-0.5-0.3-0.7-0.7-0.7-1.2c0-0.5-0.2-0.9-0.6-1.1c-0.3-0.2-0.5-0.5-0.5-0.9c0-0.5-0.3-1-0.7-1.3
	c-0.3-0.2-0.4-0.5-0.5-0.9c0-0.2,0-0.5-0.1-0.7c-0.1-0.3-0.2-0.7-0.5-0.9c-0.5-0.4-0.6-0.8-0.7-1.4c0-0.4-0.2-0.8-0.5-1
	c-0.4-0.3-0.6-0.7-0.7-1.2c0-0.4-0.2-0.8-0.6-1.1c-0.3-0.3-0.5-0.6-0.6-1c-0.1-0.4-0.3-0.9-0.5-1.2c-0.4-0.5-0.6-1.1-0.8-1.7
	c-0.1-0.2-0.2-0.5-0.3-0.7c-0.5-0.4-0.7-1-0.7-1.6c0-0.3-0.2-0.7-0.5-0.9c-0.4-0.3-0.6-0.7-0.6-1.1c0-0.5-0.3-0.8-0.6-1.1
	c-0.3-0.3-0.5-0.6-0.6-1.1c-0.1-0.4-0.2-0.8-0.5-1c-0.4-0.4-0.7-0.9-0.7-1.4c0-0.5-0.3-0.9-0.7-1.3c-0.3-0.2-0.5-0.5-0.5-0.9
	c0-0.2-0.1-0.4-0.1-0.6c0-0.3-0.1-0.6-0.4-0.8C362,22.9,361.8,22.4,361.9,21.7z M419.1,54.2C419.1,54.2,419.2,54.2,419.1,54.2
	c0.1-0.4,0.1-0.9,0.1-1.3c0-2.1,0-4.2,0-6.4c0-5,0-10.1,0-15.1c0-2,0.1-4,0.1-6c0-0.7,0-1.3,0-2c0-0.6-0.1-0.7-0.7-0.7
	c-0.8,0-1.5,0-2.3,0c-0.1,0-0.2,0-0.3,0c-0.9,0.1-1,0.3-1,1.1c0,0.1,0,0.3,0,0.4c0,1.9,0,3.8,0,5.7c0,16.3,0,32.6,0,48.8
	c0,3-0.1,6,0,8.9c0,0.5,0.2,0.8,0.7,1c1,0.4,2,0.2,3,0c0.4-0.1,0.6-0.3,0.6-0.7c0-0.4,0.1-0.9,0-1.3c-0.1-1.3-0.2-2.6-0.1-3.9
	c0-0.1,0-0.1,0-0.2c0-8.2,0-16.4,0-24.5C419.1,56.7,419.1,55.4,419.1,54.2z M300,54C300,54,299.9,54,300,54c0,1.5,0,3,0,4.5
	c0,8.4,0,16.8,0,25.2c0,1.3,0,2.6,0,3.9c0,0.6,0.2,0.8,0.7,1c0.2,0.1,0.4,0.1,0.6,0.2c0.5,0.2,0.9,0.2,1.4-0.1
	c0.2-0.1,0.4-0.2,0.6-0.3c0.6-0.2,0.8-0.6,0.8-1.2c0-1.2,0-2.5,0-3.7c0-1.4,0-2.8,0-4.3c0-10.6,0-21.2,0-31.8c0-3.6,0-7.2,0-10.7
	c0-2.8,0-5.7,0-8.5c0-1.6,0.2-3.3,0.1-4.9c0-0.6-0.1-0.8-0.7-0.7c-0.7,0.1-1.4-0.1-2.1,0c-0.4,0-0.7,0.1-1,0.2
	c-0.2,0-0.4,0.2-0.4,0.4c-0.1,0.5-0.2,1-0.2,1.6c0,0.9,0.1,1.9,0.1,2.8C300,36.4,300,45.2,300,54z M194.2,56.8
	C194.2,56.8,194.2,56.8,194.2,56.8c0-0.7,0-1.4,0-2.1c0-1.8,0-3.7,0-5.5c0-7,0-13.9,0-20.9c0-0.9,0-1.7,0-2.6c0-0.8-0.5-1.5-1.2-1.7
	c-0.8-0.2-1.7-0.3-2.5-0.1c-0.7,0.1-0.8,0.3-0.7,1c0,0.3,0.1,0.5,0.1,0.8c0,1.8,0,3.6,0,5.3c0,12.3,0,24.6,0,37c0,6.5-0.1,13,0,19.6
	c0,0.3,0.1,0.6,0.4,0.8c0.4,0.2,0.8,0.4,1.3,0.4c0.7,0,1.3-0.1,2-0.2c0.5-0.1,0.6-0.2,0.7-0.7c0-0.1,0-0.3,0-0.4c0-1.9,0-3.7,0-5.6
	c0-4.5,0-8.9,0-13.4C194.2,64.6,194.2,60.7,194.2,56.8z M45.4,55.9c0-0.9,0-1.8,0-2.7c0-6.6,0-13.2,0-19.7c0-3.3,0-6.6-0.1-10
	c0-0.7-0.1-0.8-0.9-0.8c-0.4,0-0.8,0-1.2,0c-0.5,0-0.9,0.1-1.4,0.2c-0.2,0-0.3,0.2-0.4,0.4c-0.1,0.5-0.1,1-0.1,1.6
	c0,0.5,0.1,1,0.1,1.5c0,1.1,0,2.1,0,3.2c0,15.8,0,31.7,0,47.5c0,3.4,0,6.7,0,10.1c0,0.5,0,0.9,0.1,1.4c0.2,0.8,0.5,1,1.3,0.9
	c0.4,0,0.8,0,1.2,0c0.2,0,0.3,0,0.5,0c0.4,0,0.6-0.2,0.7-0.6c0-0.3,0.1-0.5,0.1-0.8c0-2.8,0-5.6,0-8.4
	C45.4,71.7,45.4,63.8,45.4,55.9z M291.4,55.7C291.4,55.7,291.4,55.7,291.4,55.7c0-1.4,0-2.8,0-4.2c0-9.2,0-18.4-0.1-27.7
	c0-0.3,0-0.6-0.1-0.8c0-0.2-0.2-0.4-0.4-0.4c-0.1,0-0.3,0-0.4,0c-0.5,0-0.9,0-1.4,0c-0.5,0-0.9,0-1.4,0.1c-0.5,0.1-0.6,0.2-0.5,0.7
	c0.1,0.4,0.2,0.9,0.2,1.3c0,1.2,0,2.4,0,3.6c0,7.7,0,15.4,0,23.1c0,10,0,19.9,0,29.9c0,1.6-0.1,3.3,0.1,4.9c0,0.4,0,0.7-0.1,1.1
	c-0.2,0.6,0,0.9,0.5,1.2c0.9,0.5,1.9,0.3,2.9,0.3c0.4,0,0.6-0.3,0.6-0.7c0-0.2,0-0.5,0-0.7c0-2,0-4,0-6
	C291.4,72.9,291.4,64.3,291.4,55.7z M406.3,55.8C406.3,55.8,406.3,55.8,406.3,55.8c0-9.6,0-19.3,0-28.9c0-1.1,0-2.3-0.1-3.4
	c0-0.7-0.2-0.8-0.9-0.8c-0.4,0-0.9,0-1.3,0c-0.4,0-0.9,0-1.3,0.1c-0.4,0-0.5,0.3-0.5,0.6c0.1,1.3,0.1,2.5,0.1,3.8
	c0,8.3,0,16.5,0,24.8c0,11.9,0.1,23.7-0.1,35.6c0,0.2,0.1,0.6,0.2,0.7c0.5,0.4,1,0.7,1.7,0.6c0.3-0.1,0.7-0.1,1-0.1
	c1-0.1,1.2-0.2,1.2-1.3c0-2,0-3.9,0-5.9C406.3,73,406.3,64.4,406.3,55.8z M467.7,22.7C467.7,22.7,467.7,22.6,467.7,22.7
	c-0.2,0-0.4,0-0.6,0c-0.1,0-0.3,0-0.4,0c-0.4,0.1-0.6,0.3-0.6,0.6c0,0.4,0,0.8,0,1.2c0,0.3,0.1,0.6,0.1,0.8c0,1,0,2.1,0,3.1
	c0,2.1,0,4.1,0,6.2c0,1.7,0,3.4,0,5.1c0,1.8,0,3.6,0,5.5c0,1.7,0,3.4,0,5.1c0,2.2,0,4.4,0,6.6c0,2.1,0,4.1,0,6.2c0,2.6,0,5.2,0,7.9
	c0,2.3,0,4.7,0,7c0,1.7,0,3.5,0,5.2c0,1.6-0.1,3.2-0.1,4.7c0,0.1,0,0.3,0,0.4c0,0.4,0.2,0.6,0.6,0.5c0.6-0.1,1.2-0.1,1.8-0.1
	c1,0,1.5-0.4,1.6-1.4c0-0.8,0.1-1.6,0-2.4c0-1.6,0-3.1,0-4.7c0-6.9,0-13.8,0-20.6c0-10.4,0-20.8,0-31.2c0-1.3-0.1-2.5-0.1-3.8
	c0-0.4,0-0.9,0-1.3c0.1-0.6,0-0.7-0.6-0.7C469,22.7,468.4,22.7,467.7,22.7z M181.2,55.6c0-6,0-12,0-17.9c0-3.9,0-7.8,0-11.7
	c0-0.9,0-1.9-0.1-2.8c0-0.9-0.4-1.4-1.4-1.4c-0.1,0-0.2,0-0.3,0c-0.6,0-1.2-0.1-1.8-0.1c-0.3,0-0.5,0.2-0.5,0.5c0,0.2,0,0.4,0,0.6
	c0,0.7,0.2,1.3,0.1,2c-0.1,0.8-0.1,1.6-0.1,2.4c0,1.8,0,3.7,0,5.5c0,15.4,0,30.8,0,46.3c0,1.3,0,2.7,0,4c0,1.5,0.2,3.1-0.1,4.6
	c-0.1,0.9,0.8,1.7,1.6,1.4c0.5-0.2,0.9-0.2,1.4-0.1c0.9,0.2,1,0,1.1-0.9c0,0,0-0.1,0-0.1c0-1.6,0-3.2,0-4.8c0-2.6,0-5.2,0-7.8
	C181.2,68.6,181.2,62.1,181.2,55.6z M32.4,55.8C32.4,55.8,32.4,55.8,32.4,55.8c0-8.9,0-17.8,0-26.7c0-1.9,0-3.8,0-5.7
	c0-0.7-0.1-0.8-0.8-0.7c-0.1,0-0.2,0-0.2,0c-0.3,0.1-0.6,0.1-1,0c-0.3-0.1-0.6,0-0.9,0c-0.3,0-0.5,0.2-0.6,0.5
	c0,0.6-0.1,1.2-0.1,1.8c0,1,0.1,1.9,0.1,2.9c0,3,0,6,0,9.1c0,3,0,6,0,9.1c0,3.2,0,6.5,0,9.7c0,3,0,6,0,9.1c0,3,0,6,0,9.1
	c0,3,0,6,0,9c0,0.3-0.1,0.5-0.1,0.8c0,0.3-0.1,0.6,0,0.9c0,0.7,0.1,1.3-0.1,1.9c-0.1,0.2,0,0.4,0,0.6c0,0.4,0.1,0.9,0.1,1.3
	c0,0.2,0,0.4,0.1,0.7c0.1,0.4,0.3,0.5,0.7,0.4c0.1,0,0.2,0,0.3-0.1c0.4-0.2,0.8-0.1,1.2,0c0.1,0,0.2,0.1,0.3,0.1
	c0.4,0.1,0.6,0.1,0.7-0.4c0.1-0.4,0.2-0.8,0.2-1.3c0-1.7,0-3.4,0-5.1C32.4,73.7,32.4,64.8,32.4,55.8z M114.4,36.7c0-0.2,0-0.4,0-0.6
	c-0.1-0.4-0.6-0.5-1.1-0.4c-0.2,0.1-0.4,0.1-0.6,0.2c-0.4,0-0.5,0.1-0.5,0.5c0,0.3,0,0.6,0,0.8c-0.1,0.4-0.2,0.8-0.7,1
	c-0.4,0.1-0.6,0.5-0.4,0.9c0.1,0.2,0.2,0.4,0.3,0.6c0.2,0.4,0.5,0.7,0.7,1.1c0.2,0.3,0.3,0.7,0.6,1c0.4,0.6,0.7,1.3,0.7,2
	c0,0.4,0.2,0.7,0.5,0.8c0.3,0.1,0.4,0.4,0.5,0.6c0.1,0.2,0.1,0.5,0.2,0.7c0.1,0.2,0.2,0.6,0.3,0.7c0.5,0.4,0.6,0.8,0.8,1.4
	c0.1,0.4,0.3,0.8,0.7,1.2c0.2,0.2,0.3,0.5,0.4,0.8c0.1,0.2,0.1,0.5,0.1,0.8c0.1,0.4,0.2,0.7,0.6,1c0.2,0.1,0.3,0.3,0.4,0.5
	c0.1,0.3,0.1,0.6,0.2,0.9c0.1,0.4,0.1,0.8,0.6,1c0.1,0.1,0.2,0.2,0.3,0.4c0.1,0.3,0.2,0.5,0.3,0.8c0.1,0.4,0.2,0.7,0.6,1
	c0.2,0.1,0.3,0.3,0.3,0.5c0.1,0.3,0.2,0.6,0.2,0.9c0.1,0.4,0.2,0.8,0.6,1.1c0.2,0.1,0.3,0.4,0.4,0.6c0.1,0.3,0.2,0.5,0.2,0.8
	c0.1,0.3,0.2,0.6,0.5,0.8c0.3,0.2,0.5,0.6,0.5,1c0,0.2,0.1,0.4,0.1,0.7c0.1,0.3,0.2,0.5,0.5,0.7c0.2,0.1,0.3,0.3,0.4,0.6
	c0.3,0.6,0.4,1.2,0.9,1.6c0.1,0.1,0.1,0.2,0.1,0.2c0.1,0.4,0.2,0.8,0.3,1.2c0.1,0.4,0.2,0.8,0.5,1.1c0.5,0.3,0.6,0.8,0.7,1.3
	c0,0.2,0,0.5,0,0.7c0,0.3,0.1,0.4,0.3,0.5c0.5,0.1,0.6,0.4,0.7,0.8c0.1,0.3,0.1,0.6,0.1,0.9c0,0.3,0.1,0.5,0.4,0.5
	c0.3,0.1,0.5,0.3,0.6,0.6c0.1,0.2,0.1,0.4,0.2,0.5c0.1,0.4,0.3,0.8,0.6,1.1c0.2,0.2,0.4,0.6,0.4,0.9c0.1,0.3,0.1,0.7,0.1,1.1
	c0,0.3,0.1,0.4,0.4,0.5c0.5,0.1,0.7,0.5,0.8,1c0.1,0.3,0.1,0.5,0.2,0.8c0.1,0.2,0.2,0.4,0.4,0.6c0.2,0.1,0.3,0.4,0.4,0.6
	c0.1,0.3,0.1,0.7,0.2,1c0.1,0.3,0.1,0.7,0.5,0.8c0.2,0.1,0.3,0.2,0.4,0.4c0.1,0.3,0.2,0.6,0.3,1c0.1,0.3,0.1,0.7,0.4,0.9
	c0.4,0.2,0.6,0.6,0.7,1c0.1,0.3,0.2,0.7,0.4,1c0.4,0.4,0.6,0.9,0.8,1.5c0.1,0.5,0.4,0.7,0.9,0.7c0.6,0,1.2,0.1,1.9,0.1
	c0.3,0,0.7,0.1,1,0.1c0.3,0,0.6,0,0.7-0.3c0.2-0.3,0.1-0.5-0.1-0.7c-0.1-0.1-0.2-0.2-0.3-0.4c-0.4-0.4-0.6-0.8-0.7-1.3
	c-0.1-0.3-0.2-0.7-0.4-0.9c-0.4-0.4-0.6-0.9-0.7-1.4c0-0.5-0.2-0.9-0.6-1.2c-0.3-0.2-0.4-0.6-0.5-1c-0.1-0.4-0.3-0.8-0.5-1.1
	c-0.4-0.4-0.6-0.8-0.6-1.3c-0.1-0.5-0.3-0.9-0.6-1.3c-0.3-0.3-0.5-0.7-0.5-1.1c0-0.6-0.3-1-0.7-1.3c-0.3-0.3-0.5-0.6-0.4-1
	c0.1-0.6-0.1-1-0.6-1.3c-0.3-0.2-0.4-0.5-0.6-0.8c-0.1-0.4-0.3-0.8-0.5-1c-0.4-0.4-0.6-0.9-0.6-1.4c-0.1-0.5-0.3-0.9-0.6-1.3
	c-0.3-0.3-0.5-0.6-0.5-1c-0.1-0.6-0.3-1.1-0.8-1.5c-0.3-0.3-0.5-0.6-0.4-1c0.1-0.6-0.2-1-0.6-1.3c-0.3-0.2-0.5-0.6-0.5-0.9
	c-0.1-0.4-0.2-0.8-0.5-1.1c-0.4-0.3-0.6-0.7-0.6-1.2c-0.1-0.5-0.3-0.9-0.6-1.3c-0.3-0.3-0.5-0.7-0.5-1.1c-0.1-0.4-0.2-0.8-0.6-1.1
	c-0.4-0.3-0.6-0.8-0.6-1.3c0-0.5-0.2-1-0.7-1.3c-0.3-0.2-0.4-0.5-0.5-0.9c-0.1-0.4-0.3-0.8-0.5-1.1c-0.3-0.4-0.6-0.8-0.6-1.3
	c-0.1-0.5-0.2-0.9-0.6-1.2c-0.4-0.4-0.6-0.8-0.6-1.3c-0.1-0.4-0.2-0.8-0.5-1c-0.4-0.3-0.6-0.8-0.7-1.3c0-0.5-0.2-0.9-0.6-1.2
	c-0.3-0.3-0.5-0.6-0.5-1.1c-0.1-0.4-0.2-0.9-0.6-1.1c-0.4-0.4-0.6-0.8-0.7-1.4c0-0.5-0.2-0.9-0.5-1.2c-0.3-0.3-0.5-0.7-0.5-1.1
	c-0.1-0.5-0.3-1-0.8-1.3C114.5,37.6,114.3,37.2,114.4,36.7z M238.7,36.8c0-0.1,0-0.2,0-0.2c0-0.9-0.4-1.2-1.3-0.9
	c-0.2,0.1-0.4,0.1-0.5,0.1c-0.4,0-0.6,0.3-0.5,0.6c0,0.2,0.1,0.5,0.1,0.7c0.1,0.7-0.1,1-0.8,1.2c-0.4,0.1-0.5,0.4-0.4,0.8
	c0.1,0.2,0.2,0.4,0.3,0.5c0.4,0.3,0.6,0.8,0.8,1.2c0.1,0.3,0.3,0.7,0.5,1c0.4,0.6,0.7,1.2,0.9,1.8c0.1,0.3,0.3,0.5,0.4,0.8
	c0.2,0.4,0.4,0.9,0.5,1.3c0.1,0.4,0.2,0.7,0.5,1c0.4,0.3,0.5,0.7,0.7,1.1c0.1,0.4,0.3,0.8,0.5,1.2c0.2,0.4,0.4,0.7,0.6,1.1
	c0.2,0.3,0.3,0.7,0.5,1c0.5,0.6,0.8,1.2,0.8,2c0,0.2,0.1,0.6,0.3,0.7c0.5,0.4,0.7,1,0.8,1.6c0.1,0.4,0.2,0.7,0.6,1
	c0.2,0.1,0.3,0.4,0.4,0.7c0.2,0.5,0.4,1.1,0.8,1.5c0.2,0.2,0.3,0.6,0.4,0.9c0.1,0.2,0.1,0.4,0.2,0.7c0.1,0.3,0.2,0.6,0.5,0.8
	c0.3,0.3,0.5,0.6,0.6,1.1c0,0.3,0.1,0.7,0.2,1c0,0.2,0.2,0.4,0.3,0.4c0.4,0.2,0.5,0.5,0.6,0.8c0.1,0.2,0.1,0.5,0.1,0.7
	c0.1,0.3,0.1,0.6,0.3,0.7c0.5,0.3,0.6,0.7,0.8,1.1c0.1,0.4,0.4,0.8,0.7,1.2c0.2,0.3,0.4,0.6,0.5,0.9c0.2,0.4,0.2,0.8,0.5,1.1
	c0.5,0.6,0.7,1.2,0.9,1.9c0,0.3,0.2,0.5,0.4,0.7c0.2,0.3,0.4,0.5,0.5,0.8c0.1,0.3,0.1,0.6,0.2,0.9c0.1,0.3,0.2,0.5,0.4,0.7
	c0.3,0.2,0.4,0.5,0.5,0.8c0.1,0.3,0.1,0.5,0.2,0.8c0.1,0.3,0.1,0.7,0.5,0.9c0.4,0.2,0.5,0.6,0.6,1c0.1,0.3,0.1,0.7,0.2,1
	c0,0.2,0.1,0.4,0.4,0.5c0.3,0.1,0.5,0.4,0.6,0.8c0.1,0.3,0.1,0.5,0.1,0.8c0,0.4,0.1,0.7,0.5,0.9c0.1,0,0.3,0.2,0.3,0.4
	c0.1,0.3,0.2,0.6,0.3,0.9c0.1,0.4,0.1,0.8,0.6,1.1c0.2,0.1,0.3,0.3,0.4,0.5c0.1,0.2,0.2,0.5,0.2,0.8c0.1,0.4,0.2,0.7,0.6,1
	c0.1,0.1,0.2,0.3,0.3,0.5c0.1,0.2,0.2,0.4,0.3,0.6c0.2,0.4,0.5,0.7,0.9,0.8c0.4,0.1,0.8,0.2,1.2,0.1c0.6-0.1,1.2-0.1,1.7,0.1
	c0.3,0.1,0.5,0,0.7-0.3c0.2-0.3,0.2-0.5,0-0.8c-0.1-0.2-0.3-0.4-0.4-0.5c-0.3-0.3-0.5-0.7-0.6-1.1c-0.1-0.5-0.2-1-0.6-1.4
	c-0.3-0.2-0.4-0.6-0.4-0.9c0-0.6-0.3-1-0.7-1.4c-0.3-0.3-0.4-0.6-0.5-0.9c-0.1-0.3-0.3-0.7-0.5-1c-0.4-0.4-0.6-0.9-0.6-1.4
	c0-0.5-0.2-1-0.6-1.3c-0.4-0.3-0.5-0.7-0.5-1.1c0-0.6-0.2-1-0.7-1.4c-0.3-0.3-0.5-0.6-0.5-1c0-0.5-0.1-1-0.6-1.2
	c-0.4-0.2-0.5-0.6-0.6-1c-0.1-0.4-0.3-0.8-0.6-1.1c-0.3-0.3-0.5-0.6-0.5-1c-0.1-0.6-0.4-1.2-0.8-1.6c-0.3-0.3-0.4-0.6-0.4-1
	c0-0.6-0.2-1.1-0.7-1.5c-0.3-0.2-0.4-0.5-0.4-0.8c-0.1-0.6-0.3-1.1-0.7-1.5c-0.3-0.2-0.4-0.6-0.5-0.9c-0.1-0.4-0.3-0.8-0.6-1.1
	c-0.4-0.4-0.6-0.9-0.6-1.4c0-0.5-0.2-1-0.6-1.3c-0.3-0.2-0.4-0.5-0.5-0.9c-0.1-0.6-0.3-1.1-0.8-1.5c-0.3-0.2-0.4-0.5-0.4-0.9
	c0-0.5-0.2-1-0.7-1.4c-0.3-0.3-0.4-0.6-0.6-1c-0.1-0.4-0.3-0.8-0.6-1.1c-0.3-0.3-0.5-0.7-0.6-1.1c-0.1-0.6-0.3-1-0.7-1.4
	c-0.3-0.3-0.5-0.7-0.5-1.1c0-0.5-0.2-1-0.6-1.3c-0.3-0.3-0.5-0.6-0.5-1c-0.1-0.5-0.2-0.9-0.6-1.2c-0.3-0.3-0.5-0.7-0.6-1.1
	c-0.1-0.4-0.3-0.8-0.6-1.1c-0.3-0.4-0.6-0.8-0.6-1.3c0-0.5-0.2-1-0.6-1.3c-0.3-0.3-0.5-0.6-0.5-1.1c-0.1-0.5-0.2-1-0.7-1.3
	C238.8,37.7,238.6,37.3,238.7,36.8z M379,88.9c0.3,0,0.5,0,0.8,0c0.6,0,0.8-0.3,0.8-0.8c0-0.5-0.3-0.9-0.6-1.3
	c-0.2-0.3-0.4-0.6-0.5-0.9c-0.1-0.6-0.4-1.1-0.7-1.6c-0.2-0.3-0.4-0.6-0.4-0.9c-0.1-0.5-0.4-1-0.7-1.4c-0.2-0.3-0.4-0.6-0.5-0.9
	c-0.1-0.2-0.2-0.3-0.2-0.5c-0.4-0.7-0.9-1.4-1.1-2.3c-0.1-0.4-0.4-0.8-0.6-1.2c-0.1-0.2-0.3-0.5-0.3-0.7c-0.1-0.6-0.4-1-0.7-1.5
	c-0.2-0.3-0.3-0.5-0.4-0.8c-0.1-0.6-0.4-1-0.8-1.5c-0.2-0.3-0.4-0.6-0.5-0.9c-0.2-0.6-0.4-1.1-0.8-1.6c-0.1-0.2-0.2-0.4-0.3-0.6
	c-0.2-0.4-0.4-0.9-0.7-1.3c-0.4-0.4-0.5-0.9-0.6-1.5c-0.1-0.4-0.3-0.9-0.6-1.2c-0.2-0.3-0.4-0.6-0.5-1c-0.2-0.5-0.4-1-0.8-1.5
	c-0.2-0.2-0.3-0.4-0.4-0.7c-0.2-0.5-0.4-0.9-0.7-1.4c-0.2-0.4-0.4-0.8-0.6-1.2c-0.2-0.4-0.4-0.9-0.7-1.3c-0.2-0.3-0.4-0.6-0.4-1
	c-0.1-0.5-0.4-1-0.7-1.4c-0.2-0.3-0.4-0.5-0.4-0.8c-0.1-0.6-0.4-1-0.8-1.5c-0.2-0.3-0.4-0.6-0.4-0.9c-0.1-0.6-0.4-1.1-0.7-1.5
	c-0.2-0.2-0.4-0.5-0.4-0.8c-0.1-0.5-0.4-1-0.7-1.4c-0.2-0.3-0.4-0.6-0.5-1c-0.1-0.5-0.4-1-0.7-1.4c-0.2-0.2-0.4-0.5-0.4-0.8
	c-0.1-0.5-0.4-1-0.7-1.4c-0.3-0.3-0.4-0.7-0.6-1.2c-0.2-0.6-0.4-1.1-0.8-1.5c-0.1-0.2-0.2-0.3-0.3-0.5c-0.2-0.4-0.3-0.8-0.6-1.2
	c-0.4-0.6-0.6-1.2-0.8-1.8c-0.1-0.4-0.2-0.7-0.5-1c-0.4-0.4-0.6-0.8-0.6-1.3c0-0.1,0-0.2,0-0.3c0-0.3-0.2-0.4-0.5-0.5
	c-0.3,0-0.6,0.1-0.6,0.4c-0.3,0.9-0.9,1.5-1.3,2.4c-0.1,0.3-0.2,0.6-0.1,0.9c0.1,0.5,0.1,1,0.3,1.5c0.1,0.3,0.2,0.6,0.4,0.8
	c0.4,0.3,0.6,0.8,0.7,1.2c0.1,0.3,0.2,0.6,0.4,0.8c0.5,0.5,0.7,1.1,0.7,1.8c0,0.4,0.2,0.8,0.6,1c0.4,0.3,0.5,0.7,0.6,1.1
	c0,0.2,0,0.4,0.1,0.6c0,0.3,0.2,0.6,0.5,0.7c0.4,0.2,0.5,0.5,0.6,0.9c0.1,0.2,0,0.4,0.1,0.6c0.1,0.2,0.2,0.5,0.4,0.6
	c0.4,0.2,0.6,0.6,0.7,1c0.1,0.4,0.1,0.7,0.2,1.1c0,0.1,0.2,0.3,0.3,0.4c0.5,0.2,0.6,0.6,0.7,1.1c0,0.2,0,0.5,0,0.7
	c0,0.4,0.1,0.6,0.4,0.7c0.5,0.1,0.6,0.5,0.7,0.9c0,0.3,0.1,0.6,0.1,0.8c0.1,0.2,0.1,0.4,0.3,0.6c0.4,0.3,0.6,0.8,0.8,1.3
	c0.1,0.3,0.2,0.6,0.5,0.8c0.4,0.3,0.6,0.7,0.7,1.2c0.1,0.4,0.3,0.9,0.5,1.3c0.2,0.5,0.4,1,0.7,1.5c0.1,0.3,0.2,0.7,0.4,0.9
	c0.4,0.5,0.6,1.1,0.8,1.7c0.1,0.3,0.2,0.6,0.4,0.8c0.3,0.3,0.5,0.6,0.6,1c0.2,0.4,0.3,0.8,0.6,1.2c0.3,0.5,0.5,1,0.7,1.5
	c0.1,0.3,0.2,0.6,0.4,0.8c0.5,0.5,0.6,1,0.8,1.6c0.1,0.3,0.2,0.6,0.4,0.8c0.4,0.5,0.7,1,0.8,1.6c0.1,0.3,0.2,0.6,0.4,0.8
	c0.4,0.4,0.6,0.9,0.8,1.4c0.1,0.3,0.3,0.6,0.5,0.9c0.3,0.4,0.6,0.7,0.7,1.2c0.2,0.5,0.4,1.1,0.6,1.6c0.2,0.4,0.4,0.7,0.5,1.1
	c0.1,0.4,0.3,0.7,0.7,1c0.2,0.2,0.4,0.5,0.5,0.8c0.1,0.2,0.1,0.4,0.1,0.6c0,0.4,0.2,0.6,0.5,0.8c0.4,0.2,0.6,0.5,0.6,0.9
	c0,0.2,0,0.3,0,0.5c0,0.8,0,0.8,0.8,1c0.1,0,0.1,0,0.2,0.1C377.5,88.9,378.2,89,379,88.9z M336.1,73.4c0-0.2,0-0.3-0.1-0.4
	c-0.1-0.3-0.4-0.5-0.7-0.5c-0.2,0-0.3,0.2-0.4,0.6c0,0.2,0,0.5-0.1,0.7c-0.1,0.4-0.3,0.9-0.5,1.2c-0.1,0.2-0.3,0.4-0.3,0.6
	c-0.2,0.8-0.5,1.5-1,2c-0.2,0.2-0.3,0.5-0.3,0.7c-0.1,0.6-0.3,1-0.7,1.4c-0.3,0.3-0.5,0.7-0.5,1.2c0,0.4-0.1,0.8-0.4,1.1
	c-0.2,0.3-0.4,0.6-0.5,0.9c-0.3,0.5-0.5,1.1-1,1.5c-0.2,0.2-0.4,0.5-0.3,0.8c0.1,0.4,0.3,0.5,0.6,0.3c0.2-0.2,0.4-0.4,0.7-0.6
	c1-0.8,1.9-1.7,2.7-2.8c0.2-0.3,0.4-0.6,0.4-0.9c0.1-0.5,0.3-1,0.8-1.3c0.4-0.3,0.6-0.7,0.5-1.2c0-0.3,0-0.6,0-0.9
	c0-0.3,0.1-0.7,0.2-1c0.5-0.9,0.7-1.8,0.9-2.8C336,73.8,336,73.6,336.1,73.4z M77.2,69.5c0.1,0.2,0.2,0.4,0.3,0.5
	c0.2,0.2,0.4,0.1,0.6,0c0.3-0.2,0.6-0.4,0.8-0.6c0.8-0.8,1.6-1.5,2.4-2.3c0.2-0.2,0.3-0.5,0.5-0.7c0.2-0.3,0.4-0.5,0.6-0.7
	c0.2-0.3,0.5-0.5,0.6-0.8c0.3-0.5,0.1-0.8-0.4-0.9c-0.1,0-0.1,0-0.2-0.1c-0.7-0.3-1.3,0-1.8,0.6c-0.1,0.1-0.2,0.3-0.4,0.3
	c-0.7,0.2-1.1,0.7-1.6,1.2c-0.4,0.3-0.5,0.7-0.6,1.1c-0.1,0.5-0.3,1-0.5,1.4C77.4,68.8,77.3,69.1,77.2,69.5z"/>
<path d="M214.4,70.1c-0.1,0.2-0.2,0.4-0.3,0.7c-0.2,0.4-0.3,0.7-0.4,1.1c-0.1,0.5-0.3,0.9-0.7,1.2c-0.3,0.2-0.5,0.5-0.8,0.7
	c-0.3,0.4-0.7,0.6-1.2,0.8c-0.1,0-0.1,0-0.2,0.1c-1.9,0.5-1.2,0.5-3.3,0.1c-0.7-0.1-1.3-0.5-1.8-0.9c-0.7-0.6-1.2-1.3-1.5-2.2
	c-0.2-0.4-0.4-0.8-0.6-1.2c-0.1-0.3-0.1-0.6,0.1-0.9c0.4-0.6,0.7-1.2,0.9-1.8c0.1-0.2,0.2-0.3,0.4-0.5c0.4-0.3,0.7-0.6,0.9-1.1
	c0.1-0.3,0.4-0.5,0.7-0.7c0.3-0.2,0.5-0.4,0.8-0.4c1.6-0.3,3.1-0.2,4.6,0.4c0.5,0.2,0.8,0.6,1.1,1c0.4,0.8,0.9,1.6,1.1,2.5
	C214.3,69.3,214.3,69.6,214.4,70.1z"/>
<path d="M330.6,69.9c0,0.9-0.1,1.5-0.5,2.1c-0.1,0.1-0.2,0.2-0.3,0.3c-0.4,0.3-0.6,0.6-0.8,1c-0.4,0.8-1.1,1.3-2,1.4
	c-0.4,0-0.8,0.1-1.2,0.3c-0.4,0.2-0.9,0.2-1.3,0c-0.5-0.2-1-0.4-1.4-0.6c-0.2-0.1-0.4-0.1-0.4-0.2c-0.3-0.5-0.8-0.7-1.3-1
	c-0.3-0.2-0.5-0.5-0.7-0.9c-0.1-0.4-0.3-0.7-0.4-1.1c-0.2-0.4-0.3-0.9-0.2-1.3c0.1-0.7,0.3-1.5,0.5-2.2c0.1-0.5,0.6-0.7,0.9-1.1
	c0.1-0.2,0.3-0.4,0.4-0.6c0.2-0.3,0.5-0.6,0.9-0.7c1-0.2,2-0.5,3-0.5c1,0,1.9,0.3,2.7,0.8c0.1,0.1,0.2,0.1,0.3,0.2
	c0.6,0.8,1.4,1.5,1.6,2.6C330.4,69,330.5,69.5,330.6,69.9z"/>
<g>
	<path d="M418.2,105.8c0.6,0.3,1.4,0.6,2.3,0.6c1.1,0,1.8-0.5,1.8-1.3c0-0.7-0.5-1.2-1.7-1.6c-1.6-0.6-2.6-1.4-2.6-2.8
		c0-1.6,1.3-2.8,3.4-2.8c1.1,0,1.8,0.2,2.3,0.5l-0.4,1.4c-0.3-0.2-1-0.5-1.9-0.5c-1.1,0-1.6,0.6-1.6,1.2c0,0.7,0.6,1.1,1.9,1.6
		c1.7,0.6,2.5,1.5,2.5,2.9c0,1.6-1.2,2.9-3.7,2.9c-1,0-2.1-0.3-2.6-0.6L418.2,105.8z"/>
	<path d="M427.6,98.7c0,0.5-0.4,1-1,1c-0.6,0-1-0.4-1-1c0-0.5,0.4-1,1-1C427.2,97.8,427.6,98.2,427.6,98.7z M425.7,107.7v-7h1.8v7
		H425.7z"/>
	<path d="M429.4,102.8c0-0.8,0-1.5-0.1-2.1h1.6l0.1,1.1h0c0.3-0.5,1.1-1.2,2.2-1.2c1.2,0,2.5,0.8,2.5,3v4.2H434v-4
		c0-1-0.4-1.8-1.3-1.8c-0.7,0-1.2,0.5-1.4,1c-0.1,0.2-0.1,0.4-0.1,0.6v4.1h-1.8V102.8z"/>
	<path d="M442.8,107.5c-0.4,0.2-1.1,0.4-2,0.4c-2.2,0-3.6-1.4-3.6-3.6c0-2.1,1.4-3.7,3.9-3.7c0.6,0,1.3,0.1,1.7,0.3l-0.3,1.3
		c-0.3-0.1-0.7-0.3-1.3-0.3c-1.4,0-2.2,1-2.1,2.3c0,1.4,0.9,2.3,2.1,2.3c0.6,0,1.1-0.1,1.4-0.3L442.8,107.5z"/>
	<path d="M445.2,104.7c0,1.3,1,1.8,2.2,1.8c0.8,0,1.4-0.1,1.9-0.3l0.3,1.2c-0.6,0.2-1.4,0.4-2.4,0.4c-2.3,0-3.6-1.4-3.6-3.5
		c0-1.9,1.2-3.8,3.4-3.8c2.3,0,3,1.9,3,3.4c0,0.3,0,0.6-0.1,0.7H445.2z M448.3,103.5c0-0.6-0.3-1.7-1.5-1.7c-1.1,0-1.6,1-1.6,1.7
		H448.3z"/>
	<path d="M456.8,99.9L456.8,99.9l-1.7,0.9l-0.3-1.3l2.3-1.1h1.5v9.4h-1.7V99.9z"/>
	<path d="M462.5,106.4c0.3,0,0.5,0,1,0c0.7-0.1,1.4-0.3,1.9-0.7c0.6-0.5,1-1.2,1.2-2.1l0,0c-0.5,0.5-1.1,0.8-2,0.8
		c-1.6,0-2.8-1.2-2.8-2.9c0-1.8,1.4-3.3,3.4-3.3c2.2,0,3.3,1.7,3.3,4c0,2-0.7,3.4-1.6,4.3c-0.8,0.8-1.9,1.2-3.2,1.3
		c-0.4,0-0.8,0-1.1,0V106.4z M463.4,101.4c0,1,0.6,1.7,1.5,1.7c0.7,0,1.2-0.3,1.5-0.8c0.1-0.1,0.1-0.3,0.1-0.5
		c0-1.3-0.5-2.4-1.6-2.4C464,99.5,463.4,100.3,463.4,101.4z"/>
	<path d="M469.3,105.3c0-1.2,0.7-2,1.8-2.4v0c-1-0.5-1.4-1.3-1.4-2.1c0-1.5,1.4-2.6,3.1-2.6c2,0,2.9,1.2,2.9,2.4
		c0,0.8-0.4,1.6-1.4,2.1v0c1,0.4,1.8,1.2,1.8,2.4c0,1.7-1.4,2.8-3.4,2.8C470.5,107.9,469.3,106.6,469.3,105.3z M474.3,105.2
		c0-1-0.7-1.5-1.7-1.8c-0.9,0.3-1.4,0.9-1.4,1.6c0,0.8,0.6,1.5,1.6,1.5C473.7,106.6,474.3,106,474.3,105.2z M471.4,100.7
		c0,0.8,0.6,1.2,1.5,1.5c0.6-0.2,1.2-0.7,1.2-1.4c0-0.6-0.4-1.3-1.3-1.3C471.8,99.4,471.4,100,471.4,100.7z"/>
	<path d="M483.6,98.4v1.1l-4,8.2h-1.9l3.9-7.9v0h-4.4v-1.5H483.6z"/>
</g>
</svg>
