<?xml version="1.0" encoding="utf-8"?>
<!-- Generator: Adobe Illustrator 22.1.0, SVG Export Plug-In . SVG Version: 6.00 Build 0)  -->
<svg version="1.2" baseProfile="tiny" id="Layer_1" xmlns="http://www.w3.org/2000/svg" xmlns:xlink="http://www.w3.org/1999/xlink"
	 x="0px" y="0px" viewBox="0 0 145.5 54.2" xml:space="preserve">
<g>
	<g>
		<path d="M7.3,37.6l6.7,9.2h-4L3.8,38H3.2v8.8H0V25.3h3.8c2.8,0,4.9,0.5,6.2,1.6c1.4,1.2,2.1,2.8,2.1,4.7c0,1.5-0.4,2.8-1.3,3.9
			S8.7,37.3,7.3,37.6z M3.2,35.1h1c3.1,0,4.6-1.2,4.6-3.5c0-2.2-1.5-3.3-4.5-3.3H3.2V35.1z"/>
		<path d="M12.5,39.9c0-2,0.7-3.6,2.1-5c1.4-1.4,3.1-2.1,5.1-2.1c2,0,3.7,0.7,5.2,2.1C26.3,36.3,27,38,27,40c0,2-0.7,3.7-2.1,5.1
			c-1.4,1.4-3.1,2-5.2,2c-2,0-3.7-0.7-5.1-2.1C13.2,43.7,12.5,42,12.5,39.9z M15.7,39.9c0,1.4,0.4,2.4,1.1,3.2
			c0.7,0.8,1.7,1.2,2.9,1.2c1.2,0,2.2-0.4,2.9-1.2c0.7-0.8,1.1-1.8,1.1-3.2s-0.4-2.4-1.1-3.2c-0.7-0.8-1.7-1.2-2.9-1.2
			c-1.2,0-2.2,0.4-2.9,1.2C16.1,37.7,15.7,38.7,15.7,39.9z"/>
		<path d="M28.5,33.2l3.5,7.6l3.5-7.6h3.5l-7,14.5l-7-14.5H28.5z"/>
		<path d="M37.9,27.6c0-0.5,0.2-1,0.6-1.4c0.4-0.4,0.9-0.6,1.4-0.6c0.6,0,1,0.2,1.4,0.6c0.4,0.4,0.6,0.9,0.6,1.4
			c0,0.6-0.2,1-0.6,1.4c-0.4,0.4-0.9,0.6-1.4,0.6c-0.6,0-1-0.2-1.4-0.6S37.9,28.1,37.9,27.6z M41.5,33.2v13.6h-3.1V33.2H41.5z"/>
		<path d="M42.6,33.2h3.1v1.3c1.1-1.1,2.3-1.6,3.7-1.6c1.6,0,2.8,0.5,3.7,1.5c0.8,0.8,1.1,2.2,1.1,4.1v8.3h-3.1v-7.6
			c0-1.3-0.2-2.3-0.6-2.8c-0.4-0.5-1-0.8-2-0.8c-1,0-1.8,0.3-2.2,1c-0.4,0.7-0.6,1.9-0.6,3.6v6.5h-3.1V33.2z"/>
		<path d="M68.5,46.5c0,0.6,0,1.2-0.1,1.7c0,0.5-0.1,0.9-0.2,1.3c-0.2,1-0.7,1.9-1.3,2.6c-1.2,1.4-2.9,2.1-5.1,2.1
			c-1.8,0-3.3-0.5-4.5-1.5c-1.2-1-1.9-2.4-2.1-4.2h3.1c0.1,0.7,0.3,1.2,0.6,1.5c0.6,0.8,1.6,1.3,2.8,1.3c2.3,0,3.4-1.4,3.4-4.2v-1.9
			c-1.2,1.3-2.7,1.9-4.3,1.9c-1.8,0-3.4-0.7-4.5-2c-1.2-1.4-1.8-3-1.8-5.1c0-2,0.6-3.7,1.7-5c1.2-1.5,2.8-2.2,4.7-2.2
			c1.7,0,3.1,0.6,4.3,1.9v-1.5h3.1V46.5z M65.5,40c0-1.3-0.4-2.4-1.1-3.2c-0.7-0.8-1.6-1.2-2.7-1.2c-1.2,0-2.1,0.4-2.8,1.3
			c-0.6,0.8-0.9,1.8-0.9,3.1c0,1.2,0.3,2.2,0.9,3c0.7,0.9,1.6,1.3,2.8,1.3s2.1-0.4,2.8-1.3C65.2,42.3,65.5,41.3,65.5,40z"/>
		<path d="M73.4,33.7h9.3v-8.4h3.2v21.5h-3.2v-10h-9.3v10h-3.2V25.3h3.2V33.7z"/>
		<path d="M100,40.7h-9.7c0.1,1.1,0.4,2,1.1,2.7c0.6,0.6,1.5,1,2.5,1c0.8,0,1.4-0.2,1.9-0.6c0.5-0.4,1.1-1.1,1.7-2.1l2.6,1.5
			c-0.4,0.7-0.8,1.3-1.3,1.8c-0.5,0.5-0.9,0.9-1.5,1.2s-1.1,0.6-1.7,0.7s-1.3,0.2-2,0.2c-2,0-3.6-0.6-4.9-1.9
			c-1.2-1.3-1.8-3-1.8-5.2c0-2.1,0.6-3.9,1.8-5.2c1.2-1.3,2.8-2,4.8-2c2,0,3.6,0.6,4.7,1.9c1.2,1.3,1.7,3,1.7,5.2L100,40.7z
			 M96.8,38.2c-0.4-1.7-1.5-2.5-3.2-2.5c-0.4,0-0.7,0.1-1.1,0.2c-0.3,0.1-0.6,0.3-0.9,0.5c-0.3,0.2-0.5,0.5-0.7,0.8
			c-0.2,0.3-0.3,0.7-0.4,1H96.8z"/>
		<path d="M100.1,27.6c0-0.5,0.2-1,0.6-1.4c0.4-0.4,0.9-0.6,1.4-0.6c0.6,0,1,0.2,1.4,0.6c0.4,0.4,0.6,0.9,0.6,1.4
			c0,0.6-0.2,1-0.6,1.4c-0.4,0.4-0.9,0.6-1.4,0.6s-1-0.2-1.4-0.6C100.3,28.6,100.1,28.1,100.1,27.6z M103.7,33.2v13.6h-3.1V33.2
			H103.7z"/>
		<path d="M117.9,46.5c0,0.6,0,1.2-0.1,1.7c0,0.5-0.1,0.9-0.2,1.3c-0.2,1-0.7,1.9-1.3,2.6c-1.2,1.4-2.9,2.1-5.1,2.1
			c-1.8,0-3.3-0.5-4.5-1.5c-1.2-1-1.9-2.4-2.1-4.2h3.1c0.1,0.7,0.3,1.2,0.6,1.5c0.7,0.8,1.6,1.3,2.8,1.3c2.3,0,3.4-1.4,3.4-4.2v-1.9
			c-1.2,1.3-2.7,1.9-4.3,1.9c-1.8,0-3.4-0.7-4.5-2c-1.2-1.4-1.8-3-1.8-5.1c0-2,0.6-3.7,1.7-5c1.2-1.5,2.8-2.2,4.7-2.2
			c1.7,0,3.1,0.6,4.3,1.9v-1.5h3.1V46.5z M114.9,40c0-1.3-0.4-2.4-1.1-3.2c-0.7-0.8-1.6-1.2-2.7-1.2c-1.2,0-2.1,0.4-2.8,1.3
			c-0.6,0.8-0.9,1.8-0.9,3.1c0,1.2,0.3,2.2,0.9,3c0.7,0.9,1.6,1.3,2.8,1.3s2.1-0.4,2.8-1.3C114.6,42.3,114.9,41.3,114.9,40z"/>
		<path d="M119,23.3h3.1v11.1c1.1-1,2.3-1.5,3.7-1.5c1.5,0,2.8,0.5,3.7,1.5c0.8,0.9,1.2,2.2,1.2,4.1v8.3h-3.1v-8
			c0-1.1-0.2-1.9-0.6-2.4c-0.4-0.5-1-0.7-1.9-0.7c-1.1,0-1.9,0.3-2.3,1c-0.4,0.7-0.7,1.9-0.7,3.5v6.6H119V23.3z"/>
		<path d="M135,36.1v10.6h-3.1V36.1h-1.3v-2.9h1.3v-5h3.1v5h2.4v2.9H135z"/>
		<path d="M144.6,35.5l-2.6,1.4c-0.4-0.8-0.9-1.3-1.5-1.3c-0.3,0-0.5,0.1-0.7,0.3s-0.3,0.4-0.3,0.7c0,0.5,0.6,1,1.8,1.5
			c1.7,0.7,2.8,1.4,3.4,2c0.6,0.6,0.9,1.4,0.9,2.4c0,1.3-0.5,2.4-1.4,3.3c-0.9,0.8-2.1,1.3-3.4,1.3c-2.3,0-3.9-1.1-4.8-3.3l2.7-1.2
			c0.4,0.7,0.7,1.1,0.8,1.2c0.4,0.4,0.8,0.5,1.4,0.5c1.1,0,1.6-0.5,1.6-1.4c0-0.6-0.4-1.1-1.2-1.6c-0.3-0.2-0.6-0.3-0.9-0.5
			c-0.3-0.1-0.6-0.3-1-0.5c-0.9-0.4-1.5-0.9-1.9-1.3c-0.5-0.6-0.7-1.3-0.7-2.2c0-1.2,0.4-2.2,1.2-2.9c0.8-0.8,1.8-1.2,3-1.2
			C142.5,32.8,143.8,33.7,144.6,35.5z"/>
	</g>
	<rect x="70.2" width="3.3" height="38.5"/>
	<rect x="59.4" y="7.1" width="3.3" height="13.5"/>
	<rect x="64.6" y="8.9" width="3.3" height="16.1"/>
	<rect x="75.7" y="5.2" width="3.3" height="17"/>
</g>
</svg>
