<?xml version="1.0" encoding="utf-8"?>
<!-- Generator: Adobe Illustrator 22.1.0, SVG Export Plug-In . SVG Version: 6.00 Build 0)  -->
<svg version="1.2" baseProfile="tiny" id="Layer_1" xmlns:sketch="http://www.bohemiancoding.com/sketch/ns"
	 xmlns="http://www.w3.org/2000/svg" xmlns:xlink="http://www.w3.org/1999/xlink" x="0px" y="0px" viewBox="0 0 80 34"
	 xml:space="preserve">
<title>W&amp;S Logo Copy</title>
<desc>Created with Sketch.</desc>
<g id="Page-1" sketch:type="MSPage">
	<g id="Home-links" transform="translate(-66.000000, -72.000000)" sketch:type="MSArtboardGroup">
		<g id="W_x26_S-Logo-Copy" transform="translate(66.000000, 72.000000)" sketch:type="MSLayerGroup">
			<path id="Fill-1" sketch:type="MSShapeGroup" fill="#B9B9B9" d="M0,13c17-4.2,28.8-6.6,35.9-7.4c1.7-0.2,3-0.4,4-0.5
				C40.3,5.1,40.7,5,41,5c-1.4,2.2-5,3.8-10.8,4.7C17.2,11.1,7.3,12.2,0,13"/>
			<path id="Fill-3" sketch:type="MSShapeGroup" fill="#B9B9B9" d="M42.4,29c-2.5-0.5-4.6-2.1-5.4-4.4c-1-2.8-0.1-6.2,3.1-8.5
				c0.4-0.3,0.9-0.7,1.3-1c2.6,6.3,6,10,8.5,12.1C47.7,28.6,45.2,29.4,42.4,29 M69,12.7c-3.7-0.7-6.7-1.3-9-2
				c-2.3-0.7-4.5-1.3-5.5-4l0-0.1l0-0.1c-0.2-1.5,0.4-2.5,0.8-3C56,2.7,57,2.2,58.2,2.2c1.4,0,2.9,0.6,3.5,1.9
				c0.1,0.3,0.3,0.9,0,1.7c0.4,0.2,1,0.3,1.6,0.3c0.8,0,1.7-0.2,2.5-0.7c0.5-0.3,1.3-0.9,1.3-1.5c-0.1-0.7-1.1-1.8-2.9-2.4
				c-1.8-0.5-3.7-0.8-5.4-0.8c-4.7,0-7.9,1.8-8.6,3.7c-0.4,0.9-1,2.4,0.7,4.2c1.1,1,1.8,1.6,4,2.6c0.6,0.2,1.2,0.5,1.9,0.8
				c1.1,0.4,2.2,0.9,3.4,1.5c1.1,0.5,4.9,2.2,5.8,2.8c4.1,2.5,6.1,6.2,5.3,9.5c-0.5,2.5-5.4,8-15.7,2.4c2.7-2.7,3.8-5.7,3.1-8.7
				c-0.7-3-3.3-6.1-7.7-4.8c6-0.7,5.2,6.4,0.7,10.9c-5.6-3.5-8.9-8.2-9.9-10.9c2.6-2.3,4-4.3,4.7-5.8c4.3-7.6,0-8.9-1.6-8.8
				c-2.4,0.1-7.1,2.8-3.8,12.2c-0.4-1-0.9-6.4,1.6-9c2.1-2.2,6.9-0.1,2.4,6.4c-4.5,6.9-15.2,6.1-14.6,16.1c0,0.2,0.1,0.5,0.1,0.7
				c-1.7,2.1-4.4,4.7-7.2,4.5c-0.8-0.2-1.4-0.4-1.8-1c-0.4-0.9-1.3-2.1,1.9-6.5c1.5-2.4,3.8-5.9,6-9.3l2.9-4.5
				c1.5-2.3,1.8-5.5,0.8-7.4c-0.5-1-1.3-1.5-2.3-1.5c-0.9,0-2.3,0.4-4.5,1.9c0.7,0.8,0.8,2.2,0.4,4.3c-0.8,3.9-1.7,7.1-6.7,17.9
				c-2.1,4.5-4.8,7.1-7.2,7.1c-1.2,0-2.2-0.6-2.7-1.7c-1-1.9-0.5-4.9,1.3-7.9c3.6-5.9,4.9-8.2,6.5-14.9c0.5-2,0.2-4-0.8-5.3
				c-0.7-0.9-1.7-1.5-2.8-1.5c-1.6,0-3.1,1-4.5,2.9c0.2,0.2,0.4,0.5,0.6,0.8c1.4,2.1,1.5,5.8,0.4,11c-0.6,2.7-1.7,4.9-2.7,7
				C7.1,25,6,27.2,6,29.9c0,1.5,1.4,3.9,4.3,3.9c1.8,0,3.7-0.5,6-2.2l0.9-0.7l0.6,0.9c4.2,4.3,9.9,0.4,13.7-3.4
				c1.6,3.2,5.1,5.2,10.6,5.1c3,0,6.1-0.7,8.6-2c1-0.5,1.9-1.1,2.7-1.7C68.8,39.4,80,30.2,80,23.4C80.3,19.3,77.6,14.3,69,12.7"/>
		</g>
	</g>
</g>
</svg>
