<?xml version="1.0" encoding="utf-8"?>
<!-- Generator: Adobe Illustrator 22.1.0, SVG Export Plug-In . SVG Version: 6.00 Build 0)  -->
<svg version="1.2" baseProfile="tiny" id="Layer_1" xmlns="http://www.w3.org/2000/svg" xmlns:xlink="http://www.w3.org/1999/xlink"
	 x="0px" y="0px" viewBox="0 0 100 61.2" xml:space="preserve">
<title>quote-right</title>
<g>
	<g>
		<path fill="#E81F1F" d="M25,59.7c-0.1,0-0.2,0-0.3,0c-13.3,0-22.3-9-22.3-22.3C2.4,7.3,25.2,2.8,38.8,2.8c1.1,0,2,0.8,2.1,1.8
			c0.2,1-0.5,2.1-1.5,2.4c-2.8,0.9-10.1,4.2-11.8,8.2c5,0.6,9.6,2.9,13.2,6.6c4.2,4.3,6.4,9.9,6.3,15.9c-0.1,6-2.5,11.5-6.7,15.7
			C36.4,57.4,30.9,59.7,25,59.7z M28.1,8.2C13.9,11.2,6.8,21,6.8,37.3c0,10.9,7.1,18,18,18c4.8,0.1,9.4-1.8,12.8-5.1
			C41,46.9,43,42.4,43,37.6c0.1-9.8-7.7-18-17.5-18.2c0,0-0.1,0-0.1,0c-1.2,0.1-2.1-0.8-2.2-2C22.9,13.5,25.2,10.5,28.1,8.2z"/>
	</g>
	<g>
		<path fill="#E81F1F" d="M75.4,59.7c-0.1,0-0.2,0-0.3,0c-13.3,0-22.3-9-22.3-22.3c0-30.1,22.8-34.6,36.4-34.6c1.1,0,2,0.8,2.1,1.8
			c0.2,1-0.5,2.1-1.5,2.4c-2.8,0.9-10.1,4.2-11.8,8.2c5,0.6,9.6,2.9,13.2,6.6c4.2,4.3,6.4,9.9,6.3,15.9c-0.1,6-2.5,11.5-6.7,15.7
			C86.8,57.4,81.3,59.7,75.4,59.7z M78.5,8.1C64.3,11.2,57.2,21,57.2,37.3c0,10.9,7.1,18,18,18c4.8,0,9.4-1.8,12.8-5.1
			c3.4-3.4,5.4-7.9,5.4-12.7c0.1-4.8-1.8-9.3-5.1-12.8c-3.3-3.4-7.7-5.3-12.4-5.4c0,0-0.1,0-0.1,0c-1.2,0-2.2-0.8-2.2-2
			C73.3,13.5,75.6,10.5,78.5,8.1z"/>
	</g>
</g>
</svg>
