<?xml version="1.0" encoding="utf-8"?>
<!-- Generator: Adobe Illustrator 22.1.0, SVG Export Plug-In . SVG Version: 6.00 Build 0)  -->
<svg version="1.2" baseProfile="tiny" id="Layer_1" xmlns="http://www.w3.org/2000/svg" xmlns:xlink="http://www.w3.org/1999/xlink"
	 x="0px" y="0px" viewBox="0 0 100 99" xml:space="preserve">
<path d="M11,95L11,95c3.2,0,8.7-2.2,19.3-20.9c6.1-2.8,12.8-5.3,19.4-7.3c4.8-1.4,9.6-2.5,14.3-3.3c7.7,4.8,16.7,7.8,23.1,7.8
	c7.1,0,7.8-4,7.9-5.2c0.1-1.7-0.5-3.2-1.7-4.5c-2.6-2.7-7.8-4.1-15.6-4.1c-3.9,0-8.1,0.3-12.7,1c-4.6-3-8.4-6.6-11.1-10.4
	c-2.5-3.6-4.7-7.4-6.5-11.6c5.1-14.8,6-24.5,2.9-28.9C49.1,5.9,47.3,5,45,5c-2.5,0-4.5,1.1-5.9,3.2c-4,6.2-0.9,19,3.1,28.6
	c-1.9,5.3-4.2,11-6.8,16.6c-2.9,6.3-5.8,12-8.6,17C19,74.2,6.3,81.2,5.1,88c-0.3,2,0.2,3.8,1.7,5.2C8,94.4,9.4,95,11,95z M77.7,62.3
	c9,0,11.6,2,12.1,2.6c0.4,0.4,0.4,0.7,0.4,1.1c-0.1,0.1-0.9,0.7-3.1,0.7c-3.5,0-9.1-1.3-15.1-4.1C74,62.3,75.9,62.3,77.7,62.3z
	 M43.1,10.8c0.5-0.7,1-1,1.9-1c0.8,0,1.1,0.3,1.4,0.7c1.4,2,1.5,8-1.8,19.2C41.6,20.5,41.4,13.3,43.1,10.8z M39.8,55.4
	c1.9-4.1,3.7-8.3,5.3-12.4l0.1,0.1l0.1-0.3c1.5,2.8,3.1,5.5,4.8,8c2.2,3.1,5,6.1,8.4,8.8l-0.5,0.1l0.2,0.1c-3.2,0.7-6.5,1.5-9.8,2.5
	c-4.8,1.4-9.6,3.1-14.2,5l0.1-0.3l-0.2,0.1C35.9,63.5,37.9,59.6,39.8,55.4z M9.8,88.8c0.4-2.2,4.5-6.2,12.6-10.7
	C15.1,89.6,11.7,90.3,11,90.3c-0.2,0-0.5-0.1-0.9-0.4C9.7,89.5,9.7,89.2,9.8,88.8z"/>
</svg>
